%TF.GenerationSoftware,KiCad,Pcbnew,8.0.2-1*%
%TF.CreationDate,2024-05-13T20:57:24-04:00*%
%TF.ProjectId,Transistor_Calculator_V2,5472616e-7369-4737-946f-725f43616c63,rev?*%
%TF.SameCoordinates,Original*%
%TF.FileFunction,Legend,Top*%
%TF.FilePolarity,Positive*%
%FSLAX46Y46*%
G04 Gerber Fmt 4.6, Leading zero omitted, Abs format (unit mm)*
G04 Created by KiCad (PCBNEW 8.0.2-1) date 2024-05-13 20:57:24*
%MOMM*%
%LPD*%
G01*
G04 APERTURE LIST*
%ADD10C,0.100000*%
%ADD11C,0.150000*%
%ADD12C,0.120000*%
%ADD13C,0.350000*%
G04 APERTURE END LIST*
D10*
X71820000Y-45680000D02*
X96960000Y-45680000D01*
X96960000Y-68590000D01*
X71820000Y-68590000D01*
X71820000Y-45680000D01*
X19490000Y-15530000D02*
X56420000Y-15530000D01*
X56420000Y-45690000D01*
X19490000Y-45690000D01*
X19490000Y-15530000D01*
X56420000Y-15530000D02*
X96960000Y-15530000D01*
X96960000Y-45680000D01*
X56420000Y-45680000D01*
X56420000Y-15530000D01*
X44270000Y-45690000D02*
X71820000Y-45690000D01*
X71820000Y-68600000D01*
X44270000Y-68600000D01*
X44270000Y-45690000D01*
X19490000Y-45690000D02*
X44270000Y-45690000D01*
X44270000Y-68600000D01*
X19490000Y-68600000D01*
X19490000Y-45690000D01*
D11*
X92860588Y-70869819D02*
X92289160Y-70869819D01*
X92574874Y-70869819D02*
X92574874Y-69869819D01*
X92574874Y-69869819D02*
X92479636Y-70012676D01*
X92479636Y-70012676D02*
X92384398Y-70107914D01*
X92384398Y-70107914D02*
X92289160Y-70155533D01*
X93289160Y-70488866D02*
X94051065Y-70488866D01*
X94860588Y-70346009D02*
X95003445Y-70393628D01*
X95003445Y-70393628D02*
X95051064Y-70441247D01*
X95051064Y-70441247D02*
X95098683Y-70536485D01*
X95098683Y-70536485D02*
X95098683Y-70679342D01*
X95098683Y-70679342D02*
X95051064Y-70774580D01*
X95051064Y-70774580D02*
X95003445Y-70822200D01*
X95003445Y-70822200D02*
X94908207Y-70869819D01*
X94908207Y-70869819D02*
X94527255Y-70869819D01*
X94527255Y-70869819D02*
X94527255Y-69869819D01*
X94527255Y-69869819D02*
X94860588Y-69869819D01*
X94860588Y-69869819D02*
X94955826Y-69917438D01*
X94955826Y-69917438D02*
X95003445Y-69965057D01*
X95003445Y-69965057D02*
X95051064Y-70060295D01*
X95051064Y-70060295D02*
X95051064Y-70155533D01*
X95051064Y-70155533D02*
X95003445Y-70250771D01*
X95003445Y-70250771D02*
X94955826Y-70298390D01*
X94955826Y-70298390D02*
X94860588Y-70346009D01*
X94860588Y-70346009D02*
X94527255Y-70346009D01*
X95527255Y-70869819D02*
X95527255Y-70203152D01*
X95527255Y-69869819D02*
X95479636Y-69917438D01*
X95479636Y-69917438D02*
X95527255Y-69965057D01*
X95527255Y-69965057D02*
X95574874Y-69917438D01*
X95574874Y-69917438D02*
X95527255Y-69869819D01*
X95527255Y-69869819D02*
X95527255Y-69965057D01*
X95860588Y-70203152D02*
X96241540Y-70203152D01*
X96003445Y-69869819D02*
X96003445Y-70726961D01*
X96003445Y-70726961D02*
X96051064Y-70822200D01*
X96051064Y-70822200D02*
X96146302Y-70869819D01*
X96146302Y-70869819D02*
X96241540Y-70869819D01*
X97289160Y-70584104D02*
X97765350Y-70584104D01*
X97193922Y-70869819D02*
X97527255Y-69869819D01*
X97527255Y-69869819D02*
X97860588Y-70869819D01*
X98622493Y-70869819D02*
X98622493Y-69869819D01*
X98622493Y-70822200D02*
X98527255Y-70869819D01*
X98527255Y-70869819D02*
X98336779Y-70869819D01*
X98336779Y-70869819D02*
X98241541Y-70822200D01*
X98241541Y-70822200D02*
X98193922Y-70774580D01*
X98193922Y-70774580D02*
X98146303Y-70679342D01*
X98146303Y-70679342D02*
X98146303Y-70393628D01*
X98146303Y-70393628D02*
X98193922Y-70298390D01*
X98193922Y-70298390D02*
X98241541Y-70250771D01*
X98241541Y-70250771D02*
X98336779Y-70203152D01*
X98336779Y-70203152D02*
X98527255Y-70203152D01*
X98527255Y-70203152D02*
X98622493Y-70250771D01*
X99527255Y-70869819D02*
X99527255Y-69869819D01*
X99527255Y-70822200D02*
X99432017Y-70869819D01*
X99432017Y-70869819D02*
X99241541Y-70869819D01*
X99241541Y-70869819D02*
X99146303Y-70822200D01*
X99146303Y-70822200D02*
X99098684Y-70774580D01*
X99098684Y-70774580D02*
X99051065Y-70679342D01*
X99051065Y-70679342D02*
X99051065Y-70393628D01*
X99051065Y-70393628D02*
X99098684Y-70298390D01*
X99098684Y-70298390D02*
X99146303Y-70250771D01*
X99146303Y-70250771D02*
X99241541Y-70203152D01*
X99241541Y-70203152D02*
X99432017Y-70203152D01*
X99432017Y-70203152D02*
X99527255Y-70250771D01*
X100384398Y-70822200D02*
X100289160Y-70869819D01*
X100289160Y-70869819D02*
X100098684Y-70869819D01*
X100098684Y-70869819D02*
X100003446Y-70822200D01*
X100003446Y-70822200D02*
X99955827Y-70726961D01*
X99955827Y-70726961D02*
X99955827Y-70346009D01*
X99955827Y-70346009D02*
X100003446Y-70250771D01*
X100003446Y-70250771D02*
X100098684Y-70203152D01*
X100098684Y-70203152D02*
X100289160Y-70203152D01*
X100289160Y-70203152D02*
X100384398Y-70250771D01*
X100384398Y-70250771D02*
X100432017Y-70346009D01*
X100432017Y-70346009D02*
X100432017Y-70441247D01*
X100432017Y-70441247D02*
X99955827Y-70536485D01*
X100860589Y-70869819D02*
X100860589Y-70203152D01*
X100860589Y-70393628D02*
X100908208Y-70298390D01*
X100908208Y-70298390D02*
X100955827Y-70250771D01*
X100955827Y-70250771D02*
X101051065Y-70203152D01*
X101051065Y-70203152D02*
X101146303Y-70203152D01*
X102146304Y-70203152D02*
X102384399Y-70869819D01*
X102384399Y-70869819D02*
X102622494Y-70203152D01*
X103193923Y-69869819D02*
X103289161Y-69869819D01*
X103289161Y-69869819D02*
X103384399Y-69917438D01*
X103384399Y-69917438D02*
X103432018Y-69965057D01*
X103432018Y-69965057D02*
X103479637Y-70060295D01*
X103479637Y-70060295D02*
X103527256Y-70250771D01*
X103527256Y-70250771D02*
X103527256Y-70488866D01*
X103527256Y-70488866D02*
X103479637Y-70679342D01*
X103479637Y-70679342D02*
X103432018Y-70774580D01*
X103432018Y-70774580D02*
X103384399Y-70822200D01*
X103384399Y-70822200D02*
X103289161Y-70869819D01*
X103289161Y-70869819D02*
X103193923Y-70869819D01*
X103193923Y-70869819D02*
X103098685Y-70822200D01*
X103098685Y-70822200D02*
X103051066Y-70774580D01*
X103051066Y-70774580D02*
X103003447Y-70679342D01*
X103003447Y-70679342D02*
X102955828Y-70488866D01*
X102955828Y-70488866D02*
X102955828Y-70250771D01*
X102955828Y-70250771D02*
X103003447Y-70060295D01*
X103003447Y-70060295D02*
X103051066Y-69965057D01*
X103051066Y-69965057D02*
X103098685Y-69917438D01*
X103098685Y-69917438D02*
X103193923Y-69869819D01*
X103955828Y-70774580D02*
X104003447Y-70822200D01*
X104003447Y-70822200D02*
X103955828Y-70869819D01*
X103955828Y-70869819D02*
X103908209Y-70822200D01*
X103908209Y-70822200D02*
X103955828Y-70774580D01*
X103955828Y-70774580D02*
X103955828Y-70869819D01*
X104336780Y-69869819D02*
X104955827Y-69869819D01*
X104955827Y-69869819D02*
X104622494Y-70250771D01*
X104622494Y-70250771D02*
X104765351Y-70250771D01*
X104765351Y-70250771D02*
X104860589Y-70298390D01*
X104860589Y-70298390D02*
X104908208Y-70346009D01*
X104908208Y-70346009D02*
X104955827Y-70441247D01*
X104955827Y-70441247D02*
X104955827Y-70679342D01*
X104955827Y-70679342D02*
X104908208Y-70774580D01*
X104908208Y-70774580D02*
X104860589Y-70822200D01*
X104860589Y-70822200D02*
X104765351Y-70869819D01*
X104765351Y-70869819D02*
X104479637Y-70869819D01*
X104479637Y-70869819D02*
X104384399Y-70822200D01*
X104384399Y-70822200D02*
X104336780Y-70774580D01*
X89166666Y-63654819D02*
X89166666Y-64369104D01*
X89166666Y-64369104D02*
X89119047Y-64511961D01*
X89119047Y-64511961D02*
X89023809Y-64607200D01*
X89023809Y-64607200D02*
X88880952Y-64654819D01*
X88880952Y-64654819D02*
X88785714Y-64654819D01*
X89642857Y-64654819D02*
X89642857Y-63654819D01*
X89642857Y-63654819D02*
X90023809Y-63654819D01*
X90023809Y-63654819D02*
X90119047Y-63702438D01*
X90119047Y-63702438D02*
X90166666Y-63750057D01*
X90166666Y-63750057D02*
X90214285Y-63845295D01*
X90214285Y-63845295D02*
X90214285Y-63988152D01*
X90214285Y-63988152D02*
X90166666Y-64083390D01*
X90166666Y-64083390D02*
X90119047Y-64131009D01*
X90119047Y-64131009D02*
X90023809Y-64178628D01*
X90023809Y-64178628D02*
X89642857Y-64178628D01*
X91071428Y-63654819D02*
X90880952Y-63654819D01*
X90880952Y-63654819D02*
X90785714Y-63702438D01*
X90785714Y-63702438D02*
X90738095Y-63750057D01*
X90738095Y-63750057D02*
X90642857Y-63892914D01*
X90642857Y-63892914D02*
X90595238Y-64083390D01*
X90595238Y-64083390D02*
X90595238Y-64464342D01*
X90595238Y-64464342D02*
X90642857Y-64559580D01*
X90642857Y-64559580D02*
X90690476Y-64607200D01*
X90690476Y-64607200D02*
X90785714Y-64654819D01*
X90785714Y-64654819D02*
X90976190Y-64654819D01*
X90976190Y-64654819D02*
X91071428Y-64607200D01*
X91071428Y-64607200D02*
X91119047Y-64559580D01*
X91119047Y-64559580D02*
X91166666Y-64464342D01*
X91166666Y-64464342D02*
X91166666Y-64226247D01*
X91166666Y-64226247D02*
X91119047Y-64131009D01*
X91119047Y-64131009D02*
X91071428Y-64083390D01*
X91071428Y-64083390D02*
X90976190Y-64035771D01*
X90976190Y-64035771D02*
X90785714Y-64035771D01*
X90785714Y-64035771D02*
X90690476Y-64083390D01*
X90690476Y-64083390D02*
X90642857Y-64131009D01*
X90642857Y-64131009D02*
X90595238Y-64226247D01*
X52670057Y-63651428D02*
X52622438Y-63746666D01*
X52622438Y-63746666D02*
X52527200Y-63841904D01*
X52527200Y-63841904D02*
X52384342Y-63984761D01*
X52384342Y-63984761D02*
X52336723Y-64079999D01*
X52336723Y-64079999D02*
X52336723Y-64175237D01*
X52574819Y-64127618D02*
X52527200Y-64222856D01*
X52527200Y-64222856D02*
X52431961Y-64318094D01*
X52431961Y-64318094D02*
X52241485Y-64365713D01*
X52241485Y-64365713D02*
X51908152Y-64365713D01*
X51908152Y-64365713D02*
X51717676Y-64318094D01*
X51717676Y-64318094D02*
X51622438Y-64222856D01*
X51622438Y-64222856D02*
X51574819Y-64127618D01*
X51574819Y-64127618D02*
X51574819Y-63937142D01*
X51574819Y-63937142D02*
X51622438Y-63841904D01*
X51622438Y-63841904D02*
X51717676Y-63746666D01*
X51717676Y-63746666D02*
X51908152Y-63699047D01*
X51908152Y-63699047D02*
X52241485Y-63699047D01*
X52241485Y-63699047D02*
X52431961Y-63746666D01*
X52431961Y-63746666D02*
X52527200Y-63841904D01*
X52527200Y-63841904D02*
X52574819Y-63937142D01*
X52574819Y-63937142D02*
X52574819Y-64127618D01*
X52574819Y-62746666D02*
X52574819Y-63318094D01*
X52574819Y-63032380D02*
X51574819Y-63032380D01*
X51574819Y-63032380D02*
X51717676Y-63127618D01*
X51717676Y-63127618D02*
X51812914Y-63222856D01*
X51812914Y-63222856D02*
X51860533Y-63318094D01*
X51574819Y-61841904D02*
X51574819Y-62318094D01*
X51574819Y-62318094D02*
X52051009Y-62365713D01*
X52051009Y-62365713D02*
X52003390Y-62318094D01*
X52003390Y-62318094D02*
X51955771Y-62222856D01*
X51955771Y-62222856D02*
X51955771Y-61984761D01*
X51955771Y-61984761D02*
X52003390Y-61889523D01*
X52003390Y-61889523D02*
X52051009Y-61841904D01*
X52051009Y-61841904D02*
X52146247Y-61794285D01*
X52146247Y-61794285D02*
X52384342Y-61794285D01*
X52384342Y-61794285D02*
X52479580Y-61841904D01*
X52479580Y-61841904D02*
X52527200Y-61889523D01*
X52527200Y-61889523D02*
X52574819Y-61984761D01*
X52574819Y-61984761D02*
X52574819Y-62222856D01*
X52574819Y-62222856D02*
X52527200Y-62318094D01*
X52527200Y-62318094D02*
X52479580Y-62365713D01*
X27753333Y-26304819D02*
X27420000Y-25828628D01*
X27181905Y-26304819D02*
X27181905Y-25304819D01*
X27181905Y-25304819D02*
X27562857Y-25304819D01*
X27562857Y-25304819D02*
X27658095Y-25352438D01*
X27658095Y-25352438D02*
X27705714Y-25400057D01*
X27705714Y-25400057D02*
X27753333Y-25495295D01*
X27753333Y-25495295D02*
X27753333Y-25638152D01*
X27753333Y-25638152D02*
X27705714Y-25733390D01*
X27705714Y-25733390D02*
X27658095Y-25781009D01*
X27658095Y-25781009D02*
X27562857Y-25828628D01*
X27562857Y-25828628D02*
X27181905Y-25828628D01*
X28086667Y-25304819D02*
X28705714Y-25304819D01*
X28705714Y-25304819D02*
X28372381Y-25685771D01*
X28372381Y-25685771D02*
X28515238Y-25685771D01*
X28515238Y-25685771D02*
X28610476Y-25733390D01*
X28610476Y-25733390D02*
X28658095Y-25781009D01*
X28658095Y-25781009D02*
X28705714Y-25876247D01*
X28705714Y-25876247D02*
X28705714Y-26114342D01*
X28705714Y-26114342D02*
X28658095Y-26209580D01*
X28658095Y-26209580D02*
X28610476Y-26257200D01*
X28610476Y-26257200D02*
X28515238Y-26304819D01*
X28515238Y-26304819D02*
X28229524Y-26304819D01*
X28229524Y-26304819D02*
X28134286Y-26257200D01*
X28134286Y-26257200D02*
X28086667Y-26209580D01*
X50516666Y-33654819D02*
X50516666Y-34369104D01*
X50516666Y-34369104D02*
X50469047Y-34511961D01*
X50469047Y-34511961D02*
X50373809Y-34607200D01*
X50373809Y-34607200D02*
X50230952Y-34654819D01*
X50230952Y-34654819D02*
X50135714Y-34654819D01*
X50992857Y-34654819D02*
X50992857Y-33654819D01*
X50992857Y-33654819D02*
X51373809Y-33654819D01*
X51373809Y-33654819D02*
X51469047Y-33702438D01*
X51469047Y-33702438D02*
X51516666Y-33750057D01*
X51516666Y-33750057D02*
X51564285Y-33845295D01*
X51564285Y-33845295D02*
X51564285Y-33988152D01*
X51564285Y-33988152D02*
X51516666Y-34083390D01*
X51516666Y-34083390D02*
X51469047Y-34131009D01*
X51469047Y-34131009D02*
X51373809Y-34178628D01*
X51373809Y-34178628D02*
X50992857Y-34178628D01*
X52516666Y-34654819D02*
X51945238Y-34654819D01*
X52230952Y-34654819D02*
X52230952Y-33654819D01*
X52230952Y-33654819D02*
X52135714Y-33797676D01*
X52135714Y-33797676D02*
X52040476Y-33892914D01*
X52040476Y-33892914D02*
X51945238Y-33940533D01*
X33613333Y-25994819D02*
X33280000Y-25518628D01*
X33041905Y-25994819D02*
X33041905Y-24994819D01*
X33041905Y-24994819D02*
X33422857Y-24994819D01*
X33422857Y-24994819D02*
X33518095Y-25042438D01*
X33518095Y-25042438D02*
X33565714Y-25090057D01*
X33565714Y-25090057D02*
X33613333Y-25185295D01*
X33613333Y-25185295D02*
X33613333Y-25328152D01*
X33613333Y-25328152D02*
X33565714Y-25423390D01*
X33565714Y-25423390D02*
X33518095Y-25471009D01*
X33518095Y-25471009D02*
X33422857Y-25518628D01*
X33422857Y-25518628D02*
X33041905Y-25518628D01*
X34518095Y-24994819D02*
X34041905Y-24994819D01*
X34041905Y-24994819D02*
X33994286Y-25471009D01*
X33994286Y-25471009D02*
X34041905Y-25423390D01*
X34041905Y-25423390D02*
X34137143Y-25375771D01*
X34137143Y-25375771D02*
X34375238Y-25375771D01*
X34375238Y-25375771D02*
X34470476Y-25423390D01*
X34470476Y-25423390D02*
X34518095Y-25471009D01*
X34518095Y-25471009D02*
X34565714Y-25566247D01*
X34565714Y-25566247D02*
X34565714Y-25804342D01*
X34565714Y-25804342D02*
X34518095Y-25899580D01*
X34518095Y-25899580D02*
X34470476Y-25947200D01*
X34470476Y-25947200D02*
X34375238Y-25994819D01*
X34375238Y-25994819D02*
X34137143Y-25994819D01*
X34137143Y-25994819D02*
X34041905Y-25947200D01*
X34041905Y-25947200D02*
X33994286Y-25899580D01*
X38050057Y-28245238D02*
X38002438Y-28340476D01*
X38002438Y-28340476D02*
X37907200Y-28435714D01*
X37907200Y-28435714D02*
X37764342Y-28578571D01*
X37764342Y-28578571D02*
X37716723Y-28673809D01*
X37716723Y-28673809D02*
X37716723Y-28769047D01*
X37954819Y-28721428D02*
X37907200Y-28816666D01*
X37907200Y-28816666D02*
X37811961Y-28911904D01*
X37811961Y-28911904D02*
X37621485Y-28959523D01*
X37621485Y-28959523D02*
X37288152Y-28959523D01*
X37288152Y-28959523D02*
X37097676Y-28911904D01*
X37097676Y-28911904D02*
X37002438Y-28816666D01*
X37002438Y-28816666D02*
X36954819Y-28721428D01*
X36954819Y-28721428D02*
X36954819Y-28530952D01*
X36954819Y-28530952D02*
X37002438Y-28435714D01*
X37002438Y-28435714D02*
X37097676Y-28340476D01*
X37097676Y-28340476D02*
X37288152Y-28292857D01*
X37288152Y-28292857D02*
X37621485Y-28292857D01*
X37621485Y-28292857D02*
X37811961Y-28340476D01*
X37811961Y-28340476D02*
X37907200Y-28435714D01*
X37907200Y-28435714D02*
X37954819Y-28530952D01*
X37954819Y-28530952D02*
X37954819Y-28721428D01*
X36954819Y-27959523D02*
X36954819Y-27340476D01*
X36954819Y-27340476D02*
X37335771Y-27673809D01*
X37335771Y-27673809D02*
X37335771Y-27530952D01*
X37335771Y-27530952D02*
X37383390Y-27435714D01*
X37383390Y-27435714D02*
X37431009Y-27388095D01*
X37431009Y-27388095D02*
X37526247Y-27340476D01*
X37526247Y-27340476D02*
X37764342Y-27340476D01*
X37764342Y-27340476D02*
X37859580Y-27388095D01*
X37859580Y-27388095D02*
X37907200Y-27435714D01*
X37907200Y-27435714D02*
X37954819Y-27530952D01*
X37954819Y-27530952D02*
X37954819Y-27816666D01*
X37954819Y-27816666D02*
X37907200Y-27911904D01*
X37907200Y-27911904D02*
X37859580Y-27959523D01*
X44783333Y-32034819D02*
X44450000Y-31558628D01*
X44211905Y-32034819D02*
X44211905Y-31034819D01*
X44211905Y-31034819D02*
X44592857Y-31034819D01*
X44592857Y-31034819D02*
X44688095Y-31082438D01*
X44688095Y-31082438D02*
X44735714Y-31130057D01*
X44735714Y-31130057D02*
X44783333Y-31225295D01*
X44783333Y-31225295D02*
X44783333Y-31368152D01*
X44783333Y-31368152D02*
X44735714Y-31463390D01*
X44735714Y-31463390D02*
X44688095Y-31511009D01*
X44688095Y-31511009D02*
X44592857Y-31558628D01*
X44592857Y-31558628D02*
X44211905Y-31558628D01*
X45116667Y-31034819D02*
X45783333Y-31034819D01*
X45783333Y-31034819D02*
X45354762Y-32034819D01*
X93516666Y-36654819D02*
X93516666Y-37369104D01*
X93516666Y-37369104D02*
X93469047Y-37511961D01*
X93469047Y-37511961D02*
X93373809Y-37607200D01*
X93373809Y-37607200D02*
X93230952Y-37654819D01*
X93230952Y-37654819D02*
X93135714Y-37654819D01*
X93992857Y-37654819D02*
X93992857Y-36654819D01*
X93992857Y-36654819D02*
X94373809Y-36654819D01*
X94373809Y-36654819D02*
X94469047Y-36702438D01*
X94469047Y-36702438D02*
X94516666Y-36750057D01*
X94516666Y-36750057D02*
X94564285Y-36845295D01*
X94564285Y-36845295D02*
X94564285Y-36988152D01*
X94564285Y-36988152D02*
X94516666Y-37083390D01*
X94516666Y-37083390D02*
X94469047Y-37131009D01*
X94469047Y-37131009D02*
X94373809Y-37178628D01*
X94373809Y-37178628D02*
X93992857Y-37178628D01*
X94945238Y-36750057D02*
X94992857Y-36702438D01*
X94992857Y-36702438D02*
X95088095Y-36654819D01*
X95088095Y-36654819D02*
X95326190Y-36654819D01*
X95326190Y-36654819D02*
X95421428Y-36702438D01*
X95421428Y-36702438D02*
X95469047Y-36750057D01*
X95469047Y-36750057D02*
X95516666Y-36845295D01*
X95516666Y-36845295D02*
X95516666Y-36940533D01*
X95516666Y-36940533D02*
X95469047Y-37083390D01*
X95469047Y-37083390D02*
X94897619Y-37654819D01*
X94897619Y-37654819D02*
X95516666Y-37654819D01*
X65210057Y-23185238D02*
X65162438Y-23280476D01*
X65162438Y-23280476D02*
X65067200Y-23375714D01*
X65067200Y-23375714D02*
X64924342Y-23518571D01*
X64924342Y-23518571D02*
X64876723Y-23613809D01*
X64876723Y-23613809D02*
X64876723Y-23709047D01*
X65114819Y-23661428D02*
X65067200Y-23756666D01*
X65067200Y-23756666D02*
X64971961Y-23851904D01*
X64971961Y-23851904D02*
X64781485Y-23899523D01*
X64781485Y-23899523D02*
X64448152Y-23899523D01*
X64448152Y-23899523D02*
X64257676Y-23851904D01*
X64257676Y-23851904D02*
X64162438Y-23756666D01*
X64162438Y-23756666D02*
X64114819Y-23661428D01*
X64114819Y-23661428D02*
X64114819Y-23470952D01*
X64114819Y-23470952D02*
X64162438Y-23375714D01*
X64162438Y-23375714D02*
X64257676Y-23280476D01*
X64257676Y-23280476D02*
X64448152Y-23232857D01*
X64448152Y-23232857D02*
X64781485Y-23232857D01*
X64781485Y-23232857D02*
X64971961Y-23280476D01*
X64971961Y-23280476D02*
X65067200Y-23375714D01*
X65067200Y-23375714D02*
X65114819Y-23470952D01*
X65114819Y-23470952D02*
X65114819Y-23661428D01*
X64114819Y-22899523D02*
X64114819Y-22232857D01*
X64114819Y-22232857D02*
X65114819Y-22661428D01*
X39816666Y-62654819D02*
X39816666Y-63369104D01*
X39816666Y-63369104D02*
X39769047Y-63511961D01*
X39769047Y-63511961D02*
X39673809Y-63607200D01*
X39673809Y-63607200D02*
X39530952Y-63654819D01*
X39530952Y-63654819D02*
X39435714Y-63654819D01*
X40292857Y-63654819D02*
X40292857Y-62654819D01*
X40292857Y-62654819D02*
X40673809Y-62654819D01*
X40673809Y-62654819D02*
X40769047Y-62702438D01*
X40769047Y-62702438D02*
X40816666Y-62750057D01*
X40816666Y-62750057D02*
X40864285Y-62845295D01*
X40864285Y-62845295D02*
X40864285Y-62988152D01*
X40864285Y-62988152D02*
X40816666Y-63083390D01*
X40816666Y-63083390D02*
X40769047Y-63131009D01*
X40769047Y-63131009D02*
X40673809Y-63178628D01*
X40673809Y-63178628D02*
X40292857Y-63178628D01*
X41769047Y-62654819D02*
X41292857Y-62654819D01*
X41292857Y-62654819D02*
X41245238Y-63131009D01*
X41245238Y-63131009D02*
X41292857Y-63083390D01*
X41292857Y-63083390D02*
X41388095Y-63035771D01*
X41388095Y-63035771D02*
X41626190Y-63035771D01*
X41626190Y-63035771D02*
X41721428Y-63083390D01*
X41721428Y-63083390D02*
X41769047Y-63131009D01*
X41769047Y-63131009D02*
X41816666Y-63226247D01*
X41816666Y-63226247D02*
X41816666Y-63464342D01*
X41816666Y-63464342D02*
X41769047Y-63559580D01*
X41769047Y-63559580D02*
X41721428Y-63607200D01*
X41721428Y-63607200D02*
X41626190Y-63654819D01*
X41626190Y-63654819D02*
X41388095Y-63654819D01*
X41388095Y-63654819D02*
X41292857Y-63607200D01*
X41292857Y-63607200D02*
X41245238Y-63559580D01*
X66184819Y-50782857D02*
X65708628Y-51116190D01*
X66184819Y-51354285D02*
X65184819Y-51354285D01*
X65184819Y-51354285D02*
X65184819Y-50973333D01*
X65184819Y-50973333D02*
X65232438Y-50878095D01*
X65232438Y-50878095D02*
X65280057Y-50830476D01*
X65280057Y-50830476D02*
X65375295Y-50782857D01*
X65375295Y-50782857D02*
X65518152Y-50782857D01*
X65518152Y-50782857D02*
X65613390Y-50830476D01*
X65613390Y-50830476D02*
X65661009Y-50878095D01*
X65661009Y-50878095D02*
X65708628Y-50973333D01*
X65708628Y-50973333D02*
X65708628Y-51354285D01*
X65280057Y-50401904D02*
X65232438Y-50354285D01*
X65232438Y-50354285D02*
X65184819Y-50259047D01*
X65184819Y-50259047D02*
X65184819Y-50020952D01*
X65184819Y-50020952D02*
X65232438Y-49925714D01*
X65232438Y-49925714D02*
X65280057Y-49878095D01*
X65280057Y-49878095D02*
X65375295Y-49830476D01*
X65375295Y-49830476D02*
X65470533Y-49830476D01*
X65470533Y-49830476D02*
X65613390Y-49878095D01*
X65613390Y-49878095D02*
X66184819Y-50449523D01*
X66184819Y-50449523D02*
X66184819Y-49830476D01*
X65518152Y-48973333D02*
X66184819Y-48973333D01*
X65137200Y-49211428D02*
X65851485Y-49449523D01*
X65851485Y-49449523D02*
X65851485Y-48830476D01*
X70258152Y-50925714D02*
X70924819Y-50925714D01*
X69877200Y-51163809D02*
X70591485Y-51401904D01*
X70591485Y-51401904D02*
X70591485Y-50782857D01*
X69924819Y-50497142D02*
X69924819Y-49830476D01*
X69924819Y-49830476D02*
X70924819Y-50259047D01*
X70924819Y-49449523D02*
X69924819Y-49449523D01*
X70924819Y-48878095D02*
X70353390Y-49306666D01*
X69924819Y-48878095D02*
X70496247Y-49449523D01*
X39288333Y-31934819D02*
X38955000Y-31458628D01*
X38716905Y-31934819D02*
X38716905Y-30934819D01*
X38716905Y-30934819D02*
X39097857Y-30934819D01*
X39097857Y-30934819D02*
X39193095Y-30982438D01*
X39193095Y-30982438D02*
X39240714Y-31030057D01*
X39240714Y-31030057D02*
X39288333Y-31125295D01*
X39288333Y-31125295D02*
X39288333Y-31268152D01*
X39288333Y-31268152D02*
X39240714Y-31363390D01*
X39240714Y-31363390D02*
X39193095Y-31411009D01*
X39193095Y-31411009D02*
X39097857Y-31458628D01*
X39097857Y-31458628D02*
X38716905Y-31458628D01*
X40145476Y-30934819D02*
X39955000Y-30934819D01*
X39955000Y-30934819D02*
X39859762Y-30982438D01*
X39859762Y-30982438D02*
X39812143Y-31030057D01*
X39812143Y-31030057D02*
X39716905Y-31172914D01*
X39716905Y-31172914D02*
X39669286Y-31363390D01*
X39669286Y-31363390D02*
X39669286Y-31744342D01*
X39669286Y-31744342D02*
X39716905Y-31839580D01*
X39716905Y-31839580D02*
X39764524Y-31887200D01*
X39764524Y-31887200D02*
X39859762Y-31934819D01*
X39859762Y-31934819D02*
X40050238Y-31934819D01*
X40050238Y-31934819D02*
X40145476Y-31887200D01*
X40145476Y-31887200D02*
X40193095Y-31839580D01*
X40193095Y-31839580D02*
X40240714Y-31744342D01*
X40240714Y-31744342D02*
X40240714Y-31506247D01*
X40240714Y-31506247D02*
X40193095Y-31411009D01*
X40193095Y-31411009D02*
X40145476Y-31363390D01*
X40145476Y-31363390D02*
X40050238Y-31315771D01*
X40050238Y-31315771D02*
X39859762Y-31315771D01*
X39859762Y-31315771D02*
X39764524Y-31363390D01*
X39764524Y-31363390D02*
X39716905Y-31411009D01*
X39716905Y-31411009D02*
X39669286Y-31506247D01*
X22902142Y-53734819D02*
X22568809Y-53258628D01*
X22330714Y-53734819D02*
X22330714Y-52734819D01*
X22330714Y-52734819D02*
X22711666Y-52734819D01*
X22711666Y-52734819D02*
X22806904Y-52782438D01*
X22806904Y-52782438D02*
X22854523Y-52830057D01*
X22854523Y-52830057D02*
X22902142Y-52925295D01*
X22902142Y-52925295D02*
X22902142Y-53068152D01*
X22902142Y-53068152D02*
X22854523Y-53163390D01*
X22854523Y-53163390D02*
X22806904Y-53211009D01*
X22806904Y-53211009D02*
X22711666Y-53258628D01*
X22711666Y-53258628D02*
X22330714Y-53258628D01*
X23854523Y-53734819D02*
X23283095Y-53734819D01*
X23568809Y-53734819D02*
X23568809Y-52734819D01*
X23568809Y-52734819D02*
X23473571Y-52877676D01*
X23473571Y-52877676D02*
X23378333Y-52972914D01*
X23378333Y-52972914D02*
X23283095Y-53020533D01*
X24330714Y-53734819D02*
X24521190Y-53734819D01*
X24521190Y-53734819D02*
X24616428Y-53687200D01*
X24616428Y-53687200D02*
X24664047Y-53639580D01*
X24664047Y-53639580D02*
X24759285Y-53496723D01*
X24759285Y-53496723D02*
X24806904Y-53306247D01*
X24806904Y-53306247D02*
X24806904Y-52925295D01*
X24806904Y-52925295D02*
X24759285Y-52830057D01*
X24759285Y-52830057D02*
X24711666Y-52782438D01*
X24711666Y-52782438D02*
X24616428Y-52734819D01*
X24616428Y-52734819D02*
X24425952Y-52734819D01*
X24425952Y-52734819D02*
X24330714Y-52782438D01*
X24330714Y-52782438D02*
X24283095Y-52830057D01*
X24283095Y-52830057D02*
X24235476Y-52925295D01*
X24235476Y-52925295D02*
X24235476Y-53163390D01*
X24235476Y-53163390D02*
X24283095Y-53258628D01*
X24283095Y-53258628D02*
X24330714Y-53306247D01*
X24330714Y-53306247D02*
X24425952Y-53353866D01*
X24425952Y-53353866D02*
X24616428Y-53353866D01*
X24616428Y-53353866D02*
X24711666Y-53306247D01*
X24711666Y-53306247D02*
X24759285Y-53258628D01*
X24759285Y-53258628D02*
X24806904Y-53163390D01*
X64650057Y-34775238D02*
X64602438Y-34870476D01*
X64602438Y-34870476D02*
X64507200Y-34965714D01*
X64507200Y-34965714D02*
X64364342Y-35108571D01*
X64364342Y-35108571D02*
X64316723Y-35203809D01*
X64316723Y-35203809D02*
X64316723Y-35299047D01*
X64554819Y-35251428D02*
X64507200Y-35346666D01*
X64507200Y-35346666D02*
X64411961Y-35441904D01*
X64411961Y-35441904D02*
X64221485Y-35489523D01*
X64221485Y-35489523D02*
X63888152Y-35489523D01*
X63888152Y-35489523D02*
X63697676Y-35441904D01*
X63697676Y-35441904D02*
X63602438Y-35346666D01*
X63602438Y-35346666D02*
X63554819Y-35251428D01*
X63554819Y-35251428D02*
X63554819Y-35060952D01*
X63554819Y-35060952D02*
X63602438Y-34965714D01*
X63602438Y-34965714D02*
X63697676Y-34870476D01*
X63697676Y-34870476D02*
X63888152Y-34822857D01*
X63888152Y-34822857D02*
X64221485Y-34822857D01*
X64221485Y-34822857D02*
X64411961Y-34870476D01*
X64411961Y-34870476D02*
X64507200Y-34965714D01*
X64507200Y-34965714D02*
X64554819Y-35060952D01*
X64554819Y-35060952D02*
X64554819Y-35251428D01*
X63554819Y-33965714D02*
X63554819Y-34156190D01*
X63554819Y-34156190D02*
X63602438Y-34251428D01*
X63602438Y-34251428D02*
X63650057Y-34299047D01*
X63650057Y-34299047D02*
X63792914Y-34394285D01*
X63792914Y-34394285D02*
X63983390Y-34441904D01*
X63983390Y-34441904D02*
X64364342Y-34441904D01*
X64364342Y-34441904D02*
X64459580Y-34394285D01*
X64459580Y-34394285D02*
X64507200Y-34346666D01*
X64507200Y-34346666D02*
X64554819Y-34251428D01*
X64554819Y-34251428D02*
X64554819Y-34060952D01*
X64554819Y-34060952D02*
X64507200Y-33965714D01*
X64507200Y-33965714D02*
X64459580Y-33918095D01*
X64459580Y-33918095D02*
X64364342Y-33870476D01*
X64364342Y-33870476D02*
X64126247Y-33870476D01*
X64126247Y-33870476D02*
X64031009Y-33918095D01*
X64031009Y-33918095D02*
X63983390Y-33965714D01*
X63983390Y-33965714D02*
X63935771Y-34060952D01*
X63935771Y-34060952D02*
X63935771Y-34251428D01*
X63935771Y-34251428D02*
X63983390Y-34346666D01*
X63983390Y-34346666D02*
X64031009Y-34394285D01*
X64031009Y-34394285D02*
X64126247Y-34441904D01*
X82554819Y-21537857D02*
X82078628Y-21871190D01*
X82554819Y-22109285D02*
X81554819Y-22109285D01*
X81554819Y-22109285D02*
X81554819Y-21728333D01*
X81554819Y-21728333D02*
X81602438Y-21633095D01*
X81602438Y-21633095D02*
X81650057Y-21585476D01*
X81650057Y-21585476D02*
X81745295Y-21537857D01*
X81745295Y-21537857D02*
X81888152Y-21537857D01*
X81888152Y-21537857D02*
X81983390Y-21585476D01*
X81983390Y-21585476D02*
X82031009Y-21633095D01*
X82031009Y-21633095D02*
X82078628Y-21728333D01*
X82078628Y-21728333D02*
X82078628Y-22109285D01*
X82554819Y-20585476D02*
X82554819Y-21156904D01*
X82554819Y-20871190D02*
X81554819Y-20871190D01*
X81554819Y-20871190D02*
X81697676Y-20966428D01*
X81697676Y-20966428D02*
X81792914Y-21061666D01*
X81792914Y-21061666D02*
X81840533Y-21156904D01*
X81554819Y-19680714D02*
X81554819Y-20156904D01*
X81554819Y-20156904D02*
X82031009Y-20204523D01*
X82031009Y-20204523D02*
X81983390Y-20156904D01*
X81983390Y-20156904D02*
X81935771Y-20061666D01*
X81935771Y-20061666D02*
X81935771Y-19823571D01*
X81935771Y-19823571D02*
X81983390Y-19728333D01*
X81983390Y-19728333D02*
X82031009Y-19680714D01*
X82031009Y-19680714D02*
X82126247Y-19633095D01*
X82126247Y-19633095D02*
X82364342Y-19633095D01*
X82364342Y-19633095D02*
X82459580Y-19680714D01*
X82459580Y-19680714D02*
X82507200Y-19728333D01*
X82507200Y-19728333D02*
X82554819Y-19823571D01*
X82554819Y-19823571D02*
X82554819Y-20061666D01*
X82554819Y-20061666D02*
X82507200Y-20156904D01*
X82507200Y-20156904D02*
X82459580Y-20204523D01*
X59386666Y-21704819D02*
X59386666Y-22419104D01*
X59386666Y-22419104D02*
X59339047Y-22561961D01*
X59339047Y-22561961D02*
X59243809Y-22657200D01*
X59243809Y-22657200D02*
X59100952Y-22704819D01*
X59100952Y-22704819D02*
X59005714Y-22704819D01*
X60386666Y-22704819D02*
X59815238Y-22704819D01*
X60100952Y-22704819D02*
X60100952Y-21704819D01*
X60100952Y-21704819D02*
X60005714Y-21847676D01*
X60005714Y-21847676D02*
X59910476Y-21942914D01*
X59910476Y-21942914D02*
X59815238Y-21990533D01*
X59529523Y-16954819D02*
X59053333Y-16954819D01*
X59053333Y-16954819D02*
X59005714Y-17431009D01*
X59005714Y-17431009D02*
X59053333Y-17383390D01*
X59053333Y-17383390D02*
X59148571Y-17335771D01*
X59148571Y-17335771D02*
X59386666Y-17335771D01*
X59386666Y-17335771D02*
X59481904Y-17383390D01*
X59481904Y-17383390D02*
X59529523Y-17431009D01*
X59529523Y-17431009D02*
X59577142Y-17526247D01*
X59577142Y-17526247D02*
X59577142Y-17764342D01*
X59577142Y-17764342D02*
X59529523Y-17859580D01*
X59529523Y-17859580D02*
X59481904Y-17907200D01*
X59481904Y-17907200D02*
X59386666Y-17954819D01*
X59386666Y-17954819D02*
X59148571Y-17954819D01*
X59148571Y-17954819D02*
X59053333Y-17907200D01*
X59053333Y-17907200D02*
X59005714Y-17859580D01*
X59862857Y-16954819D02*
X60196190Y-17954819D01*
X60196190Y-17954819D02*
X60529523Y-16954819D01*
X77630057Y-28565238D02*
X77582438Y-28660476D01*
X77582438Y-28660476D02*
X77487200Y-28755714D01*
X77487200Y-28755714D02*
X77344342Y-28898571D01*
X77344342Y-28898571D02*
X77296723Y-28993809D01*
X77296723Y-28993809D02*
X77296723Y-29089047D01*
X77534819Y-29041428D02*
X77487200Y-29136666D01*
X77487200Y-29136666D02*
X77391961Y-29231904D01*
X77391961Y-29231904D02*
X77201485Y-29279523D01*
X77201485Y-29279523D02*
X76868152Y-29279523D01*
X76868152Y-29279523D02*
X76677676Y-29231904D01*
X76677676Y-29231904D02*
X76582438Y-29136666D01*
X76582438Y-29136666D02*
X76534819Y-29041428D01*
X76534819Y-29041428D02*
X76534819Y-28850952D01*
X76534819Y-28850952D02*
X76582438Y-28755714D01*
X76582438Y-28755714D02*
X76677676Y-28660476D01*
X76677676Y-28660476D02*
X76868152Y-28612857D01*
X76868152Y-28612857D02*
X77201485Y-28612857D01*
X77201485Y-28612857D02*
X77391961Y-28660476D01*
X77391961Y-28660476D02*
X77487200Y-28755714D01*
X77487200Y-28755714D02*
X77534819Y-28850952D01*
X77534819Y-28850952D02*
X77534819Y-29041428D01*
X76963390Y-28041428D02*
X76915771Y-28136666D01*
X76915771Y-28136666D02*
X76868152Y-28184285D01*
X76868152Y-28184285D02*
X76772914Y-28231904D01*
X76772914Y-28231904D02*
X76725295Y-28231904D01*
X76725295Y-28231904D02*
X76630057Y-28184285D01*
X76630057Y-28184285D02*
X76582438Y-28136666D01*
X76582438Y-28136666D02*
X76534819Y-28041428D01*
X76534819Y-28041428D02*
X76534819Y-27850952D01*
X76534819Y-27850952D02*
X76582438Y-27755714D01*
X76582438Y-27755714D02*
X76630057Y-27708095D01*
X76630057Y-27708095D02*
X76725295Y-27660476D01*
X76725295Y-27660476D02*
X76772914Y-27660476D01*
X76772914Y-27660476D02*
X76868152Y-27708095D01*
X76868152Y-27708095D02*
X76915771Y-27755714D01*
X76915771Y-27755714D02*
X76963390Y-27850952D01*
X76963390Y-27850952D02*
X76963390Y-28041428D01*
X76963390Y-28041428D02*
X77011009Y-28136666D01*
X77011009Y-28136666D02*
X77058628Y-28184285D01*
X77058628Y-28184285D02*
X77153866Y-28231904D01*
X77153866Y-28231904D02*
X77344342Y-28231904D01*
X77344342Y-28231904D02*
X77439580Y-28184285D01*
X77439580Y-28184285D02*
X77487200Y-28136666D01*
X77487200Y-28136666D02*
X77534819Y-28041428D01*
X77534819Y-28041428D02*
X77534819Y-27850952D01*
X77534819Y-27850952D02*
X77487200Y-27755714D01*
X77487200Y-27755714D02*
X77439580Y-27708095D01*
X77439580Y-27708095D02*
X77344342Y-27660476D01*
X77344342Y-27660476D02*
X77153866Y-27660476D01*
X77153866Y-27660476D02*
X77058628Y-27708095D01*
X77058628Y-27708095D02*
X77011009Y-27755714D01*
X77011009Y-27755714D02*
X76963390Y-27850952D01*
X22212142Y-60604819D02*
X21878809Y-60128628D01*
X21640714Y-60604819D02*
X21640714Y-59604819D01*
X21640714Y-59604819D02*
X22021666Y-59604819D01*
X22021666Y-59604819D02*
X22116904Y-59652438D01*
X22116904Y-59652438D02*
X22164523Y-59700057D01*
X22164523Y-59700057D02*
X22212142Y-59795295D01*
X22212142Y-59795295D02*
X22212142Y-59938152D01*
X22212142Y-59938152D02*
X22164523Y-60033390D01*
X22164523Y-60033390D02*
X22116904Y-60081009D01*
X22116904Y-60081009D02*
X22021666Y-60128628D01*
X22021666Y-60128628D02*
X21640714Y-60128628D01*
X23164523Y-60604819D02*
X22593095Y-60604819D01*
X22878809Y-60604819D02*
X22878809Y-59604819D01*
X22878809Y-59604819D02*
X22783571Y-59747676D01*
X22783571Y-59747676D02*
X22688333Y-59842914D01*
X22688333Y-59842914D02*
X22593095Y-59890533D01*
X23735952Y-60033390D02*
X23640714Y-59985771D01*
X23640714Y-59985771D02*
X23593095Y-59938152D01*
X23593095Y-59938152D02*
X23545476Y-59842914D01*
X23545476Y-59842914D02*
X23545476Y-59795295D01*
X23545476Y-59795295D02*
X23593095Y-59700057D01*
X23593095Y-59700057D02*
X23640714Y-59652438D01*
X23640714Y-59652438D02*
X23735952Y-59604819D01*
X23735952Y-59604819D02*
X23926428Y-59604819D01*
X23926428Y-59604819D02*
X24021666Y-59652438D01*
X24021666Y-59652438D02*
X24069285Y-59700057D01*
X24069285Y-59700057D02*
X24116904Y-59795295D01*
X24116904Y-59795295D02*
X24116904Y-59842914D01*
X24116904Y-59842914D02*
X24069285Y-59938152D01*
X24069285Y-59938152D02*
X24021666Y-59985771D01*
X24021666Y-59985771D02*
X23926428Y-60033390D01*
X23926428Y-60033390D02*
X23735952Y-60033390D01*
X23735952Y-60033390D02*
X23640714Y-60081009D01*
X23640714Y-60081009D02*
X23593095Y-60128628D01*
X23593095Y-60128628D02*
X23545476Y-60223866D01*
X23545476Y-60223866D02*
X23545476Y-60414342D01*
X23545476Y-60414342D02*
X23593095Y-60509580D01*
X23593095Y-60509580D02*
X23640714Y-60557200D01*
X23640714Y-60557200D02*
X23735952Y-60604819D01*
X23735952Y-60604819D02*
X23926428Y-60604819D01*
X23926428Y-60604819D02*
X24021666Y-60557200D01*
X24021666Y-60557200D02*
X24069285Y-60509580D01*
X24069285Y-60509580D02*
X24116904Y-60414342D01*
X24116904Y-60414342D02*
X24116904Y-60223866D01*
X24116904Y-60223866D02*
X24069285Y-60128628D01*
X24069285Y-60128628D02*
X24021666Y-60081009D01*
X24021666Y-60081009D02*
X23926428Y-60033390D01*
X74602142Y-61624819D02*
X74268809Y-61148628D01*
X74030714Y-61624819D02*
X74030714Y-60624819D01*
X74030714Y-60624819D02*
X74411666Y-60624819D01*
X74411666Y-60624819D02*
X74506904Y-60672438D01*
X74506904Y-60672438D02*
X74554523Y-60720057D01*
X74554523Y-60720057D02*
X74602142Y-60815295D01*
X74602142Y-60815295D02*
X74602142Y-60958152D01*
X74602142Y-60958152D02*
X74554523Y-61053390D01*
X74554523Y-61053390D02*
X74506904Y-61101009D01*
X74506904Y-61101009D02*
X74411666Y-61148628D01*
X74411666Y-61148628D02*
X74030714Y-61148628D01*
X74983095Y-60720057D02*
X75030714Y-60672438D01*
X75030714Y-60672438D02*
X75125952Y-60624819D01*
X75125952Y-60624819D02*
X75364047Y-60624819D01*
X75364047Y-60624819D02*
X75459285Y-60672438D01*
X75459285Y-60672438D02*
X75506904Y-60720057D01*
X75506904Y-60720057D02*
X75554523Y-60815295D01*
X75554523Y-60815295D02*
X75554523Y-60910533D01*
X75554523Y-60910533D02*
X75506904Y-61053390D01*
X75506904Y-61053390D02*
X74935476Y-61624819D01*
X74935476Y-61624819D02*
X75554523Y-61624819D01*
X76411666Y-60624819D02*
X76221190Y-60624819D01*
X76221190Y-60624819D02*
X76125952Y-60672438D01*
X76125952Y-60672438D02*
X76078333Y-60720057D01*
X76078333Y-60720057D02*
X75983095Y-60862914D01*
X75983095Y-60862914D02*
X75935476Y-61053390D01*
X75935476Y-61053390D02*
X75935476Y-61434342D01*
X75935476Y-61434342D02*
X75983095Y-61529580D01*
X75983095Y-61529580D02*
X76030714Y-61577200D01*
X76030714Y-61577200D02*
X76125952Y-61624819D01*
X76125952Y-61624819D02*
X76316428Y-61624819D01*
X76316428Y-61624819D02*
X76411666Y-61577200D01*
X76411666Y-61577200D02*
X76459285Y-61529580D01*
X76459285Y-61529580D02*
X76506904Y-61434342D01*
X76506904Y-61434342D02*
X76506904Y-61196247D01*
X76506904Y-61196247D02*
X76459285Y-61101009D01*
X76459285Y-61101009D02*
X76411666Y-61053390D01*
X76411666Y-61053390D02*
X76316428Y-61005771D01*
X76316428Y-61005771D02*
X76125952Y-61005771D01*
X76125952Y-61005771D02*
X76030714Y-61053390D01*
X76030714Y-61053390D02*
X75983095Y-61101009D01*
X75983095Y-61101009D02*
X75935476Y-61196247D01*
X74627142Y-39164819D02*
X74293809Y-38688628D01*
X74055714Y-39164819D02*
X74055714Y-38164819D01*
X74055714Y-38164819D02*
X74436666Y-38164819D01*
X74436666Y-38164819D02*
X74531904Y-38212438D01*
X74531904Y-38212438D02*
X74579523Y-38260057D01*
X74579523Y-38260057D02*
X74627142Y-38355295D01*
X74627142Y-38355295D02*
X74627142Y-38498152D01*
X74627142Y-38498152D02*
X74579523Y-38593390D01*
X74579523Y-38593390D02*
X74531904Y-38641009D01*
X74531904Y-38641009D02*
X74436666Y-38688628D01*
X74436666Y-38688628D02*
X74055714Y-38688628D01*
X75579523Y-39164819D02*
X75008095Y-39164819D01*
X75293809Y-39164819D02*
X75293809Y-38164819D01*
X75293809Y-38164819D02*
X75198571Y-38307676D01*
X75198571Y-38307676D02*
X75103333Y-38402914D01*
X75103333Y-38402914D02*
X75008095Y-38450533D01*
X76198571Y-38164819D02*
X76293809Y-38164819D01*
X76293809Y-38164819D02*
X76389047Y-38212438D01*
X76389047Y-38212438D02*
X76436666Y-38260057D01*
X76436666Y-38260057D02*
X76484285Y-38355295D01*
X76484285Y-38355295D02*
X76531904Y-38545771D01*
X76531904Y-38545771D02*
X76531904Y-38783866D01*
X76531904Y-38783866D02*
X76484285Y-38974342D01*
X76484285Y-38974342D02*
X76436666Y-39069580D01*
X76436666Y-39069580D02*
X76389047Y-39117200D01*
X76389047Y-39117200D02*
X76293809Y-39164819D01*
X76293809Y-39164819D02*
X76198571Y-39164819D01*
X76198571Y-39164819D02*
X76103333Y-39117200D01*
X76103333Y-39117200D02*
X76055714Y-39069580D01*
X76055714Y-39069580D02*
X76008095Y-38974342D01*
X76008095Y-38974342D02*
X75960476Y-38783866D01*
X75960476Y-38783866D02*
X75960476Y-38545771D01*
X75960476Y-38545771D02*
X76008095Y-38355295D01*
X76008095Y-38355295D02*
X76055714Y-38260057D01*
X76055714Y-38260057D02*
X76103333Y-38212438D01*
X76103333Y-38212438D02*
X76198571Y-38164819D01*
X46972142Y-61474819D02*
X46638809Y-60998628D01*
X46400714Y-61474819D02*
X46400714Y-60474819D01*
X46400714Y-60474819D02*
X46781666Y-60474819D01*
X46781666Y-60474819D02*
X46876904Y-60522438D01*
X46876904Y-60522438D02*
X46924523Y-60570057D01*
X46924523Y-60570057D02*
X46972142Y-60665295D01*
X46972142Y-60665295D02*
X46972142Y-60808152D01*
X46972142Y-60808152D02*
X46924523Y-60903390D01*
X46924523Y-60903390D02*
X46876904Y-60951009D01*
X46876904Y-60951009D02*
X46781666Y-60998628D01*
X46781666Y-60998628D02*
X46400714Y-60998628D01*
X47353095Y-60570057D02*
X47400714Y-60522438D01*
X47400714Y-60522438D02*
X47495952Y-60474819D01*
X47495952Y-60474819D02*
X47734047Y-60474819D01*
X47734047Y-60474819D02*
X47829285Y-60522438D01*
X47829285Y-60522438D02*
X47876904Y-60570057D01*
X47876904Y-60570057D02*
X47924523Y-60665295D01*
X47924523Y-60665295D02*
X47924523Y-60760533D01*
X47924523Y-60760533D02*
X47876904Y-60903390D01*
X47876904Y-60903390D02*
X47305476Y-61474819D01*
X47305476Y-61474819D02*
X47924523Y-61474819D01*
X48305476Y-60570057D02*
X48353095Y-60522438D01*
X48353095Y-60522438D02*
X48448333Y-60474819D01*
X48448333Y-60474819D02*
X48686428Y-60474819D01*
X48686428Y-60474819D02*
X48781666Y-60522438D01*
X48781666Y-60522438D02*
X48829285Y-60570057D01*
X48829285Y-60570057D02*
X48876904Y-60665295D01*
X48876904Y-60665295D02*
X48876904Y-60760533D01*
X48876904Y-60760533D02*
X48829285Y-60903390D01*
X48829285Y-60903390D02*
X48257857Y-61474819D01*
X48257857Y-61474819D02*
X48876904Y-61474819D01*
X61516666Y-59654819D02*
X61516666Y-60369104D01*
X61516666Y-60369104D02*
X61469047Y-60511961D01*
X61469047Y-60511961D02*
X61373809Y-60607200D01*
X61373809Y-60607200D02*
X61230952Y-60654819D01*
X61230952Y-60654819D02*
X61135714Y-60654819D01*
X61992857Y-60654819D02*
X61992857Y-59654819D01*
X61992857Y-59654819D02*
X62373809Y-59654819D01*
X62373809Y-59654819D02*
X62469047Y-59702438D01*
X62469047Y-59702438D02*
X62516666Y-59750057D01*
X62516666Y-59750057D02*
X62564285Y-59845295D01*
X62564285Y-59845295D02*
X62564285Y-59988152D01*
X62564285Y-59988152D02*
X62516666Y-60083390D01*
X62516666Y-60083390D02*
X62469047Y-60131009D01*
X62469047Y-60131009D02*
X62373809Y-60178628D01*
X62373809Y-60178628D02*
X61992857Y-60178628D01*
X63421428Y-59988152D02*
X63421428Y-60654819D01*
X63183333Y-59607200D02*
X62945238Y-60321485D01*
X62945238Y-60321485D02*
X63564285Y-60321485D01*
X27880057Y-63201428D02*
X27832438Y-63296666D01*
X27832438Y-63296666D02*
X27737200Y-63391904D01*
X27737200Y-63391904D02*
X27594342Y-63534761D01*
X27594342Y-63534761D02*
X27546723Y-63629999D01*
X27546723Y-63629999D02*
X27546723Y-63725237D01*
X27784819Y-63677618D02*
X27737200Y-63772856D01*
X27737200Y-63772856D02*
X27641961Y-63868094D01*
X27641961Y-63868094D02*
X27451485Y-63915713D01*
X27451485Y-63915713D02*
X27118152Y-63915713D01*
X27118152Y-63915713D02*
X26927676Y-63868094D01*
X26927676Y-63868094D02*
X26832438Y-63772856D01*
X26832438Y-63772856D02*
X26784819Y-63677618D01*
X26784819Y-63677618D02*
X26784819Y-63487142D01*
X26784819Y-63487142D02*
X26832438Y-63391904D01*
X26832438Y-63391904D02*
X26927676Y-63296666D01*
X26927676Y-63296666D02*
X27118152Y-63249047D01*
X27118152Y-63249047D02*
X27451485Y-63249047D01*
X27451485Y-63249047D02*
X27641961Y-63296666D01*
X27641961Y-63296666D02*
X27737200Y-63391904D01*
X27737200Y-63391904D02*
X27784819Y-63487142D01*
X27784819Y-63487142D02*
X27784819Y-63677618D01*
X27784819Y-62296666D02*
X27784819Y-62868094D01*
X27784819Y-62582380D02*
X26784819Y-62582380D01*
X26784819Y-62582380D02*
X26927676Y-62677618D01*
X26927676Y-62677618D02*
X27022914Y-62772856D01*
X27022914Y-62772856D02*
X27070533Y-62868094D01*
X26880057Y-61915713D02*
X26832438Y-61868094D01*
X26832438Y-61868094D02*
X26784819Y-61772856D01*
X26784819Y-61772856D02*
X26784819Y-61534761D01*
X26784819Y-61534761D02*
X26832438Y-61439523D01*
X26832438Y-61439523D02*
X26880057Y-61391904D01*
X26880057Y-61391904D02*
X26975295Y-61344285D01*
X26975295Y-61344285D02*
X27070533Y-61344285D01*
X27070533Y-61344285D02*
X27213390Y-61391904D01*
X27213390Y-61391904D02*
X27784819Y-61963332D01*
X27784819Y-61963332D02*
X27784819Y-61344285D01*
X55044819Y-50562857D02*
X54568628Y-50896190D01*
X55044819Y-51134285D02*
X54044819Y-51134285D01*
X54044819Y-51134285D02*
X54044819Y-50753333D01*
X54044819Y-50753333D02*
X54092438Y-50658095D01*
X54092438Y-50658095D02*
X54140057Y-50610476D01*
X54140057Y-50610476D02*
X54235295Y-50562857D01*
X54235295Y-50562857D02*
X54378152Y-50562857D01*
X54378152Y-50562857D02*
X54473390Y-50610476D01*
X54473390Y-50610476D02*
X54521009Y-50658095D01*
X54521009Y-50658095D02*
X54568628Y-50753333D01*
X54568628Y-50753333D02*
X54568628Y-51134285D01*
X54140057Y-50181904D02*
X54092438Y-50134285D01*
X54092438Y-50134285D02*
X54044819Y-50039047D01*
X54044819Y-50039047D02*
X54044819Y-49800952D01*
X54044819Y-49800952D02*
X54092438Y-49705714D01*
X54092438Y-49705714D02*
X54140057Y-49658095D01*
X54140057Y-49658095D02*
X54235295Y-49610476D01*
X54235295Y-49610476D02*
X54330533Y-49610476D01*
X54330533Y-49610476D02*
X54473390Y-49658095D01*
X54473390Y-49658095D02*
X55044819Y-50229523D01*
X55044819Y-50229523D02*
X55044819Y-49610476D01*
X54044819Y-49277142D02*
X54044819Y-48658095D01*
X54044819Y-48658095D02*
X54425771Y-48991428D01*
X54425771Y-48991428D02*
X54425771Y-48848571D01*
X54425771Y-48848571D02*
X54473390Y-48753333D01*
X54473390Y-48753333D02*
X54521009Y-48705714D01*
X54521009Y-48705714D02*
X54616247Y-48658095D01*
X54616247Y-48658095D02*
X54854342Y-48658095D01*
X54854342Y-48658095D02*
X54949580Y-48705714D01*
X54949580Y-48705714D02*
X54997200Y-48753333D01*
X54997200Y-48753333D02*
X55044819Y-48848571D01*
X55044819Y-48848571D02*
X55044819Y-49134285D01*
X55044819Y-49134285D02*
X54997200Y-49229523D01*
X54997200Y-49229523D02*
X54949580Y-49277142D01*
X18304819Y-46165237D02*
X17304819Y-46165237D01*
X17638152Y-45689047D02*
X18304819Y-45689047D01*
X17733390Y-45689047D02*
X17685771Y-45641428D01*
X17685771Y-45641428D02*
X17638152Y-45546190D01*
X17638152Y-45546190D02*
X17638152Y-45403333D01*
X17638152Y-45403333D02*
X17685771Y-45308095D01*
X17685771Y-45308095D02*
X17781009Y-45260476D01*
X17781009Y-45260476D02*
X18304819Y-45260476D01*
X17638152Y-44784285D02*
X18638152Y-44784285D01*
X17685771Y-44784285D02*
X17638152Y-44689047D01*
X17638152Y-44689047D02*
X17638152Y-44498571D01*
X17638152Y-44498571D02*
X17685771Y-44403333D01*
X17685771Y-44403333D02*
X17733390Y-44355714D01*
X17733390Y-44355714D02*
X17828628Y-44308095D01*
X17828628Y-44308095D02*
X18114342Y-44308095D01*
X18114342Y-44308095D02*
X18209580Y-44355714D01*
X18209580Y-44355714D02*
X18257200Y-44403333D01*
X18257200Y-44403333D02*
X18304819Y-44498571D01*
X18304819Y-44498571D02*
X18304819Y-44689047D01*
X18304819Y-44689047D02*
X18257200Y-44784285D01*
X17638152Y-43450952D02*
X18304819Y-43450952D01*
X17638152Y-43879523D02*
X18161961Y-43879523D01*
X18161961Y-43879523D02*
X18257200Y-43831904D01*
X18257200Y-43831904D02*
X18304819Y-43736666D01*
X18304819Y-43736666D02*
X18304819Y-43593809D01*
X18304819Y-43593809D02*
X18257200Y-43498571D01*
X18257200Y-43498571D02*
X18209580Y-43450952D01*
X17638152Y-43117618D02*
X17638152Y-42736666D01*
X17304819Y-42974761D02*
X18161961Y-42974761D01*
X18161961Y-42974761D02*
X18257200Y-42927142D01*
X18257200Y-42927142D02*
X18304819Y-42831904D01*
X18304819Y-42831904D02*
X18304819Y-42736666D01*
X18400057Y-42641428D02*
X18400057Y-41879523D01*
X18304819Y-41641427D02*
X17304819Y-41641427D01*
X17304819Y-41641427D02*
X17304819Y-41260475D01*
X17304819Y-41260475D02*
X17352438Y-41165237D01*
X17352438Y-41165237D02*
X17400057Y-41117618D01*
X17400057Y-41117618D02*
X17495295Y-41069999D01*
X17495295Y-41069999D02*
X17638152Y-41069999D01*
X17638152Y-41069999D02*
X17733390Y-41117618D01*
X17733390Y-41117618D02*
X17781009Y-41165237D01*
X17781009Y-41165237D02*
X17828628Y-41260475D01*
X17828628Y-41260475D02*
X17828628Y-41641427D01*
X18304819Y-40641427D02*
X17638152Y-40641427D01*
X17304819Y-40641427D02*
X17352438Y-40689046D01*
X17352438Y-40689046D02*
X17400057Y-40641427D01*
X17400057Y-40641427D02*
X17352438Y-40593808D01*
X17352438Y-40593808D02*
X17304819Y-40641427D01*
X17304819Y-40641427D02*
X17400057Y-40641427D01*
X17638152Y-40165237D02*
X18304819Y-40165237D01*
X17733390Y-40165237D02*
X17685771Y-40117618D01*
X17685771Y-40117618D02*
X17638152Y-40022380D01*
X17638152Y-40022380D02*
X17638152Y-39879523D01*
X17638152Y-39879523D02*
X17685771Y-39784285D01*
X17685771Y-39784285D02*
X17781009Y-39736666D01*
X17781009Y-39736666D02*
X18304819Y-39736666D01*
X18257200Y-39308094D02*
X18304819Y-39212856D01*
X18304819Y-39212856D02*
X18304819Y-39022380D01*
X18304819Y-39022380D02*
X18257200Y-38927142D01*
X18257200Y-38927142D02*
X18161961Y-38879523D01*
X18161961Y-38879523D02*
X18114342Y-38879523D01*
X18114342Y-38879523D02*
X18019104Y-38927142D01*
X18019104Y-38927142D02*
X17971485Y-39022380D01*
X17971485Y-39022380D02*
X17971485Y-39165237D01*
X17971485Y-39165237D02*
X17923866Y-39260475D01*
X17923866Y-39260475D02*
X17828628Y-39308094D01*
X17828628Y-39308094D02*
X17781009Y-39308094D01*
X17781009Y-39308094D02*
X17685771Y-39260475D01*
X17685771Y-39260475D02*
X17638152Y-39165237D01*
X17638152Y-39165237D02*
X17638152Y-39022380D01*
X17638152Y-39022380D02*
X17685771Y-38927142D01*
X18304819Y-37927142D02*
X18304819Y-38498570D01*
X18304819Y-38212856D02*
X17304819Y-38212856D01*
X17304819Y-38212856D02*
X17447676Y-38308094D01*
X17447676Y-38308094D02*
X17542914Y-38403332D01*
X17542914Y-38403332D02*
X17590533Y-38498570D01*
X77582142Y-32084819D02*
X77248809Y-31608628D01*
X77010714Y-32084819D02*
X77010714Y-31084819D01*
X77010714Y-31084819D02*
X77391666Y-31084819D01*
X77391666Y-31084819D02*
X77486904Y-31132438D01*
X77486904Y-31132438D02*
X77534523Y-31180057D01*
X77534523Y-31180057D02*
X77582142Y-31275295D01*
X77582142Y-31275295D02*
X77582142Y-31418152D01*
X77582142Y-31418152D02*
X77534523Y-31513390D01*
X77534523Y-31513390D02*
X77486904Y-31561009D01*
X77486904Y-31561009D02*
X77391666Y-31608628D01*
X77391666Y-31608628D02*
X77010714Y-31608628D01*
X78534523Y-32084819D02*
X77963095Y-32084819D01*
X78248809Y-32084819D02*
X78248809Y-31084819D01*
X78248809Y-31084819D02*
X78153571Y-31227676D01*
X78153571Y-31227676D02*
X78058333Y-31322914D01*
X78058333Y-31322914D02*
X77963095Y-31370533D01*
X78867857Y-31084819D02*
X79486904Y-31084819D01*
X79486904Y-31084819D02*
X79153571Y-31465771D01*
X79153571Y-31465771D02*
X79296428Y-31465771D01*
X79296428Y-31465771D02*
X79391666Y-31513390D01*
X79391666Y-31513390D02*
X79439285Y-31561009D01*
X79439285Y-31561009D02*
X79486904Y-31656247D01*
X79486904Y-31656247D02*
X79486904Y-31894342D01*
X79486904Y-31894342D02*
X79439285Y-31989580D01*
X79439285Y-31989580D02*
X79391666Y-32037200D01*
X79391666Y-32037200D02*
X79296428Y-32084819D01*
X79296428Y-32084819D02*
X79010714Y-32084819D01*
X79010714Y-32084819D02*
X78915476Y-32037200D01*
X78915476Y-32037200D02*
X78867857Y-31989580D01*
X66166666Y-67204819D02*
X66166666Y-67919104D01*
X66166666Y-67919104D02*
X66119047Y-68061961D01*
X66119047Y-68061961D02*
X66023809Y-68157200D01*
X66023809Y-68157200D02*
X65880952Y-68204819D01*
X65880952Y-68204819D02*
X65785714Y-68204819D01*
X66595238Y-67300057D02*
X66642857Y-67252438D01*
X66642857Y-67252438D02*
X66738095Y-67204819D01*
X66738095Y-67204819D02*
X66976190Y-67204819D01*
X66976190Y-67204819D02*
X67071428Y-67252438D01*
X67071428Y-67252438D02*
X67119047Y-67300057D01*
X67119047Y-67300057D02*
X67166666Y-67395295D01*
X67166666Y-67395295D02*
X67166666Y-67490533D01*
X67166666Y-67490533D02*
X67119047Y-67633390D01*
X67119047Y-67633390D02*
X66547619Y-68204819D01*
X66547619Y-68204819D02*
X67166666Y-68204819D01*
X65738095Y-62502438D02*
X65642857Y-62454819D01*
X65642857Y-62454819D02*
X65500000Y-62454819D01*
X65500000Y-62454819D02*
X65357143Y-62502438D01*
X65357143Y-62502438D02*
X65261905Y-62597676D01*
X65261905Y-62597676D02*
X65214286Y-62692914D01*
X65214286Y-62692914D02*
X65166667Y-62883390D01*
X65166667Y-62883390D02*
X65166667Y-63026247D01*
X65166667Y-63026247D02*
X65214286Y-63216723D01*
X65214286Y-63216723D02*
X65261905Y-63311961D01*
X65261905Y-63311961D02*
X65357143Y-63407200D01*
X65357143Y-63407200D02*
X65500000Y-63454819D01*
X65500000Y-63454819D02*
X65595238Y-63454819D01*
X65595238Y-63454819D02*
X65738095Y-63407200D01*
X65738095Y-63407200D02*
X65785714Y-63359580D01*
X65785714Y-63359580D02*
X65785714Y-63026247D01*
X65785714Y-63026247D02*
X65595238Y-63026247D01*
X66214286Y-63454819D02*
X66214286Y-62454819D01*
X66214286Y-62454819D02*
X66785714Y-63454819D01*
X66785714Y-63454819D02*
X66785714Y-62454819D01*
X67261905Y-63454819D02*
X67261905Y-62454819D01*
X67261905Y-62454819D02*
X67500000Y-62454819D01*
X67500000Y-62454819D02*
X67642857Y-62502438D01*
X67642857Y-62502438D02*
X67738095Y-62597676D01*
X67738095Y-62597676D02*
X67785714Y-62692914D01*
X67785714Y-62692914D02*
X67833333Y-62883390D01*
X67833333Y-62883390D02*
X67833333Y-63026247D01*
X67833333Y-63026247D02*
X67785714Y-63216723D01*
X67785714Y-63216723D02*
X67738095Y-63311961D01*
X67738095Y-63311961D02*
X67642857Y-63407200D01*
X67642857Y-63407200D02*
X67500000Y-63454819D01*
X67500000Y-63454819D02*
X67261905Y-63454819D01*
X63650057Y-56841428D02*
X63602438Y-56936666D01*
X63602438Y-56936666D02*
X63507200Y-57031904D01*
X63507200Y-57031904D02*
X63364342Y-57174761D01*
X63364342Y-57174761D02*
X63316723Y-57269999D01*
X63316723Y-57269999D02*
X63316723Y-57365237D01*
X63554819Y-57317618D02*
X63507200Y-57412856D01*
X63507200Y-57412856D02*
X63411961Y-57508094D01*
X63411961Y-57508094D02*
X63221485Y-57555713D01*
X63221485Y-57555713D02*
X62888152Y-57555713D01*
X62888152Y-57555713D02*
X62697676Y-57508094D01*
X62697676Y-57508094D02*
X62602438Y-57412856D01*
X62602438Y-57412856D02*
X62554819Y-57317618D01*
X62554819Y-57317618D02*
X62554819Y-57127142D01*
X62554819Y-57127142D02*
X62602438Y-57031904D01*
X62602438Y-57031904D02*
X62697676Y-56936666D01*
X62697676Y-56936666D02*
X62888152Y-56889047D01*
X62888152Y-56889047D02*
X63221485Y-56889047D01*
X63221485Y-56889047D02*
X63411961Y-56936666D01*
X63411961Y-56936666D02*
X63507200Y-57031904D01*
X63507200Y-57031904D02*
X63554819Y-57127142D01*
X63554819Y-57127142D02*
X63554819Y-57317618D01*
X63554819Y-55936666D02*
X63554819Y-56508094D01*
X63554819Y-56222380D02*
X62554819Y-56222380D01*
X62554819Y-56222380D02*
X62697676Y-56317618D01*
X62697676Y-56317618D02*
X62792914Y-56412856D01*
X62792914Y-56412856D02*
X62840533Y-56508094D01*
X62554819Y-55079523D02*
X62554819Y-55269999D01*
X62554819Y-55269999D02*
X62602438Y-55365237D01*
X62602438Y-55365237D02*
X62650057Y-55412856D01*
X62650057Y-55412856D02*
X62792914Y-55508094D01*
X62792914Y-55508094D02*
X62983390Y-55555713D01*
X62983390Y-55555713D02*
X63364342Y-55555713D01*
X63364342Y-55555713D02*
X63459580Y-55508094D01*
X63459580Y-55508094D02*
X63507200Y-55460475D01*
X63507200Y-55460475D02*
X63554819Y-55365237D01*
X63554819Y-55365237D02*
X63554819Y-55174761D01*
X63554819Y-55174761D02*
X63507200Y-55079523D01*
X63507200Y-55079523D02*
X63459580Y-55031904D01*
X63459580Y-55031904D02*
X63364342Y-54984285D01*
X63364342Y-54984285D02*
X63126247Y-54984285D01*
X63126247Y-54984285D02*
X63031009Y-55031904D01*
X63031009Y-55031904D02*
X62983390Y-55079523D01*
X62983390Y-55079523D02*
X62935771Y-55174761D01*
X62935771Y-55174761D02*
X62935771Y-55365237D01*
X62935771Y-55365237D02*
X62983390Y-55460475D01*
X62983390Y-55460475D02*
X63031009Y-55508094D01*
X63031009Y-55508094D02*
X63126247Y-55555713D01*
X79570057Y-41275238D02*
X79522438Y-41370476D01*
X79522438Y-41370476D02*
X79427200Y-41465714D01*
X79427200Y-41465714D02*
X79284342Y-41608571D01*
X79284342Y-41608571D02*
X79236723Y-41703809D01*
X79236723Y-41703809D02*
X79236723Y-41799047D01*
X79474819Y-41751428D02*
X79427200Y-41846666D01*
X79427200Y-41846666D02*
X79331961Y-41941904D01*
X79331961Y-41941904D02*
X79141485Y-41989523D01*
X79141485Y-41989523D02*
X78808152Y-41989523D01*
X78808152Y-41989523D02*
X78617676Y-41941904D01*
X78617676Y-41941904D02*
X78522438Y-41846666D01*
X78522438Y-41846666D02*
X78474819Y-41751428D01*
X78474819Y-41751428D02*
X78474819Y-41560952D01*
X78474819Y-41560952D02*
X78522438Y-41465714D01*
X78522438Y-41465714D02*
X78617676Y-41370476D01*
X78617676Y-41370476D02*
X78808152Y-41322857D01*
X78808152Y-41322857D02*
X79141485Y-41322857D01*
X79141485Y-41322857D02*
X79331961Y-41370476D01*
X79331961Y-41370476D02*
X79427200Y-41465714D01*
X79427200Y-41465714D02*
X79474819Y-41560952D01*
X79474819Y-41560952D02*
X79474819Y-41751428D01*
X79474819Y-40846666D02*
X79474819Y-40656190D01*
X79474819Y-40656190D02*
X79427200Y-40560952D01*
X79427200Y-40560952D02*
X79379580Y-40513333D01*
X79379580Y-40513333D02*
X79236723Y-40418095D01*
X79236723Y-40418095D02*
X79046247Y-40370476D01*
X79046247Y-40370476D02*
X78665295Y-40370476D01*
X78665295Y-40370476D02*
X78570057Y-40418095D01*
X78570057Y-40418095D02*
X78522438Y-40465714D01*
X78522438Y-40465714D02*
X78474819Y-40560952D01*
X78474819Y-40560952D02*
X78474819Y-40751428D01*
X78474819Y-40751428D02*
X78522438Y-40846666D01*
X78522438Y-40846666D02*
X78570057Y-40894285D01*
X78570057Y-40894285D02*
X78665295Y-40941904D01*
X78665295Y-40941904D02*
X78903390Y-40941904D01*
X78903390Y-40941904D02*
X78998628Y-40894285D01*
X78998628Y-40894285D02*
X79046247Y-40846666D01*
X79046247Y-40846666D02*
X79093866Y-40751428D01*
X79093866Y-40751428D02*
X79093866Y-40560952D01*
X79093866Y-40560952D02*
X79046247Y-40465714D01*
X79046247Y-40465714D02*
X78998628Y-40418095D01*
X78998628Y-40418095D02*
X78903390Y-40370476D01*
X98324819Y-48146190D02*
X98324819Y-47955714D01*
X98324819Y-47955714D02*
X98372438Y-47860476D01*
X98372438Y-47860476D02*
X98467676Y-47765238D01*
X98467676Y-47765238D02*
X98658152Y-47717619D01*
X98658152Y-47717619D02*
X98991485Y-47717619D01*
X98991485Y-47717619D02*
X99181961Y-47765238D01*
X99181961Y-47765238D02*
X99277200Y-47860476D01*
X99277200Y-47860476D02*
X99324819Y-47955714D01*
X99324819Y-47955714D02*
X99324819Y-48146190D01*
X99324819Y-48146190D02*
X99277200Y-48241428D01*
X99277200Y-48241428D02*
X99181961Y-48336666D01*
X99181961Y-48336666D02*
X98991485Y-48384285D01*
X98991485Y-48384285D02*
X98658152Y-48384285D01*
X98658152Y-48384285D02*
X98467676Y-48336666D01*
X98467676Y-48336666D02*
X98372438Y-48241428D01*
X98372438Y-48241428D02*
X98324819Y-48146190D01*
X98658152Y-46860476D02*
X99324819Y-46860476D01*
X98658152Y-47289047D02*
X99181961Y-47289047D01*
X99181961Y-47289047D02*
X99277200Y-47241428D01*
X99277200Y-47241428D02*
X99324819Y-47146190D01*
X99324819Y-47146190D02*
X99324819Y-47003333D01*
X99324819Y-47003333D02*
X99277200Y-46908095D01*
X99277200Y-46908095D02*
X99229580Y-46860476D01*
X98658152Y-46527142D02*
X98658152Y-46146190D01*
X98324819Y-46384285D02*
X99181961Y-46384285D01*
X99181961Y-46384285D02*
X99277200Y-46336666D01*
X99277200Y-46336666D02*
X99324819Y-46241428D01*
X99324819Y-46241428D02*
X99324819Y-46146190D01*
X98658152Y-45812856D02*
X99658152Y-45812856D01*
X98705771Y-45812856D02*
X98658152Y-45717618D01*
X98658152Y-45717618D02*
X98658152Y-45527142D01*
X98658152Y-45527142D02*
X98705771Y-45431904D01*
X98705771Y-45431904D02*
X98753390Y-45384285D01*
X98753390Y-45384285D02*
X98848628Y-45336666D01*
X98848628Y-45336666D02*
X99134342Y-45336666D01*
X99134342Y-45336666D02*
X99229580Y-45384285D01*
X99229580Y-45384285D02*
X99277200Y-45431904D01*
X99277200Y-45431904D02*
X99324819Y-45527142D01*
X99324819Y-45527142D02*
X99324819Y-45717618D01*
X99324819Y-45717618D02*
X99277200Y-45812856D01*
X98658152Y-44479523D02*
X99324819Y-44479523D01*
X98658152Y-44908094D02*
X99181961Y-44908094D01*
X99181961Y-44908094D02*
X99277200Y-44860475D01*
X99277200Y-44860475D02*
X99324819Y-44765237D01*
X99324819Y-44765237D02*
X99324819Y-44622380D01*
X99324819Y-44622380D02*
X99277200Y-44527142D01*
X99277200Y-44527142D02*
X99229580Y-44479523D01*
X98658152Y-44146189D02*
X98658152Y-43765237D01*
X98324819Y-44003332D02*
X99181961Y-44003332D01*
X99181961Y-44003332D02*
X99277200Y-43955713D01*
X99277200Y-43955713D02*
X99324819Y-43860475D01*
X99324819Y-43860475D02*
X99324819Y-43765237D01*
X99420057Y-43669999D02*
X99420057Y-42908094D01*
X99324819Y-42669998D02*
X98324819Y-42669998D01*
X98324819Y-42669998D02*
X98324819Y-42289046D01*
X98324819Y-42289046D02*
X98372438Y-42193808D01*
X98372438Y-42193808D02*
X98420057Y-42146189D01*
X98420057Y-42146189D02*
X98515295Y-42098570D01*
X98515295Y-42098570D02*
X98658152Y-42098570D01*
X98658152Y-42098570D02*
X98753390Y-42146189D01*
X98753390Y-42146189D02*
X98801009Y-42193808D01*
X98801009Y-42193808D02*
X98848628Y-42289046D01*
X98848628Y-42289046D02*
X98848628Y-42669998D01*
X99324819Y-41669998D02*
X98658152Y-41669998D01*
X98324819Y-41669998D02*
X98372438Y-41717617D01*
X98372438Y-41717617D02*
X98420057Y-41669998D01*
X98420057Y-41669998D02*
X98372438Y-41622379D01*
X98372438Y-41622379D02*
X98324819Y-41669998D01*
X98324819Y-41669998D02*
X98420057Y-41669998D01*
X98658152Y-41193808D02*
X99324819Y-41193808D01*
X98753390Y-41193808D02*
X98705771Y-41146189D01*
X98705771Y-41146189D02*
X98658152Y-41050951D01*
X98658152Y-41050951D02*
X98658152Y-40908094D01*
X98658152Y-40908094D02*
X98705771Y-40812856D01*
X98705771Y-40812856D02*
X98801009Y-40765237D01*
X98801009Y-40765237D02*
X99324819Y-40765237D01*
X99277200Y-40336665D02*
X99324819Y-40241427D01*
X99324819Y-40241427D02*
X99324819Y-40050951D01*
X99324819Y-40050951D02*
X99277200Y-39955713D01*
X99277200Y-39955713D02*
X99181961Y-39908094D01*
X99181961Y-39908094D02*
X99134342Y-39908094D01*
X99134342Y-39908094D02*
X99039104Y-39955713D01*
X99039104Y-39955713D02*
X98991485Y-40050951D01*
X98991485Y-40050951D02*
X98991485Y-40193808D01*
X98991485Y-40193808D02*
X98943866Y-40289046D01*
X98943866Y-40289046D02*
X98848628Y-40336665D01*
X98848628Y-40336665D02*
X98801009Y-40336665D01*
X98801009Y-40336665D02*
X98705771Y-40289046D01*
X98705771Y-40289046D02*
X98658152Y-40193808D01*
X98658152Y-40193808D02*
X98658152Y-40050951D01*
X98658152Y-40050951D02*
X98705771Y-39955713D01*
X99324819Y-38955713D02*
X99324819Y-39527141D01*
X99324819Y-39241427D02*
X98324819Y-39241427D01*
X98324819Y-39241427D02*
X98467676Y-39336665D01*
X98467676Y-39336665D02*
X98562914Y-39431903D01*
X98562914Y-39431903D02*
X98610533Y-39527141D01*
X49954819Y-21081666D02*
X49478628Y-21414999D01*
X49954819Y-21653094D02*
X48954819Y-21653094D01*
X48954819Y-21653094D02*
X48954819Y-21272142D01*
X48954819Y-21272142D02*
X49002438Y-21176904D01*
X49002438Y-21176904D02*
X49050057Y-21129285D01*
X49050057Y-21129285D02*
X49145295Y-21081666D01*
X49145295Y-21081666D02*
X49288152Y-21081666D01*
X49288152Y-21081666D02*
X49383390Y-21129285D01*
X49383390Y-21129285D02*
X49431009Y-21176904D01*
X49431009Y-21176904D02*
X49478628Y-21272142D01*
X49478628Y-21272142D02*
X49478628Y-21653094D01*
X49288152Y-20224523D02*
X49954819Y-20224523D01*
X48907200Y-20462618D02*
X49621485Y-20700713D01*
X49621485Y-20700713D02*
X49621485Y-20081666D01*
X54028152Y-21700714D02*
X54694819Y-21700714D01*
X53647200Y-21938809D02*
X54361485Y-22176904D01*
X54361485Y-22176904D02*
X54361485Y-21557857D01*
X53694819Y-21272142D02*
X53694819Y-20605476D01*
X53694819Y-20605476D02*
X54694819Y-21034047D01*
X54694819Y-20224523D02*
X53694819Y-20224523D01*
X54694819Y-19653095D02*
X54123390Y-20081666D01*
X53694819Y-19653095D02*
X54266247Y-20224523D01*
X72402142Y-26534819D02*
X72068809Y-26058628D01*
X71830714Y-26534819D02*
X71830714Y-25534819D01*
X71830714Y-25534819D02*
X72211666Y-25534819D01*
X72211666Y-25534819D02*
X72306904Y-25582438D01*
X72306904Y-25582438D02*
X72354523Y-25630057D01*
X72354523Y-25630057D02*
X72402142Y-25725295D01*
X72402142Y-25725295D02*
X72402142Y-25868152D01*
X72402142Y-25868152D02*
X72354523Y-25963390D01*
X72354523Y-25963390D02*
X72306904Y-26011009D01*
X72306904Y-26011009D02*
X72211666Y-26058628D01*
X72211666Y-26058628D02*
X71830714Y-26058628D01*
X73354523Y-26534819D02*
X72783095Y-26534819D01*
X73068809Y-26534819D02*
X73068809Y-25534819D01*
X73068809Y-25534819D02*
X72973571Y-25677676D01*
X72973571Y-25677676D02*
X72878333Y-25772914D01*
X72878333Y-25772914D02*
X72783095Y-25820533D01*
X73735476Y-25630057D02*
X73783095Y-25582438D01*
X73783095Y-25582438D02*
X73878333Y-25534819D01*
X73878333Y-25534819D02*
X74116428Y-25534819D01*
X74116428Y-25534819D02*
X74211666Y-25582438D01*
X74211666Y-25582438D02*
X74259285Y-25630057D01*
X74259285Y-25630057D02*
X74306904Y-25725295D01*
X74306904Y-25725295D02*
X74306904Y-25820533D01*
X74306904Y-25820533D02*
X74259285Y-25963390D01*
X74259285Y-25963390D02*
X73687857Y-26534819D01*
X73687857Y-26534819D02*
X74306904Y-26534819D01*
X89054819Y-21621666D02*
X88578628Y-21954999D01*
X89054819Y-22193094D02*
X88054819Y-22193094D01*
X88054819Y-22193094D02*
X88054819Y-21812142D01*
X88054819Y-21812142D02*
X88102438Y-21716904D01*
X88102438Y-21716904D02*
X88150057Y-21669285D01*
X88150057Y-21669285D02*
X88245295Y-21621666D01*
X88245295Y-21621666D02*
X88388152Y-21621666D01*
X88388152Y-21621666D02*
X88483390Y-21669285D01*
X88483390Y-21669285D02*
X88531009Y-21716904D01*
X88531009Y-21716904D02*
X88578628Y-21812142D01*
X88578628Y-21812142D02*
X88578628Y-22193094D01*
X88483390Y-21050237D02*
X88435771Y-21145475D01*
X88435771Y-21145475D02*
X88388152Y-21193094D01*
X88388152Y-21193094D02*
X88292914Y-21240713D01*
X88292914Y-21240713D02*
X88245295Y-21240713D01*
X88245295Y-21240713D02*
X88150057Y-21193094D01*
X88150057Y-21193094D02*
X88102438Y-21145475D01*
X88102438Y-21145475D02*
X88054819Y-21050237D01*
X88054819Y-21050237D02*
X88054819Y-20859761D01*
X88054819Y-20859761D02*
X88102438Y-20764523D01*
X88102438Y-20764523D02*
X88150057Y-20716904D01*
X88150057Y-20716904D02*
X88245295Y-20669285D01*
X88245295Y-20669285D02*
X88292914Y-20669285D01*
X88292914Y-20669285D02*
X88388152Y-20716904D01*
X88388152Y-20716904D02*
X88435771Y-20764523D01*
X88435771Y-20764523D02*
X88483390Y-20859761D01*
X88483390Y-20859761D02*
X88483390Y-21050237D01*
X88483390Y-21050237D02*
X88531009Y-21145475D01*
X88531009Y-21145475D02*
X88578628Y-21193094D01*
X88578628Y-21193094D02*
X88673866Y-21240713D01*
X88673866Y-21240713D02*
X88864342Y-21240713D01*
X88864342Y-21240713D02*
X88959580Y-21193094D01*
X88959580Y-21193094D02*
X89007200Y-21145475D01*
X89007200Y-21145475D02*
X89054819Y-21050237D01*
X89054819Y-21050237D02*
X89054819Y-20859761D01*
X89054819Y-20859761D02*
X89007200Y-20764523D01*
X89007200Y-20764523D02*
X88959580Y-20716904D01*
X88959580Y-20716904D02*
X88864342Y-20669285D01*
X88864342Y-20669285D02*
X88673866Y-20669285D01*
X88673866Y-20669285D02*
X88578628Y-20716904D01*
X88578628Y-20716904D02*
X88531009Y-20764523D01*
X88531009Y-20764523D02*
X88483390Y-20859761D01*
X93128152Y-22240714D02*
X93794819Y-22240714D01*
X92747200Y-22478809D02*
X93461485Y-22716904D01*
X93461485Y-22716904D02*
X93461485Y-22097857D01*
X92794819Y-21812142D02*
X92794819Y-21145476D01*
X92794819Y-21145476D02*
X93794819Y-21574047D01*
X93794819Y-20764523D02*
X92794819Y-20764523D01*
X93794819Y-20193095D02*
X93223390Y-20621666D01*
X92794819Y-20193095D02*
X93366247Y-20764523D01*
X22428333Y-32414819D02*
X22095000Y-31938628D01*
X21856905Y-32414819D02*
X21856905Y-31414819D01*
X21856905Y-31414819D02*
X22237857Y-31414819D01*
X22237857Y-31414819D02*
X22333095Y-31462438D01*
X22333095Y-31462438D02*
X22380714Y-31510057D01*
X22380714Y-31510057D02*
X22428333Y-31605295D01*
X22428333Y-31605295D02*
X22428333Y-31748152D01*
X22428333Y-31748152D02*
X22380714Y-31843390D01*
X22380714Y-31843390D02*
X22333095Y-31891009D01*
X22333095Y-31891009D02*
X22237857Y-31938628D01*
X22237857Y-31938628D02*
X21856905Y-31938628D01*
X23380714Y-32414819D02*
X22809286Y-32414819D01*
X23095000Y-32414819D02*
X23095000Y-31414819D01*
X23095000Y-31414819D02*
X22999762Y-31557676D01*
X22999762Y-31557676D02*
X22904524Y-31652914D01*
X22904524Y-31652914D02*
X22809286Y-31700533D01*
X30343333Y-40234819D02*
X30010000Y-39758628D01*
X29771905Y-40234819D02*
X29771905Y-39234819D01*
X29771905Y-39234819D02*
X30152857Y-39234819D01*
X30152857Y-39234819D02*
X30248095Y-39282438D01*
X30248095Y-39282438D02*
X30295714Y-39330057D01*
X30295714Y-39330057D02*
X30343333Y-39425295D01*
X30343333Y-39425295D02*
X30343333Y-39568152D01*
X30343333Y-39568152D02*
X30295714Y-39663390D01*
X30295714Y-39663390D02*
X30248095Y-39711009D01*
X30248095Y-39711009D02*
X30152857Y-39758628D01*
X30152857Y-39758628D02*
X29771905Y-39758628D01*
X30724286Y-39330057D02*
X30771905Y-39282438D01*
X30771905Y-39282438D02*
X30867143Y-39234819D01*
X30867143Y-39234819D02*
X31105238Y-39234819D01*
X31105238Y-39234819D02*
X31200476Y-39282438D01*
X31200476Y-39282438D02*
X31248095Y-39330057D01*
X31248095Y-39330057D02*
X31295714Y-39425295D01*
X31295714Y-39425295D02*
X31295714Y-39520533D01*
X31295714Y-39520533D02*
X31248095Y-39663390D01*
X31248095Y-39663390D02*
X30676667Y-40234819D01*
X30676667Y-40234819D02*
X31295714Y-40234819D01*
X80050057Y-64271428D02*
X80002438Y-64366666D01*
X80002438Y-64366666D02*
X79907200Y-64461904D01*
X79907200Y-64461904D02*
X79764342Y-64604761D01*
X79764342Y-64604761D02*
X79716723Y-64699999D01*
X79716723Y-64699999D02*
X79716723Y-64795237D01*
X79954819Y-64747618D02*
X79907200Y-64842856D01*
X79907200Y-64842856D02*
X79811961Y-64938094D01*
X79811961Y-64938094D02*
X79621485Y-64985713D01*
X79621485Y-64985713D02*
X79288152Y-64985713D01*
X79288152Y-64985713D02*
X79097676Y-64938094D01*
X79097676Y-64938094D02*
X79002438Y-64842856D01*
X79002438Y-64842856D02*
X78954819Y-64747618D01*
X78954819Y-64747618D02*
X78954819Y-64557142D01*
X78954819Y-64557142D02*
X79002438Y-64461904D01*
X79002438Y-64461904D02*
X79097676Y-64366666D01*
X79097676Y-64366666D02*
X79288152Y-64319047D01*
X79288152Y-64319047D02*
X79621485Y-64319047D01*
X79621485Y-64319047D02*
X79811961Y-64366666D01*
X79811961Y-64366666D02*
X79907200Y-64461904D01*
X79907200Y-64461904D02*
X79954819Y-64557142D01*
X79954819Y-64557142D02*
X79954819Y-64747618D01*
X79954819Y-63366666D02*
X79954819Y-63938094D01*
X79954819Y-63652380D02*
X78954819Y-63652380D01*
X78954819Y-63652380D02*
X79097676Y-63747618D01*
X79097676Y-63747618D02*
X79192914Y-63842856D01*
X79192914Y-63842856D02*
X79240533Y-63938094D01*
X79383390Y-62795237D02*
X79335771Y-62890475D01*
X79335771Y-62890475D02*
X79288152Y-62938094D01*
X79288152Y-62938094D02*
X79192914Y-62985713D01*
X79192914Y-62985713D02*
X79145295Y-62985713D01*
X79145295Y-62985713D02*
X79050057Y-62938094D01*
X79050057Y-62938094D02*
X79002438Y-62890475D01*
X79002438Y-62890475D02*
X78954819Y-62795237D01*
X78954819Y-62795237D02*
X78954819Y-62604761D01*
X78954819Y-62604761D02*
X79002438Y-62509523D01*
X79002438Y-62509523D02*
X79050057Y-62461904D01*
X79050057Y-62461904D02*
X79145295Y-62414285D01*
X79145295Y-62414285D02*
X79192914Y-62414285D01*
X79192914Y-62414285D02*
X79288152Y-62461904D01*
X79288152Y-62461904D02*
X79335771Y-62509523D01*
X79335771Y-62509523D02*
X79383390Y-62604761D01*
X79383390Y-62604761D02*
X79383390Y-62795237D01*
X79383390Y-62795237D02*
X79431009Y-62890475D01*
X79431009Y-62890475D02*
X79478628Y-62938094D01*
X79478628Y-62938094D02*
X79573866Y-62985713D01*
X79573866Y-62985713D02*
X79764342Y-62985713D01*
X79764342Y-62985713D02*
X79859580Y-62938094D01*
X79859580Y-62938094D02*
X79907200Y-62890475D01*
X79907200Y-62890475D02*
X79954819Y-62795237D01*
X79954819Y-62795237D02*
X79954819Y-62604761D01*
X79954819Y-62604761D02*
X79907200Y-62509523D01*
X79907200Y-62509523D02*
X79859580Y-62461904D01*
X79859580Y-62461904D02*
X79764342Y-62414285D01*
X79764342Y-62414285D02*
X79573866Y-62414285D01*
X79573866Y-62414285D02*
X79478628Y-62461904D01*
X79478628Y-62461904D02*
X79431009Y-62509523D01*
X79431009Y-62509523D02*
X79383390Y-62604761D01*
X25980057Y-22595238D02*
X25932438Y-22690476D01*
X25932438Y-22690476D02*
X25837200Y-22785714D01*
X25837200Y-22785714D02*
X25694342Y-22928571D01*
X25694342Y-22928571D02*
X25646723Y-23023809D01*
X25646723Y-23023809D02*
X25646723Y-23119047D01*
X25884819Y-23071428D02*
X25837200Y-23166666D01*
X25837200Y-23166666D02*
X25741961Y-23261904D01*
X25741961Y-23261904D02*
X25551485Y-23309523D01*
X25551485Y-23309523D02*
X25218152Y-23309523D01*
X25218152Y-23309523D02*
X25027676Y-23261904D01*
X25027676Y-23261904D02*
X24932438Y-23166666D01*
X24932438Y-23166666D02*
X24884819Y-23071428D01*
X24884819Y-23071428D02*
X24884819Y-22880952D01*
X24884819Y-22880952D02*
X24932438Y-22785714D01*
X24932438Y-22785714D02*
X25027676Y-22690476D01*
X25027676Y-22690476D02*
X25218152Y-22642857D01*
X25218152Y-22642857D02*
X25551485Y-22642857D01*
X25551485Y-22642857D02*
X25741961Y-22690476D01*
X25741961Y-22690476D02*
X25837200Y-22785714D01*
X25837200Y-22785714D02*
X25884819Y-22880952D01*
X25884819Y-22880952D02*
X25884819Y-23071428D01*
X24980057Y-22261904D02*
X24932438Y-22214285D01*
X24932438Y-22214285D02*
X24884819Y-22119047D01*
X24884819Y-22119047D02*
X24884819Y-21880952D01*
X24884819Y-21880952D02*
X24932438Y-21785714D01*
X24932438Y-21785714D02*
X24980057Y-21738095D01*
X24980057Y-21738095D02*
X25075295Y-21690476D01*
X25075295Y-21690476D02*
X25170533Y-21690476D01*
X25170533Y-21690476D02*
X25313390Y-21738095D01*
X25313390Y-21738095D02*
X25884819Y-22309523D01*
X25884819Y-22309523D02*
X25884819Y-21690476D01*
X30994819Y-50262857D02*
X30518628Y-50596190D01*
X30994819Y-50834285D02*
X29994819Y-50834285D01*
X29994819Y-50834285D02*
X29994819Y-50453333D01*
X29994819Y-50453333D02*
X30042438Y-50358095D01*
X30042438Y-50358095D02*
X30090057Y-50310476D01*
X30090057Y-50310476D02*
X30185295Y-50262857D01*
X30185295Y-50262857D02*
X30328152Y-50262857D01*
X30328152Y-50262857D02*
X30423390Y-50310476D01*
X30423390Y-50310476D02*
X30471009Y-50358095D01*
X30471009Y-50358095D02*
X30518628Y-50453333D01*
X30518628Y-50453333D02*
X30518628Y-50834285D01*
X30090057Y-49881904D02*
X30042438Y-49834285D01*
X30042438Y-49834285D02*
X29994819Y-49739047D01*
X29994819Y-49739047D02*
X29994819Y-49500952D01*
X29994819Y-49500952D02*
X30042438Y-49405714D01*
X30042438Y-49405714D02*
X30090057Y-49358095D01*
X30090057Y-49358095D02*
X30185295Y-49310476D01*
X30185295Y-49310476D02*
X30280533Y-49310476D01*
X30280533Y-49310476D02*
X30423390Y-49358095D01*
X30423390Y-49358095D02*
X30994819Y-49929523D01*
X30994819Y-49929523D02*
X30994819Y-49310476D01*
X29994819Y-48691428D02*
X29994819Y-48596190D01*
X29994819Y-48596190D02*
X30042438Y-48500952D01*
X30042438Y-48500952D02*
X30090057Y-48453333D01*
X30090057Y-48453333D02*
X30185295Y-48405714D01*
X30185295Y-48405714D02*
X30375771Y-48358095D01*
X30375771Y-48358095D02*
X30613866Y-48358095D01*
X30613866Y-48358095D02*
X30804342Y-48405714D01*
X30804342Y-48405714D02*
X30899580Y-48453333D01*
X30899580Y-48453333D02*
X30947200Y-48500952D01*
X30947200Y-48500952D02*
X30994819Y-48596190D01*
X30994819Y-48596190D02*
X30994819Y-48691428D01*
X30994819Y-48691428D02*
X30947200Y-48786666D01*
X30947200Y-48786666D02*
X30899580Y-48834285D01*
X30899580Y-48834285D02*
X30804342Y-48881904D01*
X30804342Y-48881904D02*
X30613866Y-48929523D01*
X30613866Y-48929523D02*
X30375771Y-48929523D01*
X30375771Y-48929523D02*
X30185295Y-48881904D01*
X30185295Y-48881904D02*
X30090057Y-48834285D01*
X30090057Y-48834285D02*
X30042438Y-48786666D01*
X30042438Y-48786666D02*
X29994819Y-48691428D01*
X25980057Y-34525238D02*
X25932438Y-34620476D01*
X25932438Y-34620476D02*
X25837200Y-34715714D01*
X25837200Y-34715714D02*
X25694342Y-34858571D01*
X25694342Y-34858571D02*
X25646723Y-34953809D01*
X25646723Y-34953809D02*
X25646723Y-35049047D01*
X25884819Y-35001428D02*
X25837200Y-35096666D01*
X25837200Y-35096666D02*
X25741961Y-35191904D01*
X25741961Y-35191904D02*
X25551485Y-35239523D01*
X25551485Y-35239523D02*
X25218152Y-35239523D01*
X25218152Y-35239523D02*
X25027676Y-35191904D01*
X25027676Y-35191904D02*
X24932438Y-35096666D01*
X24932438Y-35096666D02*
X24884819Y-35001428D01*
X24884819Y-35001428D02*
X24884819Y-34810952D01*
X24884819Y-34810952D02*
X24932438Y-34715714D01*
X24932438Y-34715714D02*
X25027676Y-34620476D01*
X25027676Y-34620476D02*
X25218152Y-34572857D01*
X25218152Y-34572857D02*
X25551485Y-34572857D01*
X25551485Y-34572857D02*
X25741961Y-34620476D01*
X25741961Y-34620476D02*
X25837200Y-34715714D01*
X25837200Y-34715714D02*
X25884819Y-34810952D01*
X25884819Y-34810952D02*
X25884819Y-35001428D01*
X25884819Y-33620476D02*
X25884819Y-34191904D01*
X25884819Y-33906190D02*
X24884819Y-33906190D01*
X24884819Y-33906190D02*
X25027676Y-34001428D01*
X25027676Y-34001428D02*
X25122914Y-34096666D01*
X25122914Y-34096666D02*
X25170533Y-34191904D01*
X93816666Y-63654819D02*
X93816666Y-64369104D01*
X93816666Y-64369104D02*
X93769047Y-64511961D01*
X93769047Y-64511961D02*
X93673809Y-64607200D01*
X93673809Y-64607200D02*
X93530952Y-64654819D01*
X93530952Y-64654819D02*
X93435714Y-64654819D01*
X94292857Y-64654819D02*
X94292857Y-63654819D01*
X94292857Y-63654819D02*
X94673809Y-63654819D01*
X94673809Y-63654819D02*
X94769047Y-63702438D01*
X94769047Y-63702438D02*
X94816666Y-63750057D01*
X94816666Y-63750057D02*
X94864285Y-63845295D01*
X94864285Y-63845295D02*
X94864285Y-63988152D01*
X94864285Y-63988152D02*
X94816666Y-64083390D01*
X94816666Y-64083390D02*
X94769047Y-64131009D01*
X94769047Y-64131009D02*
X94673809Y-64178628D01*
X94673809Y-64178628D02*
X94292857Y-64178628D01*
X95197619Y-63654819D02*
X95816666Y-63654819D01*
X95816666Y-63654819D02*
X95483333Y-64035771D01*
X95483333Y-64035771D02*
X95626190Y-64035771D01*
X95626190Y-64035771D02*
X95721428Y-64083390D01*
X95721428Y-64083390D02*
X95769047Y-64131009D01*
X95769047Y-64131009D02*
X95816666Y-64226247D01*
X95816666Y-64226247D02*
X95816666Y-64464342D01*
X95816666Y-64464342D02*
X95769047Y-64559580D01*
X95769047Y-64559580D02*
X95721428Y-64607200D01*
X95721428Y-64607200D02*
X95626190Y-64654819D01*
X95626190Y-64654819D02*
X95340476Y-64654819D01*
X95340476Y-64654819D02*
X95245238Y-64607200D01*
X95245238Y-64607200D02*
X95197619Y-64559580D01*
X59918333Y-32914819D02*
X59585000Y-32438628D01*
X59346905Y-32914819D02*
X59346905Y-31914819D01*
X59346905Y-31914819D02*
X59727857Y-31914819D01*
X59727857Y-31914819D02*
X59823095Y-31962438D01*
X59823095Y-31962438D02*
X59870714Y-32010057D01*
X59870714Y-32010057D02*
X59918333Y-32105295D01*
X59918333Y-32105295D02*
X59918333Y-32248152D01*
X59918333Y-32248152D02*
X59870714Y-32343390D01*
X59870714Y-32343390D02*
X59823095Y-32391009D01*
X59823095Y-32391009D02*
X59727857Y-32438628D01*
X59727857Y-32438628D02*
X59346905Y-32438628D01*
X60394524Y-32914819D02*
X60585000Y-32914819D01*
X60585000Y-32914819D02*
X60680238Y-32867200D01*
X60680238Y-32867200D02*
X60727857Y-32819580D01*
X60727857Y-32819580D02*
X60823095Y-32676723D01*
X60823095Y-32676723D02*
X60870714Y-32486247D01*
X60870714Y-32486247D02*
X60870714Y-32105295D01*
X60870714Y-32105295D02*
X60823095Y-32010057D01*
X60823095Y-32010057D02*
X60775476Y-31962438D01*
X60775476Y-31962438D02*
X60680238Y-31914819D01*
X60680238Y-31914819D02*
X60489762Y-31914819D01*
X60489762Y-31914819D02*
X60394524Y-31962438D01*
X60394524Y-31962438D02*
X60346905Y-32010057D01*
X60346905Y-32010057D02*
X60299286Y-32105295D01*
X60299286Y-32105295D02*
X60299286Y-32343390D01*
X60299286Y-32343390D02*
X60346905Y-32438628D01*
X60346905Y-32438628D02*
X60394524Y-32486247D01*
X60394524Y-32486247D02*
X60489762Y-32533866D01*
X60489762Y-32533866D02*
X60680238Y-32533866D01*
X60680238Y-32533866D02*
X60775476Y-32486247D01*
X60775476Y-32486247D02*
X60823095Y-32438628D01*
X60823095Y-32438628D02*
X60870714Y-32343390D01*
X76572142Y-54804819D02*
X76238809Y-54328628D01*
X76000714Y-54804819D02*
X76000714Y-53804819D01*
X76000714Y-53804819D02*
X76381666Y-53804819D01*
X76381666Y-53804819D02*
X76476904Y-53852438D01*
X76476904Y-53852438D02*
X76524523Y-53900057D01*
X76524523Y-53900057D02*
X76572142Y-53995295D01*
X76572142Y-53995295D02*
X76572142Y-54138152D01*
X76572142Y-54138152D02*
X76524523Y-54233390D01*
X76524523Y-54233390D02*
X76476904Y-54281009D01*
X76476904Y-54281009D02*
X76381666Y-54328628D01*
X76381666Y-54328628D02*
X76000714Y-54328628D01*
X76953095Y-53900057D02*
X77000714Y-53852438D01*
X77000714Y-53852438D02*
X77095952Y-53804819D01*
X77095952Y-53804819D02*
X77334047Y-53804819D01*
X77334047Y-53804819D02*
X77429285Y-53852438D01*
X77429285Y-53852438D02*
X77476904Y-53900057D01*
X77476904Y-53900057D02*
X77524523Y-53995295D01*
X77524523Y-53995295D02*
X77524523Y-54090533D01*
X77524523Y-54090533D02*
X77476904Y-54233390D01*
X77476904Y-54233390D02*
X76905476Y-54804819D01*
X76905476Y-54804819D02*
X77524523Y-54804819D01*
X78429285Y-53804819D02*
X77953095Y-53804819D01*
X77953095Y-53804819D02*
X77905476Y-54281009D01*
X77905476Y-54281009D02*
X77953095Y-54233390D01*
X77953095Y-54233390D02*
X78048333Y-54185771D01*
X78048333Y-54185771D02*
X78286428Y-54185771D01*
X78286428Y-54185771D02*
X78381666Y-54233390D01*
X78381666Y-54233390D02*
X78429285Y-54281009D01*
X78429285Y-54281009D02*
X78476904Y-54376247D01*
X78476904Y-54376247D02*
X78476904Y-54614342D01*
X78476904Y-54614342D02*
X78429285Y-54709580D01*
X78429285Y-54709580D02*
X78381666Y-54757200D01*
X78381666Y-54757200D02*
X78286428Y-54804819D01*
X78286428Y-54804819D02*
X78048333Y-54804819D01*
X78048333Y-54804819D02*
X77953095Y-54757200D01*
X77953095Y-54757200D02*
X77905476Y-54709580D01*
X67738095Y-40006819D02*
X68309523Y-40006819D01*
X68023809Y-41006819D02*
X68023809Y-40006819D01*
X68642857Y-41006819D02*
X68642857Y-40006819D01*
X68642857Y-40006819D02*
X69023809Y-40006819D01*
X69023809Y-40006819D02*
X69119047Y-40054438D01*
X69119047Y-40054438D02*
X69166666Y-40102057D01*
X69166666Y-40102057D02*
X69214285Y-40197295D01*
X69214285Y-40197295D02*
X69214285Y-40340152D01*
X69214285Y-40340152D02*
X69166666Y-40435390D01*
X69166666Y-40435390D02*
X69119047Y-40483009D01*
X69119047Y-40483009D02*
X69023809Y-40530628D01*
X69023809Y-40530628D02*
X68642857Y-40530628D01*
X69595238Y-40102057D02*
X69642857Y-40054438D01*
X69642857Y-40054438D02*
X69738095Y-40006819D01*
X69738095Y-40006819D02*
X69976190Y-40006819D01*
X69976190Y-40006819D02*
X70071428Y-40054438D01*
X70071428Y-40054438D02*
X70119047Y-40102057D01*
X70119047Y-40102057D02*
X70166666Y-40197295D01*
X70166666Y-40197295D02*
X70166666Y-40292533D01*
X70166666Y-40292533D02*
X70119047Y-40435390D01*
X70119047Y-40435390D02*
X69547619Y-41006819D01*
X69547619Y-41006819D02*
X70166666Y-41006819D01*
X89280057Y-60161428D02*
X89232438Y-60256666D01*
X89232438Y-60256666D02*
X89137200Y-60351904D01*
X89137200Y-60351904D02*
X88994342Y-60494761D01*
X88994342Y-60494761D02*
X88946723Y-60589999D01*
X88946723Y-60589999D02*
X88946723Y-60685237D01*
X89184819Y-60637618D02*
X89137200Y-60732856D01*
X89137200Y-60732856D02*
X89041961Y-60828094D01*
X89041961Y-60828094D02*
X88851485Y-60875713D01*
X88851485Y-60875713D02*
X88518152Y-60875713D01*
X88518152Y-60875713D02*
X88327676Y-60828094D01*
X88327676Y-60828094D02*
X88232438Y-60732856D01*
X88232438Y-60732856D02*
X88184819Y-60637618D01*
X88184819Y-60637618D02*
X88184819Y-60447142D01*
X88184819Y-60447142D02*
X88232438Y-60351904D01*
X88232438Y-60351904D02*
X88327676Y-60256666D01*
X88327676Y-60256666D02*
X88518152Y-60209047D01*
X88518152Y-60209047D02*
X88851485Y-60209047D01*
X88851485Y-60209047D02*
X89041961Y-60256666D01*
X89041961Y-60256666D02*
X89137200Y-60351904D01*
X89137200Y-60351904D02*
X89184819Y-60447142D01*
X89184819Y-60447142D02*
X89184819Y-60637618D01*
X89184819Y-59256666D02*
X89184819Y-59828094D01*
X89184819Y-59542380D02*
X88184819Y-59542380D01*
X88184819Y-59542380D02*
X88327676Y-59637618D01*
X88327676Y-59637618D02*
X88422914Y-59732856D01*
X88422914Y-59732856D02*
X88470533Y-59828094D01*
X89184819Y-58780475D02*
X89184819Y-58589999D01*
X89184819Y-58589999D02*
X89137200Y-58494761D01*
X89137200Y-58494761D02*
X89089580Y-58447142D01*
X89089580Y-58447142D02*
X88946723Y-58351904D01*
X88946723Y-58351904D02*
X88756247Y-58304285D01*
X88756247Y-58304285D02*
X88375295Y-58304285D01*
X88375295Y-58304285D02*
X88280057Y-58351904D01*
X88280057Y-58351904D02*
X88232438Y-58399523D01*
X88232438Y-58399523D02*
X88184819Y-58494761D01*
X88184819Y-58494761D02*
X88184819Y-58685237D01*
X88184819Y-58685237D02*
X88232438Y-58780475D01*
X88232438Y-58780475D02*
X88280057Y-58828094D01*
X88280057Y-58828094D02*
X88375295Y-58875713D01*
X88375295Y-58875713D02*
X88613390Y-58875713D01*
X88613390Y-58875713D02*
X88708628Y-58828094D01*
X88708628Y-58828094D02*
X88756247Y-58780475D01*
X88756247Y-58780475D02*
X88803866Y-58685237D01*
X88803866Y-58685237D02*
X88803866Y-58494761D01*
X88803866Y-58494761D02*
X88756247Y-58399523D01*
X88756247Y-58399523D02*
X88708628Y-58351904D01*
X88708628Y-58351904D02*
X88613390Y-58304285D01*
X34650057Y-42345238D02*
X34602438Y-42440476D01*
X34602438Y-42440476D02*
X34507200Y-42535714D01*
X34507200Y-42535714D02*
X34364342Y-42678571D01*
X34364342Y-42678571D02*
X34316723Y-42773809D01*
X34316723Y-42773809D02*
X34316723Y-42869047D01*
X34554819Y-42821428D02*
X34507200Y-42916666D01*
X34507200Y-42916666D02*
X34411961Y-43011904D01*
X34411961Y-43011904D02*
X34221485Y-43059523D01*
X34221485Y-43059523D02*
X33888152Y-43059523D01*
X33888152Y-43059523D02*
X33697676Y-43011904D01*
X33697676Y-43011904D02*
X33602438Y-42916666D01*
X33602438Y-42916666D02*
X33554819Y-42821428D01*
X33554819Y-42821428D02*
X33554819Y-42630952D01*
X33554819Y-42630952D02*
X33602438Y-42535714D01*
X33602438Y-42535714D02*
X33697676Y-42440476D01*
X33697676Y-42440476D02*
X33888152Y-42392857D01*
X33888152Y-42392857D02*
X34221485Y-42392857D01*
X34221485Y-42392857D02*
X34411961Y-42440476D01*
X34411961Y-42440476D02*
X34507200Y-42535714D01*
X34507200Y-42535714D02*
X34554819Y-42630952D01*
X34554819Y-42630952D02*
X34554819Y-42821428D01*
X33888152Y-41535714D02*
X34554819Y-41535714D01*
X33507200Y-41773809D02*
X34221485Y-42011904D01*
X34221485Y-42011904D02*
X34221485Y-41392857D01*
X82264819Y-51012857D02*
X81788628Y-51346190D01*
X82264819Y-51584285D02*
X81264819Y-51584285D01*
X81264819Y-51584285D02*
X81264819Y-51203333D01*
X81264819Y-51203333D02*
X81312438Y-51108095D01*
X81312438Y-51108095D02*
X81360057Y-51060476D01*
X81360057Y-51060476D02*
X81455295Y-51012857D01*
X81455295Y-51012857D02*
X81598152Y-51012857D01*
X81598152Y-51012857D02*
X81693390Y-51060476D01*
X81693390Y-51060476D02*
X81741009Y-51108095D01*
X81741009Y-51108095D02*
X81788628Y-51203333D01*
X81788628Y-51203333D02*
X81788628Y-51584285D01*
X81360057Y-50631904D02*
X81312438Y-50584285D01*
X81312438Y-50584285D02*
X81264819Y-50489047D01*
X81264819Y-50489047D02*
X81264819Y-50250952D01*
X81264819Y-50250952D02*
X81312438Y-50155714D01*
X81312438Y-50155714D02*
X81360057Y-50108095D01*
X81360057Y-50108095D02*
X81455295Y-50060476D01*
X81455295Y-50060476D02*
X81550533Y-50060476D01*
X81550533Y-50060476D02*
X81693390Y-50108095D01*
X81693390Y-50108095D02*
X82264819Y-50679523D01*
X82264819Y-50679523D02*
X82264819Y-50060476D01*
X81264819Y-49727142D02*
X81264819Y-49060476D01*
X81264819Y-49060476D02*
X82264819Y-49489047D01*
X36950057Y-56631428D02*
X36902438Y-56726666D01*
X36902438Y-56726666D02*
X36807200Y-56821904D01*
X36807200Y-56821904D02*
X36664342Y-56964761D01*
X36664342Y-56964761D02*
X36616723Y-57059999D01*
X36616723Y-57059999D02*
X36616723Y-57155237D01*
X36854819Y-57107618D02*
X36807200Y-57202856D01*
X36807200Y-57202856D02*
X36711961Y-57298094D01*
X36711961Y-57298094D02*
X36521485Y-57345713D01*
X36521485Y-57345713D02*
X36188152Y-57345713D01*
X36188152Y-57345713D02*
X35997676Y-57298094D01*
X35997676Y-57298094D02*
X35902438Y-57202856D01*
X35902438Y-57202856D02*
X35854819Y-57107618D01*
X35854819Y-57107618D02*
X35854819Y-56917142D01*
X35854819Y-56917142D02*
X35902438Y-56821904D01*
X35902438Y-56821904D02*
X35997676Y-56726666D01*
X35997676Y-56726666D02*
X36188152Y-56679047D01*
X36188152Y-56679047D02*
X36521485Y-56679047D01*
X36521485Y-56679047D02*
X36711961Y-56726666D01*
X36711961Y-56726666D02*
X36807200Y-56821904D01*
X36807200Y-56821904D02*
X36854819Y-56917142D01*
X36854819Y-56917142D02*
X36854819Y-57107618D01*
X36854819Y-55726666D02*
X36854819Y-56298094D01*
X36854819Y-56012380D02*
X35854819Y-56012380D01*
X35854819Y-56012380D02*
X35997676Y-56107618D01*
X35997676Y-56107618D02*
X36092914Y-56202856D01*
X36092914Y-56202856D02*
X36140533Y-56298094D01*
X35854819Y-55393332D02*
X35854819Y-54774285D01*
X35854819Y-54774285D02*
X36235771Y-55107618D01*
X36235771Y-55107618D02*
X36235771Y-54964761D01*
X36235771Y-54964761D02*
X36283390Y-54869523D01*
X36283390Y-54869523D02*
X36331009Y-54821904D01*
X36331009Y-54821904D02*
X36426247Y-54774285D01*
X36426247Y-54774285D02*
X36664342Y-54774285D01*
X36664342Y-54774285D02*
X36759580Y-54821904D01*
X36759580Y-54821904D02*
X36807200Y-54869523D01*
X36807200Y-54869523D02*
X36854819Y-54964761D01*
X36854819Y-54964761D02*
X36854819Y-55250475D01*
X36854819Y-55250475D02*
X36807200Y-55345713D01*
X36807200Y-55345713D02*
X36759580Y-55393332D01*
X47750057Y-27565238D02*
X47702438Y-27660476D01*
X47702438Y-27660476D02*
X47607200Y-27755714D01*
X47607200Y-27755714D02*
X47464342Y-27898571D01*
X47464342Y-27898571D02*
X47416723Y-27993809D01*
X47416723Y-27993809D02*
X47416723Y-28089047D01*
X47654819Y-28041428D02*
X47607200Y-28136666D01*
X47607200Y-28136666D02*
X47511961Y-28231904D01*
X47511961Y-28231904D02*
X47321485Y-28279523D01*
X47321485Y-28279523D02*
X46988152Y-28279523D01*
X46988152Y-28279523D02*
X46797676Y-28231904D01*
X46797676Y-28231904D02*
X46702438Y-28136666D01*
X46702438Y-28136666D02*
X46654819Y-28041428D01*
X46654819Y-28041428D02*
X46654819Y-27850952D01*
X46654819Y-27850952D02*
X46702438Y-27755714D01*
X46702438Y-27755714D02*
X46797676Y-27660476D01*
X46797676Y-27660476D02*
X46988152Y-27612857D01*
X46988152Y-27612857D02*
X47321485Y-27612857D01*
X47321485Y-27612857D02*
X47511961Y-27660476D01*
X47511961Y-27660476D02*
X47607200Y-27755714D01*
X47607200Y-27755714D02*
X47654819Y-27850952D01*
X47654819Y-27850952D02*
X47654819Y-28041428D01*
X46654819Y-26708095D02*
X46654819Y-27184285D01*
X46654819Y-27184285D02*
X47131009Y-27231904D01*
X47131009Y-27231904D02*
X47083390Y-27184285D01*
X47083390Y-27184285D02*
X47035771Y-27089047D01*
X47035771Y-27089047D02*
X47035771Y-26850952D01*
X47035771Y-26850952D02*
X47083390Y-26755714D01*
X47083390Y-26755714D02*
X47131009Y-26708095D01*
X47131009Y-26708095D02*
X47226247Y-26660476D01*
X47226247Y-26660476D02*
X47464342Y-26660476D01*
X47464342Y-26660476D02*
X47559580Y-26708095D01*
X47559580Y-26708095D02*
X47607200Y-26755714D01*
X47607200Y-26755714D02*
X47654819Y-26850952D01*
X47654819Y-26850952D02*
X47654819Y-27089047D01*
X47654819Y-27089047D02*
X47607200Y-27184285D01*
X47607200Y-27184285D02*
X47559580Y-27231904D01*
X40304819Y-22087857D02*
X39828628Y-22421190D01*
X40304819Y-22659285D02*
X39304819Y-22659285D01*
X39304819Y-22659285D02*
X39304819Y-22278333D01*
X39304819Y-22278333D02*
X39352438Y-22183095D01*
X39352438Y-22183095D02*
X39400057Y-22135476D01*
X39400057Y-22135476D02*
X39495295Y-22087857D01*
X39495295Y-22087857D02*
X39638152Y-22087857D01*
X39638152Y-22087857D02*
X39733390Y-22135476D01*
X39733390Y-22135476D02*
X39781009Y-22183095D01*
X39781009Y-22183095D02*
X39828628Y-22278333D01*
X39828628Y-22278333D02*
X39828628Y-22659285D01*
X40304819Y-21135476D02*
X40304819Y-21706904D01*
X40304819Y-21421190D02*
X39304819Y-21421190D01*
X39304819Y-21421190D02*
X39447676Y-21516428D01*
X39447676Y-21516428D02*
X39542914Y-21611666D01*
X39542914Y-21611666D02*
X39590533Y-21706904D01*
X39304819Y-20802142D02*
X39304819Y-20135476D01*
X39304819Y-20135476D02*
X40304819Y-20564047D01*
X44738095Y-46006819D02*
X45309523Y-46006819D01*
X45023809Y-47006819D02*
X45023809Y-46006819D01*
X45642857Y-47006819D02*
X45642857Y-46006819D01*
X45642857Y-46006819D02*
X46023809Y-46006819D01*
X46023809Y-46006819D02*
X46119047Y-46054438D01*
X46119047Y-46054438D02*
X46166666Y-46102057D01*
X46166666Y-46102057D02*
X46214285Y-46197295D01*
X46214285Y-46197295D02*
X46214285Y-46340152D01*
X46214285Y-46340152D02*
X46166666Y-46435390D01*
X46166666Y-46435390D02*
X46119047Y-46483009D01*
X46119047Y-46483009D02*
X46023809Y-46530628D01*
X46023809Y-46530628D02*
X45642857Y-46530628D01*
X47071428Y-46340152D02*
X47071428Y-47006819D01*
X46833333Y-45959200D02*
X46595238Y-46673485D01*
X46595238Y-46673485D02*
X47214285Y-46673485D01*
X28530057Y-56471428D02*
X28482438Y-56566666D01*
X28482438Y-56566666D02*
X28387200Y-56661904D01*
X28387200Y-56661904D02*
X28244342Y-56804761D01*
X28244342Y-56804761D02*
X28196723Y-56899999D01*
X28196723Y-56899999D02*
X28196723Y-56995237D01*
X28434819Y-56947618D02*
X28387200Y-57042856D01*
X28387200Y-57042856D02*
X28291961Y-57138094D01*
X28291961Y-57138094D02*
X28101485Y-57185713D01*
X28101485Y-57185713D02*
X27768152Y-57185713D01*
X27768152Y-57185713D02*
X27577676Y-57138094D01*
X27577676Y-57138094D02*
X27482438Y-57042856D01*
X27482438Y-57042856D02*
X27434819Y-56947618D01*
X27434819Y-56947618D02*
X27434819Y-56757142D01*
X27434819Y-56757142D02*
X27482438Y-56661904D01*
X27482438Y-56661904D02*
X27577676Y-56566666D01*
X27577676Y-56566666D02*
X27768152Y-56519047D01*
X27768152Y-56519047D02*
X28101485Y-56519047D01*
X28101485Y-56519047D02*
X28291961Y-56566666D01*
X28291961Y-56566666D02*
X28387200Y-56661904D01*
X28387200Y-56661904D02*
X28434819Y-56757142D01*
X28434819Y-56757142D02*
X28434819Y-56947618D01*
X28434819Y-55566666D02*
X28434819Y-56138094D01*
X28434819Y-55852380D02*
X27434819Y-55852380D01*
X27434819Y-55852380D02*
X27577676Y-55947618D01*
X27577676Y-55947618D02*
X27672914Y-56042856D01*
X27672914Y-56042856D02*
X27720533Y-56138094D01*
X28434819Y-54614285D02*
X28434819Y-55185713D01*
X28434819Y-54899999D02*
X27434819Y-54899999D01*
X27434819Y-54899999D02*
X27577676Y-54995237D01*
X27577676Y-54995237D02*
X27672914Y-55090475D01*
X27672914Y-55090475D02*
X27720533Y-55185713D01*
X47492142Y-55314819D02*
X47158809Y-54838628D01*
X46920714Y-55314819D02*
X46920714Y-54314819D01*
X46920714Y-54314819D02*
X47301666Y-54314819D01*
X47301666Y-54314819D02*
X47396904Y-54362438D01*
X47396904Y-54362438D02*
X47444523Y-54410057D01*
X47444523Y-54410057D02*
X47492142Y-54505295D01*
X47492142Y-54505295D02*
X47492142Y-54648152D01*
X47492142Y-54648152D02*
X47444523Y-54743390D01*
X47444523Y-54743390D02*
X47396904Y-54791009D01*
X47396904Y-54791009D02*
X47301666Y-54838628D01*
X47301666Y-54838628D02*
X46920714Y-54838628D01*
X47873095Y-54410057D02*
X47920714Y-54362438D01*
X47920714Y-54362438D02*
X48015952Y-54314819D01*
X48015952Y-54314819D02*
X48254047Y-54314819D01*
X48254047Y-54314819D02*
X48349285Y-54362438D01*
X48349285Y-54362438D02*
X48396904Y-54410057D01*
X48396904Y-54410057D02*
X48444523Y-54505295D01*
X48444523Y-54505295D02*
X48444523Y-54600533D01*
X48444523Y-54600533D02*
X48396904Y-54743390D01*
X48396904Y-54743390D02*
X47825476Y-55314819D01*
X47825476Y-55314819D02*
X48444523Y-55314819D01*
X49396904Y-55314819D02*
X48825476Y-55314819D01*
X49111190Y-55314819D02*
X49111190Y-54314819D01*
X49111190Y-54314819D02*
X49015952Y-54457676D01*
X49015952Y-54457676D02*
X48920714Y-54552914D01*
X48920714Y-54552914D02*
X48825476Y-54600533D01*
X86850057Y-28816428D02*
X86802438Y-28911666D01*
X86802438Y-28911666D02*
X86707200Y-29006904D01*
X86707200Y-29006904D02*
X86564342Y-29149761D01*
X86564342Y-29149761D02*
X86516723Y-29244999D01*
X86516723Y-29244999D02*
X86516723Y-29340237D01*
X86754819Y-29292618D02*
X86707200Y-29387856D01*
X86707200Y-29387856D02*
X86611961Y-29483094D01*
X86611961Y-29483094D02*
X86421485Y-29530713D01*
X86421485Y-29530713D02*
X86088152Y-29530713D01*
X86088152Y-29530713D02*
X85897676Y-29483094D01*
X85897676Y-29483094D02*
X85802438Y-29387856D01*
X85802438Y-29387856D02*
X85754819Y-29292618D01*
X85754819Y-29292618D02*
X85754819Y-29102142D01*
X85754819Y-29102142D02*
X85802438Y-29006904D01*
X85802438Y-29006904D02*
X85897676Y-28911666D01*
X85897676Y-28911666D02*
X86088152Y-28864047D01*
X86088152Y-28864047D02*
X86421485Y-28864047D01*
X86421485Y-28864047D02*
X86611961Y-28911666D01*
X86611961Y-28911666D02*
X86707200Y-29006904D01*
X86707200Y-29006904D02*
X86754819Y-29102142D01*
X86754819Y-29102142D02*
X86754819Y-29292618D01*
X86754819Y-27911666D02*
X86754819Y-28483094D01*
X86754819Y-28197380D02*
X85754819Y-28197380D01*
X85754819Y-28197380D02*
X85897676Y-28292618D01*
X85897676Y-28292618D02*
X85992914Y-28387856D01*
X85992914Y-28387856D02*
X86040533Y-28483094D01*
X85754819Y-27292618D02*
X85754819Y-27197380D01*
X85754819Y-27197380D02*
X85802438Y-27102142D01*
X85802438Y-27102142D02*
X85850057Y-27054523D01*
X85850057Y-27054523D02*
X85945295Y-27006904D01*
X85945295Y-27006904D02*
X86135771Y-26959285D01*
X86135771Y-26959285D02*
X86373866Y-26959285D01*
X86373866Y-26959285D02*
X86564342Y-27006904D01*
X86564342Y-27006904D02*
X86659580Y-27054523D01*
X86659580Y-27054523D02*
X86707200Y-27102142D01*
X86707200Y-27102142D02*
X86754819Y-27197380D01*
X86754819Y-27197380D02*
X86754819Y-27292618D01*
X86754819Y-27292618D02*
X86707200Y-27387856D01*
X86707200Y-27387856D02*
X86659580Y-27435475D01*
X86659580Y-27435475D02*
X86564342Y-27483094D01*
X86564342Y-27483094D02*
X86373866Y-27530713D01*
X86373866Y-27530713D02*
X86135771Y-27530713D01*
X86135771Y-27530713D02*
X85945295Y-27483094D01*
X85945295Y-27483094D02*
X85850057Y-27435475D01*
X85850057Y-27435475D02*
X85802438Y-27387856D01*
X85802438Y-27387856D02*
X85754819Y-27292618D01*
X89244819Y-51332857D02*
X88768628Y-51666190D01*
X89244819Y-51904285D02*
X88244819Y-51904285D01*
X88244819Y-51904285D02*
X88244819Y-51523333D01*
X88244819Y-51523333D02*
X88292438Y-51428095D01*
X88292438Y-51428095D02*
X88340057Y-51380476D01*
X88340057Y-51380476D02*
X88435295Y-51332857D01*
X88435295Y-51332857D02*
X88578152Y-51332857D01*
X88578152Y-51332857D02*
X88673390Y-51380476D01*
X88673390Y-51380476D02*
X88721009Y-51428095D01*
X88721009Y-51428095D02*
X88768628Y-51523333D01*
X88768628Y-51523333D02*
X88768628Y-51904285D01*
X88340057Y-50951904D02*
X88292438Y-50904285D01*
X88292438Y-50904285D02*
X88244819Y-50809047D01*
X88244819Y-50809047D02*
X88244819Y-50570952D01*
X88244819Y-50570952D02*
X88292438Y-50475714D01*
X88292438Y-50475714D02*
X88340057Y-50428095D01*
X88340057Y-50428095D02*
X88435295Y-50380476D01*
X88435295Y-50380476D02*
X88530533Y-50380476D01*
X88530533Y-50380476D02*
X88673390Y-50428095D01*
X88673390Y-50428095D02*
X89244819Y-50999523D01*
X89244819Y-50999523D02*
X89244819Y-50380476D01*
X88673390Y-49809047D02*
X88625771Y-49904285D01*
X88625771Y-49904285D02*
X88578152Y-49951904D01*
X88578152Y-49951904D02*
X88482914Y-49999523D01*
X88482914Y-49999523D02*
X88435295Y-49999523D01*
X88435295Y-49999523D02*
X88340057Y-49951904D01*
X88340057Y-49951904D02*
X88292438Y-49904285D01*
X88292438Y-49904285D02*
X88244819Y-49809047D01*
X88244819Y-49809047D02*
X88244819Y-49618571D01*
X88244819Y-49618571D02*
X88292438Y-49523333D01*
X88292438Y-49523333D02*
X88340057Y-49475714D01*
X88340057Y-49475714D02*
X88435295Y-49428095D01*
X88435295Y-49428095D02*
X88482914Y-49428095D01*
X88482914Y-49428095D02*
X88578152Y-49475714D01*
X88578152Y-49475714D02*
X88625771Y-49523333D01*
X88625771Y-49523333D02*
X88673390Y-49618571D01*
X88673390Y-49618571D02*
X88673390Y-49809047D01*
X88673390Y-49809047D02*
X88721009Y-49904285D01*
X88721009Y-49904285D02*
X88768628Y-49951904D01*
X88768628Y-49951904D02*
X88863866Y-49999523D01*
X88863866Y-49999523D02*
X89054342Y-49999523D01*
X89054342Y-49999523D02*
X89149580Y-49951904D01*
X89149580Y-49951904D02*
X89197200Y-49904285D01*
X89197200Y-49904285D02*
X89244819Y-49809047D01*
X89244819Y-49809047D02*
X89244819Y-49618571D01*
X89244819Y-49618571D02*
X89197200Y-49523333D01*
X89197200Y-49523333D02*
X89149580Y-49475714D01*
X89149580Y-49475714D02*
X89054342Y-49428095D01*
X89054342Y-49428095D02*
X88863866Y-49428095D01*
X88863866Y-49428095D02*
X88768628Y-49475714D01*
X88768628Y-49475714D02*
X88721009Y-49523333D01*
X88721009Y-49523333D02*
X88673390Y-49618571D01*
X93318152Y-51475714D02*
X93984819Y-51475714D01*
X92937200Y-51713809D02*
X93651485Y-51951904D01*
X93651485Y-51951904D02*
X93651485Y-51332857D01*
X92984819Y-51047142D02*
X92984819Y-50380476D01*
X92984819Y-50380476D02*
X93984819Y-50809047D01*
X93984819Y-49999523D02*
X92984819Y-49999523D01*
X93984819Y-49428095D02*
X93413390Y-49856666D01*
X92984819Y-49428095D02*
X93556247Y-49999523D01*
X81380057Y-57291428D02*
X81332438Y-57386666D01*
X81332438Y-57386666D02*
X81237200Y-57481904D01*
X81237200Y-57481904D02*
X81094342Y-57624761D01*
X81094342Y-57624761D02*
X81046723Y-57719999D01*
X81046723Y-57719999D02*
X81046723Y-57815237D01*
X81284819Y-57767618D02*
X81237200Y-57862856D01*
X81237200Y-57862856D02*
X81141961Y-57958094D01*
X81141961Y-57958094D02*
X80951485Y-58005713D01*
X80951485Y-58005713D02*
X80618152Y-58005713D01*
X80618152Y-58005713D02*
X80427676Y-57958094D01*
X80427676Y-57958094D02*
X80332438Y-57862856D01*
X80332438Y-57862856D02*
X80284819Y-57767618D01*
X80284819Y-57767618D02*
X80284819Y-57577142D01*
X80284819Y-57577142D02*
X80332438Y-57481904D01*
X80332438Y-57481904D02*
X80427676Y-57386666D01*
X80427676Y-57386666D02*
X80618152Y-57339047D01*
X80618152Y-57339047D02*
X80951485Y-57339047D01*
X80951485Y-57339047D02*
X81141961Y-57386666D01*
X81141961Y-57386666D02*
X81237200Y-57481904D01*
X81237200Y-57481904D02*
X81284819Y-57577142D01*
X81284819Y-57577142D02*
X81284819Y-57767618D01*
X81284819Y-56386666D02*
X81284819Y-56958094D01*
X81284819Y-56672380D02*
X80284819Y-56672380D01*
X80284819Y-56672380D02*
X80427676Y-56767618D01*
X80427676Y-56767618D02*
X80522914Y-56862856D01*
X80522914Y-56862856D02*
X80570533Y-56958094D01*
X80284819Y-56053332D02*
X80284819Y-55386666D01*
X80284819Y-55386666D02*
X81284819Y-55815237D01*
X52630057Y-56991428D02*
X52582438Y-57086666D01*
X52582438Y-57086666D02*
X52487200Y-57181904D01*
X52487200Y-57181904D02*
X52344342Y-57324761D01*
X52344342Y-57324761D02*
X52296723Y-57419999D01*
X52296723Y-57419999D02*
X52296723Y-57515237D01*
X52534819Y-57467618D02*
X52487200Y-57562856D01*
X52487200Y-57562856D02*
X52391961Y-57658094D01*
X52391961Y-57658094D02*
X52201485Y-57705713D01*
X52201485Y-57705713D02*
X51868152Y-57705713D01*
X51868152Y-57705713D02*
X51677676Y-57658094D01*
X51677676Y-57658094D02*
X51582438Y-57562856D01*
X51582438Y-57562856D02*
X51534819Y-57467618D01*
X51534819Y-57467618D02*
X51534819Y-57277142D01*
X51534819Y-57277142D02*
X51582438Y-57181904D01*
X51582438Y-57181904D02*
X51677676Y-57086666D01*
X51677676Y-57086666D02*
X51868152Y-57039047D01*
X51868152Y-57039047D02*
X52201485Y-57039047D01*
X52201485Y-57039047D02*
X52391961Y-57086666D01*
X52391961Y-57086666D02*
X52487200Y-57181904D01*
X52487200Y-57181904D02*
X52534819Y-57277142D01*
X52534819Y-57277142D02*
X52534819Y-57467618D01*
X52534819Y-56086666D02*
X52534819Y-56658094D01*
X52534819Y-56372380D02*
X51534819Y-56372380D01*
X51534819Y-56372380D02*
X51677676Y-56467618D01*
X51677676Y-56467618D02*
X51772914Y-56562856D01*
X51772914Y-56562856D02*
X51820533Y-56658094D01*
X51868152Y-55229523D02*
X52534819Y-55229523D01*
X51487200Y-55467618D02*
X52201485Y-55705713D01*
X52201485Y-55705713D02*
X52201485Y-55086666D01*
X65762142Y-26694819D02*
X65428809Y-26218628D01*
X65190714Y-26694819D02*
X65190714Y-25694819D01*
X65190714Y-25694819D02*
X65571666Y-25694819D01*
X65571666Y-25694819D02*
X65666904Y-25742438D01*
X65666904Y-25742438D02*
X65714523Y-25790057D01*
X65714523Y-25790057D02*
X65762142Y-25885295D01*
X65762142Y-25885295D02*
X65762142Y-26028152D01*
X65762142Y-26028152D02*
X65714523Y-26123390D01*
X65714523Y-26123390D02*
X65666904Y-26171009D01*
X65666904Y-26171009D02*
X65571666Y-26218628D01*
X65571666Y-26218628D02*
X65190714Y-26218628D01*
X66714523Y-26694819D02*
X66143095Y-26694819D01*
X66428809Y-26694819D02*
X66428809Y-25694819D01*
X66428809Y-25694819D02*
X66333571Y-25837676D01*
X66333571Y-25837676D02*
X66238333Y-25932914D01*
X66238333Y-25932914D02*
X66143095Y-25980533D01*
X67666904Y-26694819D02*
X67095476Y-26694819D01*
X67381190Y-26694819D02*
X67381190Y-25694819D01*
X67381190Y-25694819D02*
X67285952Y-25837676D01*
X67285952Y-25837676D02*
X67190714Y-25932914D01*
X67190714Y-25932914D02*
X67095476Y-25980533D01*
X57738095Y-39006819D02*
X58309523Y-39006819D01*
X58023809Y-40006819D02*
X58023809Y-39006819D01*
X58642857Y-40006819D02*
X58642857Y-39006819D01*
X58642857Y-39006819D02*
X59023809Y-39006819D01*
X59023809Y-39006819D02*
X59119047Y-39054438D01*
X59119047Y-39054438D02*
X59166666Y-39102057D01*
X59166666Y-39102057D02*
X59214285Y-39197295D01*
X59214285Y-39197295D02*
X59214285Y-39340152D01*
X59214285Y-39340152D02*
X59166666Y-39435390D01*
X59166666Y-39435390D02*
X59119047Y-39483009D01*
X59119047Y-39483009D02*
X59023809Y-39530628D01*
X59023809Y-39530628D02*
X58642857Y-39530628D01*
X60166666Y-40006819D02*
X59595238Y-40006819D01*
X59880952Y-40006819D02*
X59880952Y-39006819D01*
X59880952Y-39006819D02*
X59785714Y-39149676D01*
X59785714Y-39149676D02*
X59690476Y-39244914D01*
X59690476Y-39244914D02*
X59595238Y-39292533D01*
X83587142Y-32084819D02*
X83253809Y-31608628D01*
X83015714Y-32084819D02*
X83015714Y-31084819D01*
X83015714Y-31084819D02*
X83396666Y-31084819D01*
X83396666Y-31084819D02*
X83491904Y-31132438D01*
X83491904Y-31132438D02*
X83539523Y-31180057D01*
X83539523Y-31180057D02*
X83587142Y-31275295D01*
X83587142Y-31275295D02*
X83587142Y-31418152D01*
X83587142Y-31418152D02*
X83539523Y-31513390D01*
X83539523Y-31513390D02*
X83491904Y-31561009D01*
X83491904Y-31561009D02*
X83396666Y-31608628D01*
X83396666Y-31608628D02*
X83015714Y-31608628D01*
X84539523Y-32084819D02*
X83968095Y-32084819D01*
X84253809Y-32084819D02*
X84253809Y-31084819D01*
X84253809Y-31084819D02*
X84158571Y-31227676D01*
X84158571Y-31227676D02*
X84063333Y-31322914D01*
X84063333Y-31322914D02*
X83968095Y-31370533D01*
X85396666Y-31418152D02*
X85396666Y-32084819D01*
X85158571Y-31037200D02*
X84920476Y-31751485D01*
X84920476Y-31751485D02*
X85539523Y-31751485D01*
X44738095Y-50006819D02*
X45309523Y-50006819D01*
X45023809Y-51006819D02*
X45023809Y-50006819D01*
X45642857Y-51006819D02*
X45642857Y-50006819D01*
X45642857Y-50006819D02*
X46023809Y-50006819D01*
X46023809Y-50006819D02*
X46119047Y-50054438D01*
X46119047Y-50054438D02*
X46166666Y-50102057D01*
X46166666Y-50102057D02*
X46214285Y-50197295D01*
X46214285Y-50197295D02*
X46214285Y-50340152D01*
X46214285Y-50340152D02*
X46166666Y-50435390D01*
X46166666Y-50435390D02*
X46119047Y-50483009D01*
X46119047Y-50483009D02*
X46023809Y-50530628D01*
X46023809Y-50530628D02*
X45642857Y-50530628D01*
X46547619Y-50006819D02*
X47166666Y-50006819D01*
X47166666Y-50006819D02*
X46833333Y-50387771D01*
X46833333Y-50387771D02*
X46976190Y-50387771D01*
X46976190Y-50387771D02*
X47071428Y-50435390D01*
X47071428Y-50435390D02*
X47119047Y-50483009D01*
X47119047Y-50483009D02*
X47166666Y-50578247D01*
X47166666Y-50578247D02*
X47166666Y-50816342D01*
X47166666Y-50816342D02*
X47119047Y-50911580D01*
X47119047Y-50911580D02*
X47071428Y-50959200D01*
X47071428Y-50959200D02*
X46976190Y-51006819D01*
X46976190Y-51006819D02*
X46690476Y-51006819D01*
X46690476Y-51006819D02*
X46595238Y-50959200D01*
X46595238Y-50959200D02*
X46547619Y-50911580D01*
X39364819Y-50257857D02*
X38888628Y-50591190D01*
X39364819Y-50829285D02*
X38364819Y-50829285D01*
X38364819Y-50829285D02*
X38364819Y-50448333D01*
X38364819Y-50448333D02*
X38412438Y-50353095D01*
X38412438Y-50353095D02*
X38460057Y-50305476D01*
X38460057Y-50305476D02*
X38555295Y-50257857D01*
X38555295Y-50257857D02*
X38698152Y-50257857D01*
X38698152Y-50257857D02*
X38793390Y-50305476D01*
X38793390Y-50305476D02*
X38841009Y-50353095D01*
X38841009Y-50353095D02*
X38888628Y-50448333D01*
X38888628Y-50448333D02*
X38888628Y-50829285D01*
X39364819Y-49305476D02*
X39364819Y-49876904D01*
X39364819Y-49591190D02*
X38364819Y-49591190D01*
X38364819Y-49591190D02*
X38507676Y-49686428D01*
X38507676Y-49686428D02*
X38602914Y-49781666D01*
X38602914Y-49781666D02*
X38650533Y-49876904D01*
X38364819Y-48448333D02*
X38364819Y-48638809D01*
X38364819Y-48638809D02*
X38412438Y-48734047D01*
X38412438Y-48734047D02*
X38460057Y-48781666D01*
X38460057Y-48781666D02*
X38602914Y-48876904D01*
X38602914Y-48876904D02*
X38793390Y-48924523D01*
X38793390Y-48924523D02*
X39174342Y-48924523D01*
X39174342Y-48924523D02*
X39269580Y-48876904D01*
X39269580Y-48876904D02*
X39317200Y-48829285D01*
X39317200Y-48829285D02*
X39364819Y-48734047D01*
X39364819Y-48734047D02*
X39364819Y-48543571D01*
X39364819Y-48543571D02*
X39317200Y-48448333D01*
X39317200Y-48448333D02*
X39269580Y-48400714D01*
X39269580Y-48400714D02*
X39174342Y-48353095D01*
X39174342Y-48353095D02*
X38936247Y-48353095D01*
X38936247Y-48353095D02*
X38841009Y-48400714D01*
X38841009Y-48400714D02*
X38793390Y-48448333D01*
X38793390Y-48448333D02*
X38745771Y-48543571D01*
X38745771Y-48543571D02*
X38745771Y-48734047D01*
X38745771Y-48734047D02*
X38793390Y-48829285D01*
X38793390Y-48829285D02*
X38841009Y-48876904D01*
X38841009Y-48876904D02*
X38936247Y-48924523D01*
X43438152Y-50400714D02*
X44104819Y-50400714D01*
X43057200Y-50638809D02*
X43771485Y-50876904D01*
X43771485Y-50876904D02*
X43771485Y-50257857D01*
X43104819Y-49972142D02*
X43104819Y-49305476D01*
X43104819Y-49305476D02*
X44104819Y-49734047D01*
X44104819Y-48924523D02*
X43104819Y-48924523D01*
X44104819Y-48353095D02*
X43533390Y-48781666D01*
X43104819Y-48353095D02*
X43676247Y-48924523D01*
D12*
%TO.C,JP6*%
X87950000Y-66300000D02*
X87950000Y-65700000D01*
X88500000Y-67500000D02*
X89100000Y-67500000D01*
X88600000Y-65000000D02*
X91400000Y-65000000D01*
X88800000Y-67200000D02*
X88500000Y-67500000D01*
X88800000Y-67200000D02*
X89100000Y-67500000D01*
X91400000Y-67000000D02*
X88600000Y-67000000D01*
X92050000Y-65700000D02*
X92050000Y-66300000D01*
X87950000Y-65700000D02*
G75*
G02*
X88650000Y-65000000I699999J1D01*
G01*
X88650000Y-67000000D02*
G75*
G02*
X87950000Y-66300000I-1J699999D01*
G01*
X91350000Y-65000000D02*
G75*
G02*
X92050000Y-65700000I0J-700000D01*
G01*
X92050000Y-66300000D02*
G75*
G02*
X91350000Y-67000000I-700000J0D01*
G01*
%TO.C,Q15*%
X58370000Y-64880000D02*
X58370000Y-61280000D01*
X54070000Y-62300000D02*
G75*
G02*
X58347684Y-61271555I2450000J-780000D01*
G01*
X58361741Y-64891875D02*
G75*
G02*
X54070000Y-63900000I-1841741J1811875D01*
G01*
%TO.C,R3*%
X28020000Y-28220000D02*
X28090000Y-28220000D01*
X28020000Y-28220000D02*
G75*
G02*
X25280000Y-28220000I-1370000J0D01*
G01*
X25280000Y-28220000D02*
G75*
G02*
X28020000Y-28220000I1370000J0D01*
G01*
%TO.C,JP1*%
X49950000Y-36300000D02*
X49950000Y-35700000D01*
X50650000Y-35000000D02*
X52050000Y-35000000D01*
X52050000Y-37000000D02*
X50650000Y-37000000D01*
X52750000Y-35700000D02*
X52750000Y-36300000D01*
X49950000Y-35700000D02*
G75*
G02*
X50650000Y-35000000I699999J1D01*
G01*
X50650000Y-37000000D02*
G75*
G02*
X49950000Y-36300000I-1J699999D01*
G01*
X52050000Y-35000000D02*
G75*
G02*
X52750000Y-35700000I0J-700000D01*
G01*
X52750000Y-36300000D02*
G75*
G02*
X52050000Y-37000000I-700000J0D01*
G01*
%TO.C,R5*%
X33880000Y-27910000D02*
X33950000Y-27910000D01*
X33880000Y-27910000D02*
G75*
G02*
X31140000Y-27910000I-1370000J0D01*
G01*
X31140000Y-27910000D02*
G75*
G02*
X33880000Y-27910000I1370000J0D01*
G01*
%TO.C,Q3*%
X43750000Y-29950000D02*
X43750000Y-26350000D01*
X39450000Y-27370000D02*
G75*
G02*
X43727684Y-26341555I2450000J-780000D01*
G01*
X43741741Y-29961875D02*
G75*
G02*
X39450000Y-28970000I-1841741J1811875D01*
G01*
%TO.C,R7*%
X45050000Y-33950000D02*
X45120000Y-33950000D01*
X45050000Y-33950000D02*
G75*
G02*
X42310000Y-33950000I-1370000J0D01*
G01*
X42310000Y-33950000D02*
G75*
G02*
X45050000Y-33950000I1370000J0D01*
G01*
%TO.C,JP2*%
X92950000Y-39300000D02*
X92950000Y-38700000D01*
X93650000Y-38000000D02*
X95050000Y-38000000D01*
X95050000Y-40000000D02*
X93650000Y-40000000D01*
X95750000Y-38700000D02*
X95750000Y-39300000D01*
X92950000Y-38700000D02*
G75*
G02*
X93650000Y-38000000I699999J1D01*
G01*
X93650000Y-40000000D02*
G75*
G02*
X92950000Y-39300000I-1J699999D01*
G01*
X95050000Y-38000000D02*
G75*
G02*
X95750000Y-38700000I0J-700000D01*
G01*
X95750000Y-39300000D02*
G75*
G02*
X95050000Y-40000000I-700000J0D01*
G01*
%TO.C,Q7*%
X70910000Y-24890000D02*
X70910000Y-21290000D01*
X66610000Y-22310000D02*
G75*
G02*
X70887684Y-21281555I2450000J-780000D01*
G01*
X70901741Y-24901875D02*
G75*
G02*
X66610000Y-23910000I-1841741J1811875D01*
G01*
%TO.C,JP5*%
X39250000Y-65300000D02*
X39250000Y-64700000D01*
X39950000Y-64000000D02*
X41350000Y-64000000D01*
X41350000Y-66000000D02*
X39950000Y-66000000D01*
X42050000Y-64700000D02*
X42050000Y-65300000D01*
X39250000Y-64700000D02*
G75*
G02*
X39950000Y-64000000I699999J1D01*
G01*
X39950000Y-66000000D02*
G75*
G02*
X39250000Y-65300000I-1J699999D01*
G01*
X41350000Y-64000000D02*
G75*
G02*
X42050000Y-64700000I0J-700000D01*
G01*
X42050000Y-65300000D02*
G75*
G02*
X41350000Y-66000000I-700000J0D01*
G01*
%TO.C,R24*%
X68100000Y-50040000D02*
X68100000Y-49970000D01*
X69470000Y-51410000D02*
G75*
G02*
X66730000Y-51410000I-1370000J0D01*
G01*
X66730000Y-51410000D02*
G75*
G02*
X69470000Y-51410000I1370000J0D01*
G01*
%TO.C,R6*%
X39555000Y-33850000D02*
X39625000Y-33850000D01*
X39555000Y-33850000D02*
G75*
G02*
X36815000Y-33850000I-1370000J0D01*
G01*
X36815000Y-33850000D02*
G75*
G02*
X39555000Y-33850000I1370000J0D01*
G01*
%TO.C,R19*%
X23645000Y-55650000D02*
X23715000Y-55650000D01*
X23645000Y-55650000D02*
G75*
G02*
X20905000Y-55650000I-1370000J0D01*
G01*
X20905000Y-55650000D02*
G75*
G02*
X23645000Y-55650000I1370000J0D01*
G01*
%TO.C,Q6*%
X70350000Y-36480000D02*
X70350000Y-32880000D01*
X66050000Y-33900000D02*
G75*
G02*
X70327684Y-32871555I2450000J-780000D01*
G01*
X70341741Y-36491875D02*
G75*
G02*
X66050000Y-35500000I-1841741J1811875D01*
G01*
%TO.C,R15*%
X84470000Y-20795000D02*
X84470000Y-20725000D01*
X85840000Y-22165000D02*
G75*
G02*
X83100000Y-22165000I-1370000J0D01*
G01*
X83100000Y-22165000D02*
G75*
G02*
X85840000Y-22165000I1370000J0D01*
G01*
%TO.C,J1*%
X61220833Y-20000000D02*
G75*
G02*
X58219167Y-20000000I-1500833J0D01*
G01*
X58219167Y-20000000D02*
G75*
G02*
X61220833Y-20000000I1500833J0D01*
G01*
%TO.C,Q8*%
X83330000Y-30270000D02*
X83330000Y-26670000D01*
X79030000Y-27690000D02*
G75*
G02*
X83307684Y-26661555I2450000J-780000D01*
G01*
X83321741Y-30281875D02*
G75*
G02*
X79030000Y-29290000I-1841741J1811875D01*
G01*
%TO.C,R18*%
X22955000Y-62520000D02*
X23025000Y-62520000D01*
X22955000Y-62520000D02*
G75*
G02*
X20215000Y-62520000I-1370000J0D01*
G01*
X20215000Y-62520000D02*
G75*
G02*
X22955000Y-62520000I1370000J0D01*
G01*
%TO.C,R26*%
X75345000Y-63540000D02*
X75415000Y-63540000D01*
X75345000Y-63540000D02*
G75*
G02*
X72605000Y-63540000I-1370000J0D01*
G01*
X72605000Y-63540000D02*
G75*
G02*
X75345000Y-63540000I1370000J0D01*
G01*
%TO.C,R10*%
X75370000Y-41080000D02*
X75440000Y-41080000D01*
X75370000Y-41080000D02*
G75*
G02*
X72630000Y-41080000I-1370000J0D01*
G01*
X72630000Y-41080000D02*
G75*
G02*
X75370000Y-41080000I1370000J0D01*
G01*
%TO.C,R22*%
X47715000Y-63390000D02*
X47785000Y-63390000D01*
X47715000Y-63390000D02*
G75*
G02*
X44975000Y-63390000I-1370000J0D01*
G01*
X44975000Y-63390000D02*
G75*
G02*
X47715000Y-63390000I1370000J0D01*
G01*
%TO.C,JP4*%
X60950000Y-62300000D02*
X60950000Y-61700000D01*
X61650000Y-61000000D02*
X63050000Y-61000000D01*
X63050000Y-63000000D02*
X61650000Y-63000000D01*
X63750000Y-61700000D02*
X63750000Y-62300000D01*
X60950000Y-61700000D02*
G75*
G02*
X61650000Y-61000000I699999J1D01*
G01*
X61650000Y-63000000D02*
G75*
G02*
X60950000Y-62300000I-1J699999D01*
G01*
X63050000Y-61000000D02*
G75*
G02*
X63750000Y-61700000I0J-700000D01*
G01*
X63750000Y-62300000D02*
G75*
G02*
X63050000Y-63000000I-700000J0D01*
G01*
%TO.C,Q12*%
X33580000Y-64430000D02*
X33580000Y-60830000D01*
X29280000Y-61850000D02*
G75*
G02*
X33557684Y-60821555I2450000J-780000D01*
G01*
X33571741Y-64441875D02*
G75*
G02*
X29280000Y-63450000I-1841741J1811875D01*
G01*
%TO.C,R23*%
X56960000Y-49820000D02*
X56960000Y-49750000D01*
X58330000Y-51190000D02*
G75*
G02*
X55590000Y-51190000I-1370000J0D01*
G01*
X55590000Y-51190000D02*
G75*
G02*
X58330000Y-51190000I1370000J0D01*
G01*
%TO.C,R13*%
X78325000Y-34000000D02*
X78395000Y-34000000D01*
X78325000Y-34000000D02*
G75*
G02*
X75585000Y-34000000I-1370000J0D01*
G01*
X75585000Y-34000000D02*
G75*
G02*
X78325000Y-34000000I1370000J0D01*
G01*
%TO.C,J2*%
X68000833Y-65500000D02*
G75*
G02*
X64999167Y-65500000I-1500833J0D01*
G01*
X64999167Y-65500000D02*
G75*
G02*
X68000833Y-65500000I1500833J0D01*
G01*
%TO.C,Q16*%
X69350000Y-58070000D02*
X69350000Y-54470000D01*
X65050000Y-55490000D02*
G75*
G02*
X69327684Y-54461555I2450000J-780000D01*
G01*
X69341741Y-58081875D02*
G75*
G02*
X65050000Y-57090000I-1841741J1811875D01*
G01*
%TO.C,Q9*%
X85270000Y-42980000D02*
X85270000Y-39380000D01*
X80970000Y-40400000D02*
G75*
G02*
X85247684Y-39371555I2450000J-780000D01*
G01*
X85261741Y-42991875D02*
G75*
G02*
X80970000Y-42000000I-1841741J1811875D01*
G01*
%TO.C,R4*%
X51870000Y-20815000D02*
X51870000Y-20745000D01*
X53240000Y-22185000D02*
G75*
G02*
X50500000Y-22185000I-1370000J0D01*
G01*
X50500000Y-22185000D02*
G75*
G02*
X53240000Y-22185000I1370000J0D01*
G01*
%TO.C,R12*%
X73145000Y-28450000D02*
X73215000Y-28450000D01*
X73145000Y-28450000D02*
G75*
G02*
X70405000Y-28450000I-1370000J0D01*
G01*
X70405000Y-28450000D02*
G75*
G02*
X73145000Y-28450000I1370000J0D01*
G01*
%TO.C,R8*%
X90970000Y-21355000D02*
X90970000Y-21285000D01*
X92340000Y-22725000D02*
G75*
G02*
X89600000Y-22725000I-1370000J0D01*
G01*
X89600000Y-22725000D02*
G75*
G02*
X92340000Y-22725000I1370000J0D01*
G01*
%TO.C,R1*%
X22695000Y-34330000D02*
X22765000Y-34330000D01*
X22695000Y-34330000D02*
G75*
G02*
X19955000Y-34330000I-1370000J0D01*
G01*
X19955000Y-34330000D02*
G75*
G02*
X22695000Y-34330000I1370000J0D01*
G01*
%TO.C,R2*%
X30610000Y-42150000D02*
X30680000Y-42150000D01*
X30610000Y-42150000D02*
G75*
G02*
X27870000Y-42150000I-1370000J0D01*
G01*
X27870000Y-42150000D02*
G75*
G02*
X30610000Y-42150000I1370000J0D01*
G01*
%TO.C,Q18*%
X85750000Y-65500000D02*
X85750000Y-61900000D01*
X81450000Y-62920000D02*
G75*
G02*
X85727684Y-61891555I2450000J-780000D01*
G01*
X85741741Y-65511875D02*
G75*
G02*
X81450000Y-64520000I-1841741J1811875D01*
G01*
%TO.C,Q2*%
X31680000Y-24300000D02*
X31680000Y-20700000D01*
X27380000Y-21720000D02*
G75*
G02*
X31657684Y-20691555I2450000J-780000D01*
G01*
X31671741Y-24311875D02*
G75*
G02*
X27380000Y-23320000I-1841741J1811875D01*
G01*
%TO.C,R20*%
X32910000Y-49520000D02*
X32910000Y-49450000D01*
X34280000Y-50890000D02*
G75*
G02*
X31540000Y-50890000I-1370000J0D01*
G01*
X31540000Y-50890000D02*
G75*
G02*
X34280000Y-50890000I1370000J0D01*
G01*
%TO.C,Q1*%
X31680000Y-36230000D02*
X31680000Y-32630000D01*
X27380000Y-33650000D02*
G75*
G02*
X31657684Y-32621555I2450000J-780000D01*
G01*
X31671741Y-36241875D02*
G75*
G02*
X27380000Y-35250000I-1841741J1811875D01*
G01*
%TO.C,JP3*%
X93250000Y-66300000D02*
X93250000Y-65700000D01*
X93950000Y-65000000D02*
X95350000Y-65000000D01*
X95350000Y-67000000D02*
X93950000Y-67000000D01*
X96050000Y-65700000D02*
X96050000Y-66300000D01*
X93250000Y-65700000D02*
G75*
G02*
X93950000Y-65000000I699999J1D01*
G01*
X93950000Y-67000000D02*
G75*
G02*
X93250000Y-66300000I-1J699999D01*
G01*
X95350000Y-65000000D02*
G75*
G02*
X96050000Y-65700000I0J-700000D01*
G01*
X96050000Y-66300000D02*
G75*
G02*
X95350000Y-67000000I-700000J0D01*
G01*
%TO.C,R9*%
X60185000Y-34830000D02*
X60255000Y-34830000D01*
X60185000Y-34830000D02*
G75*
G02*
X57445000Y-34830000I-1370000J0D01*
G01*
X57445000Y-34830000D02*
G75*
G02*
X60185000Y-34830000I1370000J0D01*
G01*
%TO.C,R25*%
X77315000Y-56720000D02*
X77385000Y-56720000D01*
X77315000Y-56720000D02*
G75*
G02*
X74575000Y-56720000I-1370000J0D01*
G01*
X74575000Y-56720000D02*
G75*
G02*
X77315000Y-56720000I1370000J0D01*
G01*
%TO.C,TP2*%
X68300000Y-41300000D02*
X69700000Y-41300000D01*
X68300000Y-42700000D02*
X68300000Y-41300000D01*
X69700000Y-41300000D02*
X69700000Y-42700000D01*
X69700000Y-42700000D02*
X68300000Y-42700000D01*
%TO.C,Q19*%
X94980000Y-61390000D02*
X94980000Y-57790000D01*
X90680000Y-58810000D02*
G75*
G02*
X94957684Y-57781555I2450000J-780000D01*
G01*
X94971741Y-61401875D02*
G75*
G02*
X90680000Y-60410000I-1841741J1811875D01*
G01*
%TO.C,Q4*%
X40350000Y-44050000D02*
X40350000Y-40450000D01*
X36050000Y-41470000D02*
G75*
G02*
X40327684Y-40441555I2450000J-780000D01*
G01*
X40341741Y-44061875D02*
G75*
G02*
X36050000Y-43070000I-1841741J1811875D01*
G01*
%TO.C,R27*%
X84180000Y-50270000D02*
X84180000Y-50200000D01*
X85550000Y-51640000D02*
G75*
G02*
X82810000Y-51640000I-1370000J0D01*
G01*
X82810000Y-51640000D02*
G75*
G02*
X85550000Y-51640000I1370000J0D01*
G01*
%TO.C,Q13*%
X42650000Y-57860000D02*
X42650000Y-54260000D01*
X38350000Y-55280000D02*
G75*
G02*
X42627684Y-54251555I2450000J-780000D01*
G01*
X42641741Y-57871875D02*
G75*
G02*
X38350000Y-56880000I-1841741J1811875D01*
G01*
%TO.C,Q5*%
X53450000Y-29270000D02*
X53450000Y-25670000D01*
X49150000Y-26690000D02*
G75*
G02*
X53427684Y-25661555I2450000J-780000D01*
G01*
X53441741Y-29281875D02*
G75*
G02*
X49150000Y-28290000I-1841741J1811875D01*
G01*
%TO.C,R17*%
X42220000Y-21345000D02*
X42220000Y-21275000D01*
X43590000Y-22715000D02*
G75*
G02*
X40850000Y-22715000I-1370000J0D01*
G01*
X40850000Y-22715000D02*
G75*
G02*
X43590000Y-22715000I1370000J0D01*
G01*
%TO.C,TP4*%
X45300000Y-47300000D02*
X46700000Y-47300000D01*
X45300000Y-48700000D02*
X45300000Y-47300000D01*
X46700000Y-47300000D02*
X46700000Y-48700000D01*
X46700000Y-48700000D02*
X45300000Y-48700000D01*
%TO.C,Q11*%
X34230000Y-57700000D02*
X34230000Y-54100000D01*
X29930000Y-55120000D02*
G75*
G02*
X34207684Y-54091555I2450000J-780000D01*
G01*
X34221741Y-57711875D02*
G75*
G02*
X29930000Y-56720000I-1841741J1811875D01*
G01*
%TO.C,R21*%
X48235000Y-57230000D02*
X48305000Y-57230000D01*
X48235000Y-57230000D02*
G75*
G02*
X45495000Y-57230000I-1370000J0D01*
G01*
X45495000Y-57230000D02*
G75*
G02*
X48235000Y-57230000I1370000J0D01*
G01*
%TO.C,Q10*%
X92550000Y-30045000D02*
X92550000Y-26445000D01*
X88250000Y-27465000D02*
G75*
G02*
X92527684Y-26436555I2450000J-780000D01*
G01*
X92541741Y-30056875D02*
G75*
G02*
X88250000Y-29065000I-1841741J1811875D01*
G01*
%TO.C,R28*%
X91160000Y-50590000D02*
X91160000Y-50520000D01*
X92530000Y-51960000D02*
G75*
G02*
X89790000Y-51960000I-1370000J0D01*
G01*
X89790000Y-51960000D02*
G75*
G02*
X92530000Y-51960000I1370000J0D01*
G01*
%TO.C,Q17*%
X87080000Y-58520000D02*
X87080000Y-54920000D01*
X82780000Y-55940000D02*
G75*
G02*
X87057684Y-54911555I2450000J-780000D01*
G01*
X87071741Y-58531875D02*
G75*
G02*
X82780000Y-57540000I-1841741J1811875D01*
G01*
%TO.C,Q14*%
X58330000Y-58220000D02*
X58330000Y-54620000D01*
X54030000Y-55640000D02*
G75*
G02*
X58307684Y-54611555I2450000J-780000D01*
G01*
X58321741Y-58231875D02*
G75*
G02*
X54030000Y-57240000I-1841741J1811875D01*
G01*
%TO.C,R11*%
X66505000Y-28610000D02*
X66575000Y-28610000D01*
X66505000Y-28610000D02*
G75*
G02*
X63765000Y-28610000I-1370000J0D01*
G01*
X63765000Y-28610000D02*
G75*
G02*
X66505000Y-28610000I1370000J0D01*
G01*
%TO.C,TP1*%
X58300000Y-40300000D02*
X59700000Y-40300000D01*
X58300000Y-41700000D02*
X58300000Y-40300000D01*
X59700000Y-40300000D02*
X59700000Y-41700000D01*
X59700000Y-41700000D02*
X58300000Y-41700000D01*
%TO.C,R14*%
X84330000Y-34000000D02*
X84400000Y-34000000D01*
X84330000Y-34000000D02*
G75*
G02*
X81590000Y-34000000I-1370000J0D01*
G01*
X81590000Y-34000000D02*
G75*
G02*
X84330000Y-34000000I1370000J0D01*
G01*
%TO.C,TP3*%
X45300000Y-51300000D02*
X46700000Y-51300000D01*
X45300000Y-52700000D02*
X45300000Y-51300000D01*
X46700000Y-51300000D02*
X46700000Y-52700000D01*
X46700000Y-52700000D02*
X45300000Y-52700000D01*
%TO.C,R16*%
X41280000Y-49515000D02*
X41280000Y-49445000D01*
X42650000Y-50885000D02*
G75*
G02*
X39910000Y-50885000I-1370000J0D01*
G01*
X39910000Y-50885000D02*
G75*
G02*
X42650000Y-50885000I1370000J0D01*
G01*
%TD*%
D13*
X56520000Y-64350000D03*
X55250000Y-63080000D03*
X56520000Y-61810000D03*
X26650000Y-28220000D03*
X29190000Y-28220000D03*
X32510000Y-27910000D03*
X35050000Y-27910000D03*
X41900000Y-29420000D03*
X40630000Y-28150000D03*
X41900000Y-26880000D03*
X43680000Y-33950000D03*
X46220000Y-33950000D03*
X69060000Y-24360000D03*
X67790000Y-23090000D03*
X69060000Y-21820000D03*
X68100000Y-51410000D03*
X68100000Y-48870000D03*
X38185000Y-33850000D03*
X40725000Y-33850000D03*
X22275000Y-55650000D03*
X24815000Y-55650000D03*
X68500000Y-35950000D03*
X67230000Y-34680000D03*
X68500000Y-33410000D03*
X84470000Y-22165000D03*
X84470000Y-19625000D03*
X59720000Y-20000000D03*
X81480000Y-29740000D03*
X80210000Y-28470000D03*
X81480000Y-27200000D03*
X21585000Y-62520000D03*
X24125000Y-62520000D03*
X73975000Y-63540000D03*
X76515000Y-63540000D03*
X74000000Y-41080000D03*
X76540000Y-41080000D03*
X46345000Y-63390000D03*
X48885000Y-63390000D03*
X31730000Y-63900000D03*
X30460000Y-62630000D03*
X31730000Y-61360000D03*
X56960000Y-51190000D03*
X56960000Y-48650000D03*
X15600000Y-37470000D03*
X15600000Y-42070000D03*
X15600000Y-46670000D03*
X76955000Y-34000000D03*
X79495000Y-34000000D03*
X66500000Y-65500000D03*
X67500000Y-57540000D03*
X66230000Y-56270000D03*
X67500000Y-55000000D03*
X83420000Y-42450000D03*
X82150000Y-41180000D03*
X83420000Y-39910000D03*
X101120000Y-45970000D03*
X101120000Y-41370000D03*
X51870000Y-22185000D03*
X51870000Y-19645000D03*
X71775000Y-28450000D03*
X74315000Y-28450000D03*
X90970000Y-22725000D03*
X90970000Y-20185000D03*
X21325000Y-34330000D03*
X23865000Y-34330000D03*
X29240000Y-42150000D03*
X31780000Y-42150000D03*
X83900000Y-64970000D03*
X82630000Y-63700000D03*
X83900000Y-62430000D03*
X29830000Y-23770000D03*
X28560000Y-22500000D03*
X29830000Y-21230000D03*
X32910000Y-50890000D03*
X32910000Y-48350000D03*
X29830000Y-35700000D03*
X28560000Y-34430000D03*
X29830000Y-33160000D03*
X58815000Y-34830000D03*
X61355000Y-34830000D03*
X75945000Y-56720000D03*
X78485000Y-56720000D03*
X93130000Y-60860000D03*
X91860000Y-59590000D03*
X93130000Y-58320000D03*
X38500000Y-43520000D03*
X37230000Y-42250000D03*
X38500000Y-40980000D03*
X84180000Y-51640000D03*
X84180000Y-49100000D03*
X40800000Y-57330000D03*
X39530000Y-56060000D03*
X40800000Y-54790000D03*
X51600000Y-28740000D03*
X50330000Y-27470000D03*
X51600000Y-26200000D03*
X42220000Y-22715000D03*
X42220000Y-20175000D03*
X32380000Y-57170000D03*
X31110000Y-55900000D03*
X32380000Y-54630000D03*
X46865000Y-57230000D03*
X49405000Y-57230000D03*
X90700000Y-29515000D03*
X89430000Y-28245000D03*
X90700000Y-26975000D03*
X91160000Y-51960000D03*
X91160000Y-49420000D03*
X85230000Y-57990000D03*
X83960000Y-56720000D03*
X85230000Y-55450000D03*
X56480000Y-57690000D03*
X55210000Y-56420000D03*
X56480000Y-55150000D03*
X65135000Y-28610000D03*
X67675000Y-28610000D03*
X82960000Y-34000000D03*
X85500000Y-34000000D03*
X41280000Y-50885000D03*
X41280000Y-48345000D03*
M02*
