M48
; DRILL file {KiCad 8.0.2-1} date 2024-05-13T20:57:24-0400
; FORMAT={-:-/ absolute / metric / decimal}
; #@! TF.CreationDate,2024-05-13T20:57:24-04:00
; #@! TF.GenerationSoftware,Kicad,Pcbnew,8.0.2-1
; #@! TF.FileFunction,MixedPlating,1,2
FMAT,2
METRIC
; #@! TA.AperFunction,Plated,PTH,ViaDrill
T1C0.300
; #@! TA.AperFunction,Plated,PTH,ComponentDrill
T2C0.750
; #@! TA.AperFunction,Plated,PTH,ComponentDrill
T3C0.800
; #@! TA.AperFunction,Plated,PTH,ComponentDrill
T4C1.100
; #@! TA.AperFunction,Plated,PTH,ComponentDrill
T5C1.200
%
G90
G05
T1
X87.237Y-65.956
T2
X28.56Y-22.5
X28.56Y-34.43
X29.83Y-21.23
X29.83Y-23.77
X29.83Y-33.16
X29.83Y-35.7
X30.46Y-62.63
X31.11Y-55.9
X31.73Y-61.36
X31.73Y-63.9
X32.38Y-54.63
X32.38Y-57.17
X37.23Y-42.25
X38.5Y-40.98
X38.5Y-43.52
X39.53Y-56.06
X40.63Y-28.15
X40.8Y-54.79
X40.8Y-57.33
X41.9Y-26.88
X41.9Y-29.42
X50.33Y-27.47
X51.6Y-26.2
X51.6Y-28.74
X55.21Y-56.42
X55.25Y-63.08
X56.48Y-55.15
X56.48Y-57.69
X56.52Y-61.81
X56.52Y-64.35
X66.23Y-56.27
X67.23Y-34.68
X67.5Y-55.0
X67.5Y-57.54
X67.79Y-23.09
X68.5Y-33.41
X68.5Y-35.95
X69.06Y-21.82
X69.06Y-24.36
X80.21Y-28.47
X81.48Y-27.2
X81.48Y-29.74
X82.15Y-41.18
X82.63Y-63.7
X83.42Y-39.91
X83.42Y-42.45
X83.9Y-62.43
X83.9Y-64.97
X83.96Y-56.72
X85.23Y-55.45
X85.23Y-57.99
X89.43Y-28.245
X90.7Y-26.975
X90.7Y-29.515
X91.86Y-59.59
X93.13Y-58.32
X93.13Y-60.86
T3
X21.325Y-34.33
X21.585Y-62.52
X22.275Y-55.65
X23.865Y-34.33
X24.125Y-62.52
X24.815Y-55.65
X26.65Y-28.22
X29.19Y-28.22
X29.24Y-42.15
X31.78Y-42.15
X32.51Y-27.91
X32.91Y-48.35
X32.91Y-50.89
X35.05Y-27.91
X38.185Y-33.85
X40.725Y-33.85
X41.28Y-48.345
X41.28Y-50.885
X42.22Y-20.175
X42.22Y-22.715
X43.68Y-33.95
X46.22Y-33.95
X46.345Y-63.39
X46.865Y-57.23
X48.885Y-63.39
X49.405Y-57.23
X51.87Y-19.645
X51.87Y-22.185
X56.96Y-48.65
X56.96Y-51.19
X58.815Y-34.83
X61.355Y-34.83
X65.135Y-28.61
X67.675Y-28.61
X68.1Y-48.87
X68.1Y-51.41
X71.775Y-28.45
X73.975Y-63.54
X74.0Y-41.08
X74.315Y-28.45
X75.945Y-56.72
X76.515Y-63.54
X76.54Y-41.08
X76.955Y-34.0
X78.485Y-56.72
X79.495Y-34.0
X82.96Y-34.0
X84.18Y-49.1
X84.18Y-51.64
X84.47Y-19.625
X84.47Y-22.165
X85.5Y-34.0
X90.97Y-20.185
X90.97Y-22.725
X91.16Y-49.42
X91.16Y-51.96
T4
X15.6Y-37.47
X15.6Y-42.07
X15.6Y-46.67
X101.12Y-41.37
X101.12Y-45.97
T5
X59.72Y-20.0
X66.5Y-65.5
M30
