%TF.GenerationSoftware,KiCad,Pcbnew,8.0.2-1*%
%TF.CreationDate,2024-05-13T20:57:24-04:00*%
%TF.ProjectId,Transistor_Calculator_V2,5472616e-7369-4737-946f-725f43616c63,rev?*%
%TF.SameCoordinates,Original*%
%TF.FileFunction,Legend,Bot*%
%TF.FilePolarity,Positive*%
%FSLAX46Y46*%
G04 Gerber Fmt 4.6, Leading zero omitted, Abs format (unit mm)*
G04 Created by KiCad (PCBNEW 8.0.2-1) date 2024-05-13 20:57:24*
%MOMM*%
%LPD*%
G01*
G04 APERTURE LIST*
%ADD10C,0.350000*%
G04 APERTURE END LIST*
D10*
X56520000Y-64350000D03*
X55250000Y-63080000D03*
X56520000Y-61810000D03*
X26650000Y-28220000D03*
X29190000Y-28220000D03*
X32510000Y-27910000D03*
X35050000Y-27910000D03*
X41900000Y-29420000D03*
X40630000Y-28150000D03*
X41900000Y-26880000D03*
X43680000Y-33950000D03*
X46220000Y-33950000D03*
X69060000Y-24360000D03*
X67790000Y-23090000D03*
X69060000Y-21820000D03*
X68100000Y-51410000D03*
X68100000Y-48870000D03*
X38185000Y-33850000D03*
X40725000Y-33850000D03*
X22275000Y-55650000D03*
X24815000Y-55650000D03*
X68500000Y-35950000D03*
X67230000Y-34680000D03*
X68500000Y-33410000D03*
X84470000Y-22165000D03*
X84470000Y-19625000D03*
X59720000Y-20000000D03*
X81480000Y-29740000D03*
X80210000Y-28470000D03*
X81480000Y-27200000D03*
X21585000Y-62520000D03*
X24125000Y-62520000D03*
X73975000Y-63540000D03*
X76515000Y-63540000D03*
X74000000Y-41080000D03*
X76540000Y-41080000D03*
X46345000Y-63390000D03*
X48885000Y-63390000D03*
X31730000Y-63900000D03*
X30460000Y-62630000D03*
X31730000Y-61360000D03*
X56960000Y-51190000D03*
X56960000Y-48650000D03*
X15600000Y-37470000D03*
X15600000Y-42070000D03*
X15600000Y-46670000D03*
X76955000Y-34000000D03*
X79495000Y-34000000D03*
X66500000Y-65500000D03*
X67500000Y-57540000D03*
X66230000Y-56270000D03*
X67500000Y-55000000D03*
X83420000Y-42450000D03*
X82150000Y-41180000D03*
X83420000Y-39910000D03*
X101120000Y-45970000D03*
X101120000Y-41370000D03*
X51870000Y-22185000D03*
X51870000Y-19645000D03*
X71775000Y-28450000D03*
X74315000Y-28450000D03*
X90970000Y-22725000D03*
X90970000Y-20185000D03*
X21325000Y-34330000D03*
X23865000Y-34330000D03*
X29240000Y-42150000D03*
X31780000Y-42150000D03*
X83900000Y-64970000D03*
X82630000Y-63700000D03*
X83900000Y-62430000D03*
X29830000Y-23770000D03*
X28560000Y-22500000D03*
X29830000Y-21230000D03*
X32910000Y-50890000D03*
X32910000Y-48350000D03*
X29830000Y-35700000D03*
X28560000Y-34430000D03*
X29830000Y-33160000D03*
X58815000Y-34830000D03*
X61355000Y-34830000D03*
X75945000Y-56720000D03*
X78485000Y-56720000D03*
X93130000Y-60860000D03*
X91860000Y-59590000D03*
X93130000Y-58320000D03*
X38500000Y-43520000D03*
X37230000Y-42250000D03*
X38500000Y-40980000D03*
X84180000Y-51640000D03*
X84180000Y-49100000D03*
X40800000Y-57330000D03*
X39530000Y-56060000D03*
X40800000Y-54790000D03*
X51600000Y-28740000D03*
X50330000Y-27470000D03*
X51600000Y-26200000D03*
X42220000Y-22715000D03*
X42220000Y-20175000D03*
X32380000Y-57170000D03*
X31110000Y-55900000D03*
X32380000Y-54630000D03*
X46865000Y-57230000D03*
X49405000Y-57230000D03*
X90700000Y-29515000D03*
X89430000Y-28245000D03*
X90700000Y-26975000D03*
X91160000Y-51960000D03*
X91160000Y-49420000D03*
X85230000Y-57990000D03*
X83960000Y-56720000D03*
X85230000Y-55450000D03*
X56480000Y-57690000D03*
X55210000Y-56420000D03*
X56480000Y-55150000D03*
X65135000Y-28610000D03*
X67675000Y-28610000D03*
X82960000Y-34000000D03*
X85500000Y-34000000D03*
X41280000Y-50885000D03*
X41280000Y-48345000D03*
M02*
