M48
METRIC,TZ
T1C0.300
T2C0.750
T3C0.800
T4C1.100
T5C1.200
%
G90
G05
T1
X87238Y-65956
T2
X28560Y-22500
X28560Y-34430
X29830Y-21230
X29830Y-23770
X29830Y-33160
X29830Y-35700
X30460Y-62630
X31110Y-55900
X31730Y-61360
X31730Y-63900
X32380Y-54630
X32380Y-57170
X37230Y-42250
X38500Y-40980
X38500Y-43520
X39530Y-56060
X40630Y-28150
X40800Y-54790
X40800Y-57330
X41900Y-26880
X41900Y-29420
X50330Y-27470
X51600Y-26200
X51600Y-28740
X55210Y-56420
X55250Y-63080
X56480Y-55150
X56480Y-57690
X56520Y-61810
X56520Y-64350
X66230Y-56270
X67230Y-34680
X67500Y-55000
X67500Y-57540
X67790Y-23090
X68500Y-33410
X68500Y-35950
X69060Y-21820
X69060Y-24360
X80210Y-28470
X81480Y-27200
X81480Y-29740
X82150Y-41180
X82630Y-63700
X83420Y-39910
X83420Y-42450
X83900Y-62430
X83900Y-64970
X83960Y-56720
X85230Y-55450
X85230Y-57990
X89430Y-28245
X90700Y-26975
X90700Y-29515
X91860Y-59590
X93130Y-58320
X93130Y-60860
T3
X21325Y-34330
X21585Y-62520
X22275Y-55650
X23865Y-34330
X24125Y-62520
X24815Y-55650
X26650Y-28220
X29190Y-28220
X29240Y-42150
X31780Y-42150
X32510Y-27910
X32910Y-48350
X32910Y-50890
X35050Y-27910
X38185Y-33850
X40725Y-33850
X41280Y-48345
X41280Y-50885
X42220Y-20175
X42220Y-22715
X43680Y-33950
X46220Y-33950
X46345Y-63390
X46865Y-57230
X48885Y-63390
X49405Y-57230
X51870Y-19645
X51870Y-22185
X56960Y-48650
X56960Y-51190
X58815Y-34830
X61355Y-34830
X65135Y-28610
X67675Y-28610
X68100Y-48870
X68100Y-51410
X71775Y-28450
X73975Y-63540
X74000Y-41080
X74315Y-28450
X75945Y-56720
X76515Y-63540
X76540Y-41080
X76955Y-34000
X78485Y-56720
X79495Y-34000
X82960Y-34000
X84180Y-49100
X84180Y-51640
X84470Y-19625
X84470Y-22165
X85500Y-34000
X90970Y-20185
X90970Y-22725
X91160Y-49420
X91160Y-51960
T4
X15600Y-37470
X15600Y-42070
X15600Y-46670
X101120Y-41370
X101120Y-45970
T5
X59720Y-20000
X66500Y-65500
M30
