%TF.GenerationSoftware,KiCad,Pcbnew,8.0.2-1*%
%TF.CreationDate,2024-05-13T20:57:24-04:00*%
%TF.ProjectId,Transistor_Calculator_V2,5472616e-7369-4737-946f-725f43616c63,rev?*%
%TF.SameCoordinates,Original*%
%TF.FileFunction,Copper,L2,Bot*%
%TF.FilePolarity,Positive*%
%FSLAX46Y46*%
G04 Gerber Fmt 4.6, Leading zero omitted, Abs format (unit mm)*
G04 Created by KiCad (PCBNEW 8.0.2-1) date 2024-05-13 20:57:24*
%MOMM*%
%LPD*%
G01*
G04 APERTURE LIST*
G04 Aperture macros list*
%AMRoundRect*
0 Rectangle with rounded corners*
0 $1 Rounding radius*
0 $2 $3 $4 $5 $6 $7 $8 $9 X,Y pos of 4 corners*
0 Add a 4 corners polygon primitive as box body*
4,1,4,$2,$3,$4,$5,$6,$7,$8,$9,$2,$3,0*
0 Add four circle primitives for the rounded corners*
1,1,$1+$1,$2,$3*
1,1,$1+$1,$4,$5*
1,1,$1+$1,$6,$7*
1,1,$1+$1,$8,$9*
0 Add four rect primitives between the rounded corners*
20,1,$1+$1,$2,$3,$4,$5,0*
20,1,$1+$1,$4,$5,$6,$7,0*
20,1,$1+$1,$6,$7,$8,$9,0*
20,1,$1+$1,$8,$9,$2,$3,0*%
G04 Aperture macros list end*
%TA.AperFunction,ComponentPad*%
%ADD10R,1.800000X1.100000*%
%TD*%
%TA.AperFunction,ComponentPad*%
%ADD11RoundRect,0.275000X0.625000X-0.275000X0.625000X0.275000X-0.625000X0.275000X-0.625000X-0.275000X0*%
%TD*%
%TA.AperFunction,ComponentPad*%
%ADD12C,1.600000*%
%TD*%
%TA.AperFunction,ComponentPad*%
%ADD13O,1.600000X1.600000*%
%TD*%
%TA.AperFunction,ComponentPad*%
%ADD14C,2.400000*%
%TD*%
%TA.AperFunction,ComponentPad*%
%ADD15RoundRect,0.250001X-0.799999X0.799999X-0.799999X-0.799999X0.799999X-0.799999X0.799999X0.799999X0*%
%TD*%
%TA.AperFunction,ComponentPad*%
%ADD16C,2.100000*%
%TD*%
%TA.AperFunction,ComponentPad*%
%ADD17RoundRect,0.250001X0.799999X-0.799999X0.799999X0.799999X-0.799999X0.799999X-0.799999X-0.799999X0*%
%TD*%
%TA.AperFunction,ViaPad*%
%ADD18C,0.600000*%
%TD*%
%TA.AperFunction,Conductor*%
%ADD19C,0.200000*%
%TD*%
%ADD20C,0.300000*%
%ADD21C,0.350000*%
G04 APERTURE END LIST*
D10*
%TO.P,Q15,1,E*%
%TO.N,Net-(J2-Pin_1)*%
X56920000Y-64350000D03*
D11*
%TO.P,Q15,2,B*%
%TO.N,Net-(Q15-B)*%
X54850000Y-63080000D03*
%TO.P,Q15,3,C*%
%TO.N,Net-(Q14-E)*%
X56920000Y-61810000D03*
%TD*%
D12*
%TO.P,R3,1*%
%TO.N,Net-(Q3-B)*%
X26650000Y-28220000D03*
D13*
%TO.P,R3,2*%
%TO.N,Net-(Q1-C)*%
X29190000Y-28220000D03*
%TD*%
D12*
%TO.P,R5,1*%
%TO.N,Net-(Q1-C)*%
X32510000Y-27910000D03*
D13*
%TO.P,R5,2*%
%TO.N,Net-(J1-Pin_1)*%
X35050000Y-27910000D03*
%TD*%
D10*
%TO.P,Q3,1,E*%
%TO.N,Net-(Q3-E)*%
X42300000Y-29420000D03*
D11*
%TO.P,Q3,2,B*%
%TO.N,Net-(Q3-B)*%
X40230000Y-28150000D03*
%TO.P,Q3,3,C*%
%TO.N,Net-(Q2-C)*%
X42300000Y-26880000D03*
%TD*%
D12*
%TO.P,R7,1*%
%TO.N,Net-(Q3-E)*%
X43680000Y-33950000D03*
D13*
%TO.P,R7,2*%
%TO.N,Net-(J1-Pin_1)*%
X46220000Y-33950000D03*
%TD*%
D10*
%TO.P,Q7,1,E*%
%TO.N,Net-(Q6-C)*%
X69460000Y-24360000D03*
D11*
%TO.P,Q7,2,B*%
%TO.N,Net-(Q7-B)*%
X67390000Y-23090000D03*
%TO.P,Q7,3,C*%
%TO.N,Net-(Q10-B)*%
X69460000Y-21820000D03*
%TD*%
D12*
%TO.P,R24,1*%
%TO.N,Net-(JP4-A)*%
X68100000Y-51410000D03*
D13*
%TO.P,R24,2*%
%TO.N,Net-(J1-Pin_1)*%
X68100000Y-48870000D03*
%TD*%
D12*
%TO.P,R6,1*%
%TO.N,Net-(Q2-B)*%
X38185000Y-33850000D03*
D13*
%TO.P,R6,2*%
%TO.N,Net-(Q3-E)*%
X40725000Y-33850000D03*
%TD*%
D12*
%TO.P,R19,1*%
%TO.N,Net-(Input_Pins1-Pin_2)*%
X22275000Y-55650000D03*
D13*
%TO.P,R19,2*%
%TO.N,Net-(Q11-B)*%
X24815000Y-55650000D03*
%TD*%
D10*
%TO.P,Q6,1,E*%
%TO.N,Net-(J2-Pin_1)*%
X68900000Y-35950000D03*
D11*
%TO.P,Q6,2,B*%
%TO.N,Net-(Q6-B)*%
X66830000Y-34680000D03*
%TO.P,Q6,3,C*%
%TO.N,Net-(Q6-C)*%
X68900000Y-33410000D03*
%TD*%
D12*
%TO.P,R15,1*%
%TO.N,Net-(J1-Pin_1)*%
X84470000Y-22165000D03*
D13*
%TO.P,R15,2*%
%TO.N,Net-(Q10-B)*%
X84470000Y-19625000D03*
%TD*%
D14*
%TO.P,J1,1,Pin_1*%
%TO.N,Net-(J1-Pin_1)*%
X59720000Y-20000000D03*
%TD*%
D10*
%TO.P,Q8,1,E*%
%TO.N,Net-(Q8-E)*%
X81880000Y-29740000D03*
D11*
%TO.P,Q8,2,B*%
%TO.N,Net-(Q8-B)*%
X79810000Y-28470000D03*
%TO.P,Q8,3,C*%
%TO.N,Net-(Q10-B)*%
X81880000Y-27200000D03*
%TD*%
D12*
%TO.P,R18,1*%
%TO.N,Net-(Input_Pins1-Pin_1)*%
X21585000Y-62520000D03*
D13*
%TO.P,R18,2*%
%TO.N,Net-(Q12-B)*%
X24125000Y-62520000D03*
%TD*%
D12*
%TO.P,R26,1*%
%TO.N,Net-(JP5-B)*%
X73975000Y-63540000D03*
D13*
%TO.P,R26,2*%
%TO.N,Net-(Q18-B)*%
X76515000Y-63540000D03*
%TD*%
D12*
%TO.P,R10,1*%
%TO.N,Net-(Input_Pins1-Pin_3)*%
X74000000Y-41080000D03*
D13*
%TO.P,R10,2*%
%TO.N,Net-(Q9-B)*%
X76540000Y-41080000D03*
%TD*%
D12*
%TO.P,R22,1*%
%TO.N,Net-(JP1-B)*%
X46345000Y-63390000D03*
D13*
%TO.P,R22,2*%
%TO.N,Net-(Q15-B)*%
X48885000Y-63390000D03*
%TD*%
D10*
%TO.P,Q12,1,E*%
%TO.N,Net-(J2-Pin_1)*%
X32130000Y-63900000D03*
D11*
%TO.P,Q12,2,B*%
%TO.N,Net-(Q12-B)*%
X30060000Y-62630000D03*
%TO.P,Q12,3,C*%
%TO.N,Net-(Q11-E)*%
X32130000Y-61360000D03*
%TD*%
D12*
%TO.P,R23,1*%
%TO.N,Net-(Q14-C)*%
X56960000Y-51190000D03*
D13*
%TO.P,R23,2*%
%TO.N,Net-(J1-Pin_1)*%
X56960000Y-48650000D03*
%TD*%
D15*
%TO.P,Input_Pins1,1,Pin_1*%
%TO.N,Net-(Input_Pins1-Pin_1)*%
X15600000Y-37470000D03*
D16*
%TO.P,Input_Pins1,2,Pin_2*%
%TO.N,Net-(Input_Pins1-Pin_2)*%
X15600000Y-42070000D03*
%TO.P,Input_Pins1,3,Pin_3*%
%TO.N,Net-(Input_Pins1-Pin_3)*%
X15600000Y-46670000D03*
%TD*%
D12*
%TO.P,R13,1*%
%TO.N,Net-(Q7-B)*%
X76955000Y-34000000D03*
D13*
%TO.P,R13,2*%
%TO.N,Net-(Q8-E)*%
X79495000Y-34000000D03*
%TD*%
D14*
%TO.P,J2,1,Pin_1*%
%TO.N,Net-(J2-Pin_1)*%
X66500000Y-65500000D03*
%TD*%
D10*
%TO.P,Q16,1,E*%
%TO.N,Net-(J2-Pin_1)*%
X67900000Y-57540000D03*
D11*
%TO.P,Q16,2,B*%
%TO.N,Net-(Q14-C)*%
X65830000Y-56270000D03*
%TO.P,Q16,3,C*%
%TO.N,Net-(JP4-A)*%
X67900000Y-55000000D03*
%TD*%
D10*
%TO.P,Q9,1,E*%
%TO.N,Net-(J2-Pin_1)*%
X83820000Y-42450000D03*
D11*
%TO.P,Q9,2,B*%
%TO.N,Net-(Q9-B)*%
X81750000Y-41180000D03*
%TO.P,Q9,3,C*%
%TO.N,Net-(Q8-E)*%
X83820000Y-39910000D03*
%TD*%
D17*
%TO.P,Output_Pins1,1,Pin_1*%
%TO.N,Net-(JP3-B)*%
X101120000Y-45970000D03*
D16*
%TO.P,Output_Pins1,2,Pin_2*%
%TO.N,Net-(JP2-B)*%
X101120000Y-41370000D03*
%TD*%
D12*
%TO.P,R4,1*%
%TO.N,Net-(JP1-A)*%
X51870000Y-22185000D03*
D13*
%TO.P,R4,2*%
%TO.N,Net-(J1-Pin_1)*%
X51870000Y-19645000D03*
%TD*%
D12*
%TO.P,R12,1*%
%TO.N,Net-(Q6-C)*%
X71775000Y-28450000D03*
D13*
%TO.P,R12,2*%
%TO.N,Net-(J1-Pin_1)*%
X74315000Y-28450000D03*
%TD*%
D12*
%TO.P,R8,1*%
%TO.N,Net-(JP2-A)*%
X90970000Y-22725000D03*
D13*
%TO.P,R8,2*%
%TO.N,Net-(J1-Pin_1)*%
X90970000Y-20185000D03*
%TD*%
D12*
%TO.P,R1,1*%
%TO.N,Net-(Input_Pins1-Pin_1)*%
X21325000Y-34330000D03*
D13*
%TO.P,R1,2*%
%TO.N,Net-(Q1-B)*%
X23865000Y-34330000D03*
%TD*%
D12*
%TO.P,R2,1*%
%TO.N,Net-(Input_Pins1-Pin_2)*%
X29240000Y-42150000D03*
D13*
%TO.P,R2,2*%
%TO.N,Net-(Q4-B)*%
X31780000Y-42150000D03*
%TD*%
D10*
%TO.P,Q18,1,E*%
%TO.N,Net-(J2-Pin_1)*%
X84300000Y-64970000D03*
D11*
%TO.P,Q18,2,B*%
%TO.N,Net-(Q18-B)*%
X82230000Y-63700000D03*
%TO.P,Q18,3,C*%
%TO.N,Net-(Q17-C)*%
X84300000Y-62430000D03*
%TD*%
D10*
%TO.P,Q2,1,E*%
%TO.N,Net-(Q1-C)*%
X30230000Y-23770000D03*
D11*
%TO.P,Q2,2,B*%
%TO.N,Net-(Q2-B)*%
X28160000Y-22500000D03*
%TO.P,Q2,3,C*%
%TO.N,Net-(Q2-C)*%
X30230000Y-21230000D03*
%TD*%
D12*
%TO.P,R20,1*%
%TO.N,Net-(Q11-C)*%
X32910000Y-50890000D03*
D13*
%TO.P,R20,2*%
%TO.N,Net-(J1-Pin_1)*%
X32910000Y-48350000D03*
%TD*%
D10*
%TO.P,Q1,1,E*%
%TO.N,Net-(J2-Pin_1)*%
X30230000Y-35700000D03*
D11*
%TO.P,Q1,2,B*%
%TO.N,Net-(Q1-B)*%
X28160000Y-34430000D03*
%TO.P,Q1,3,C*%
%TO.N,Net-(Q1-C)*%
X30230000Y-33160000D03*
%TD*%
D12*
%TO.P,R9,1*%
%TO.N,Net-(JP1-B)*%
X58815000Y-34830000D03*
D13*
%TO.P,R9,2*%
%TO.N,Net-(Q6-B)*%
X61355000Y-34830000D03*
%TD*%
D12*
%TO.P,R25,1*%
%TO.N,Net-(JP4-B)*%
X75945000Y-56720000D03*
D13*
%TO.P,R25,2*%
%TO.N,Net-(Q17-B)*%
X78485000Y-56720000D03*
%TD*%
D10*
%TO.P,Q19,1,E*%
%TO.N,Net-(J2-Pin_1)*%
X93530000Y-60860000D03*
D11*
%TO.P,Q19,2,B*%
%TO.N,Net-(Q17-C)*%
X91460000Y-59590000D03*
%TO.P,Q19,3,C*%
%TO.N,Net-(JP3-A)*%
X93530000Y-58320000D03*
%TD*%
D10*
%TO.P,Q4,1,E*%
%TO.N,Net-(J2-Pin_1)*%
X38900000Y-43520000D03*
D11*
%TO.P,Q4,2,B*%
%TO.N,Net-(Q4-B)*%
X36830000Y-42250000D03*
%TO.P,Q4,3,C*%
%TO.N,Net-(Q3-E)*%
X38900000Y-40980000D03*
%TD*%
D12*
%TO.P,R27,1*%
%TO.N,Net-(Q17-C)*%
X84180000Y-51640000D03*
D13*
%TO.P,R27,2*%
%TO.N,Net-(J1-Pin_1)*%
X84180000Y-49100000D03*
%TD*%
D10*
%TO.P,Q13,1,E*%
%TO.N,Net-(J2-Pin_1)*%
X41200000Y-57330000D03*
D11*
%TO.P,Q13,2,B*%
%TO.N,Net-(Q11-C)*%
X39130000Y-56060000D03*
%TO.P,Q13,3,C*%
%TO.N,Net-(JP5-A)*%
X41200000Y-54790000D03*
%TD*%
D10*
%TO.P,Q5,1,E*%
%TO.N,Net-(J2-Pin_1)*%
X52000000Y-28740000D03*
D11*
%TO.P,Q5,2,B*%
%TO.N,Net-(Q2-C)*%
X49930000Y-27470000D03*
%TO.P,Q5,3,C*%
%TO.N,Net-(JP1-A)*%
X52000000Y-26200000D03*
%TD*%
D12*
%TO.P,R17,1*%
%TO.N,Net-(Q2-C)*%
X42220000Y-22715000D03*
D13*
%TO.P,R17,2*%
%TO.N,Net-(J1-Pin_1)*%
X42220000Y-20175000D03*
%TD*%
D10*
%TO.P,Q11,1,E*%
%TO.N,Net-(Q11-E)*%
X32780000Y-57170000D03*
D11*
%TO.P,Q11,2,B*%
%TO.N,Net-(Q11-B)*%
X30710000Y-55900000D03*
%TO.P,Q11,3,C*%
%TO.N,Net-(Q11-C)*%
X32780000Y-54630000D03*
%TD*%
D12*
%TO.P,R21,1*%
%TO.N,Net-(Input_Pins1-Pin_3)*%
X46865000Y-57230000D03*
D13*
%TO.P,R21,2*%
%TO.N,Net-(Q14-B)*%
X49405000Y-57230000D03*
%TD*%
D10*
%TO.P,Q10,1,E*%
%TO.N,Net-(J2-Pin_1)*%
X91100000Y-29515000D03*
D11*
%TO.P,Q10,2,B*%
%TO.N,Net-(Q10-B)*%
X89030000Y-28245000D03*
%TO.P,Q10,3,C*%
%TO.N,Net-(JP2-A)*%
X91100000Y-26975000D03*
%TD*%
D12*
%TO.P,R28,1*%
%TO.N,Net-(JP3-A)*%
X91160000Y-51960000D03*
D13*
%TO.P,R28,2*%
%TO.N,Net-(J1-Pin_1)*%
X91160000Y-49420000D03*
%TD*%
D10*
%TO.P,Q17,1,E*%
%TO.N,Net-(J2-Pin_1)*%
X85630000Y-57990000D03*
D11*
%TO.P,Q17,2,B*%
%TO.N,Net-(Q17-B)*%
X83560000Y-56720000D03*
%TO.P,Q17,3,C*%
%TO.N,Net-(Q17-C)*%
X85630000Y-55450000D03*
%TD*%
D10*
%TO.P,Q14,1,E*%
%TO.N,Net-(Q14-E)*%
X56880000Y-57690000D03*
D11*
%TO.P,Q14,2,B*%
%TO.N,Net-(Q14-B)*%
X54810000Y-56420000D03*
%TO.P,Q14,3,C*%
%TO.N,Net-(Q14-C)*%
X56880000Y-55150000D03*
%TD*%
D12*
%TO.P,R11,1*%
%TO.N,Net-(Q8-B)*%
X65135000Y-28610000D03*
D13*
%TO.P,R11,2*%
%TO.N,Net-(Q6-C)*%
X67675000Y-28610000D03*
%TD*%
D12*
%TO.P,R14,1*%
%TO.N,Net-(Q8-E)*%
X82960000Y-34000000D03*
D13*
%TO.P,R14,2*%
%TO.N,Net-(J1-Pin_1)*%
X85500000Y-34000000D03*
%TD*%
D12*
%TO.P,R16,1*%
%TO.N,Net-(JP5-A)*%
X41280000Y-50885000D03*
D13*
%TO.P,R16,2*%
%TO.N,Net-(J1-Pin_1)*%
X41280000Y-48345000D03*
%TD*%
D18*
%TO.N,Net-(JP4-A)*%
X87237500Y-65955600D03*
%TD*%
D19*
%TO.N,Net-(Input_Pins1-Pin_3)*%
X54175000Y-49920000D02*
X65160000Y-49920000D01*
X46865000Y-57230000D02*
X54175000Y-49920000D01*
X65160000Y-49920000D02*
X74000000Y-41080000D01*
%TO.N,Net-(Input_Pins1-Pin_2)*%
X22275000Y-48745000D02*
X22275000Y-55650000D01*
X15600000Y-42070000D02*
X22275000Y-48745000D01*
%TO.N,Net-(Input_Pins1-Pin_1)*%
X23386700Y-42671700D02*
X23386700Y-60718300D01*
X15600000Y-37470000D02*
X18185000Y-37470000D01*
X18185000Y-37470000D02*
X23386700Y-42671700D01*
X18185000Y-37470000D02*
X21325000Y-34330000D01*
X23386700Y-60718300D02*
X21585000Y-62520000D01*
%TO.N,Net-(JP1-A)*%
X51600000Y-22455000D02*
X51600000Y-26200000D01*
X51870000Y-22185000D02*
X51600000Y-22455000D01*
%TO.N,Net-(J1-Pin_1)*%
X84470000Y-31868300D02*
X85500000Y-32898300D01*
X41280000Y-48345000D02*
X41280000Y-47243300D01*
X85500000Y-32898300D02*
X85500000Y-34000000D01*
X42085800Y-21276700D02*
X36151700Y-27210800D01*
X42220000Y-21276700D02*
X42085800Y-21276700D01*
X39380800Y-31139100D02*
X36151700Y-27910000D01*
X84470000Y-30626800D02*
X77593500Y-30626800D01*
X84470000Y-22165000D02*
X84470000Y-30626800D01*
X42445100Y-31139100D02*
X39380800Y-31139100D01*
X42220000Y-20175000D02*
X42220000Y-21276700D01*
X84470000Y-30626800D02*
X84470000Y-31868300D01*
X46220000Y-44773300D02*
X51981600Y-44773300D01*
X46220000Y-44773300D02*
X46220000Y-33950000D01*
X45118300Y-33950000D02*
X45118300Y-33812300D01*
X46220000Y-33950000D02*
X45118300Y-33950000D01*
X77593500Y-30626800D02*
X75416700Y-28450000D01*
X45118300Y-33812300D02*
X42445100Y-31139100D01*
X75416700Y-28450000D02*
X74315000Y-28450000D01*
X36151700Y-27210800D02*
X36151700Y-27910000D01*
X35050000Y-27910000D02*
X36151700Y-27910000D01*
X51981600Y-44773300D02*
X55858300Y-48650000D01*
X55858300Y-48650000D02*
X56960000Y-48650000D01*
X41280000Y-47243300D02*
X43750000Y-44773300D01*
X43750000Y-44773300D02*
X46220000Y-44773300D01*
%TO.N,Net-(Q1-C)*%
X32510000Y-27910000D02*
X29830000Y-25230000D01*
X29830000Y-25230000D02*
X29830000Y-23770000D01*
%TO.N,Net-(Q2-B)*%
X38185000Y-33850000D02*
X36878600Y-33850000D01*
X36878600Y-33850000D02*
X28560000Y-25531400D01*
X28560000Y-25531400D02*
X28560000Y-22500000D01*
%TO.N,Net-(Q3-E)*%
X40725000Y-33850000D02*
X40725000Y-34951700D01*
X40725000Y-34951700D02*
X38500000Y-37176700D01*
X38500000Y-37176700D02*
X38500000Y-40980000D01*
%TO.N,Net-(Q6-C)*%
X69060000Y-26123300D02*
X69060000Y-24360000D01*
X67675000Y-28610000D02*
X67675000Y-27508300D01*
X67675000Y-27508300D02*
X69060000Y-26123300D01*
%TO.N,Net-(Q7-B)*%
X72920900Y-29965900D02*
X72920900Y-25886900D01*
X70124000Y-23090000D02*
X67790000Y-23090000D01*
X76955000Y-34000000D02*
X72920900Y-29965900D01*
X72920900Y-25886900D02*
X70124000Y-23090000D01*
%TO.N,Net-(Q8-E)*%
X82960000Y-34000000D02*
X82960000Y-39450000D01*
X82960000Y-39450000D02*
X83420000Y-39910000D01*
%TO.N,Net-(Q11-C)*%
X32380000Y-51420000D02*
X32380000Y-54630000D01*
X32910000Y-50890000D02*
X32380000Y-51420000D01*
%TO.N,Net-(Q11-E)*%
X32380000Y-57170000D02*
X32380000Y-58021700D01*
X31730000Y-58671700D02*
X31730000Y-61360000D01*
X32380000Y-58021700D02*
X31730000Y-58671700D01*
%TO.N,Net-(JP2-A)*%
X90700000Y-22995000D02*
X90700000Y-26975000D01*
X90970000Y-22725000D02*
X90700000Y-22995000D01*
%TO.N,Net-(Q14-E)*%
X56520000Y-58581700D02*
X56520000Y-61810000D01*
X56480000Y-57690000D02*
X56480000Y-58541700D01*
X56480000Y-58541700D02*
X56520000Y-58581700D01*
%TO.N,Net-(Q14-C)*%
X56480000Y-51670000D02*
X56480000Y-55150000D01*
X56960000Y-51190000D02*
X56480000Y-51670000D01*
%TO.N,Net-(Q17-C)*%
X85230000Y-52690000D02*
X85230000Y-55450000D01*
X84180000Y-51640000D02*
X85230000Y-52690000D01*
%TO.N,Net-(J2-Pin_1)*%
X82338500Y-42729800D02*
X80665400Y-42729800D01*
X31730000Y-63048300D02*
X32405800Y-63048300D01*
X82338500Y-42729800D02*
X82618300Y-42450000D01*
X43094200Y-60050000D02*
X40800000Y-57755800D01*
X73885600Y-35950000D02*
X68500000Y-35950000D01*
X83900000Y-64118300D02*
X83900000Y-64970000D01*
X66500000Y-64500000D02*
X58271700Y-64500000D01*
X66500000Y-64500000D02*
X66500000Y-65500000D01*
X87591100Y-60860000D02*
X87419700Y-61031400D01*
X31730000Y-63900000D02*
X31730000Y-63048300D01*
X40800000Y-57330000D02*
X40800000Y-57755800D01*
X80665400Y-42729800D02*
X73885600Y-35950000D01*
X85230000Y-58841700D02*
X85230000Y-58415800D01*
X83523200Y-58415800D02*
X82338500Y-57231100D01*
X51600000Y-28740000D02*
X56823100Y-28740000D01*
X83420000Y-42450000D02*
X83420000Y-41598300D01*
X37698300Y-43520000D02*
X36382000Y-43520000D01*
X38500000Y-43520000D02*
X37698300Y-43520000D01*
X84332800Y-64118300D02*
X83900000Y-64118300D01*
X87419700Y-61031400D02*
X85230000Y-58841700D01*
X48129200Y-60050000D02*
X43094200Y-60050000D01*
X37698300Y-57755800D02*
X40800000Y-57755800D01*
X83420000Y-41598300D02*
X83952300Y-41598300D01*
X67500000Y-63500000D02*
X66500000Y-64500000D01*
X37698300Y-57755800D02*
X37698300Y-43520000D01*
X64033100Y-35950000D02*
X68500000Y-35950000D01*
X58271700Y-64500000D02*
X58121700Y-64350000D01*
X85230000Y-57990000D02*
X85230000Y-58415800D01*
X32405800Y-63048300D02*
X37698300Y-57755800D01*
X58121700Y-64350000D02*
X56520000Y-64350000D01*
X82618300Y-42450000D02*
X83420000Y-42450000D01*
X52429200Y-64350000D02*
X48129200Y-60050000D01*
X85230000Y-58415800D02*
X83523200Y-58415800D01*
X83952300Y-41598300D02*
X90700000Y-34850600D01*
X90700000Y-34850600D02*
X90700000Y-29515000D01*
X82338500Y-57231100D02*
X82338500Y-42729800D01*
X87419700Y-61031400D02*
X84332800Y-64118300D01*
X36382000Y-43520000D02*
X29830000Y-36968000D01*
X29830000Y-36968000D02*
X29830000Y-35700000D01*
X67500000Y-57540000D02*
X67500000Y-63500000D01*
X56520000Y-64350000D02*
X52429200Y-64350000D01*
X56823100Y-28740000D02*
X64033100Y-35950000D01*
X93130000Y-60860000D02*
X87591100Y-60860000D01*
%TO.N,Net-(JP4-A)*%
X67800000Y-54700000D02*
X68100000Y-54700000D01*
X68100000Y-51410000D02*
X68100000Y-54700000D01*
X82399900Y-65955600D02*
X87237500Y-65955600D01*
X68100000Y-54700000D02*
X71144300Y-54700000D01*
X71144300Y-54700000D02*
X82399900Y-65955600D01*
X67500000Y-55000000D02*
X67800000Y-54700000D01*
%TO.N,Net-(JP5-A)*%
X40800000Y-51365000D02*
X40800000Y-54790000D01*
X41280000Y-50885000D02*
X40800000Y-51365000D01*
%TD*%
D20*
X87237500Y-65955600D03*
D21*
X56520000Y-64350000D03*
X55250000Y-63080000D03*
X56520000Y-61810000D03*
X26650000Y-28220000D03*
X29190000Y-28220000D03*
X32510000Y-27910000D03*
X35050000Y-27910000D03*
X41900000Y-29420000D03*
X40630000Y-28150000D03*
X41900000Y-26880000D03*
X43680000Y-33950000D03*
X46220000Y-33950000D03*
X69060000Y-24360000D03*
X67790000Y-23090000D03*
X69060000Y-21820000D03*
X68100000Y-51410000D03*
X68100000Y-48870000D03*
X38185000Y-33850000D03*
X40725000Y-33850000D03*
X22275000Y-55650000D03*
X24815000Y-55650000D03*
X68500000Y-35950000D03*
X67230000Y-34680000D03*
X68500000Y-33410000D03*
X84470000Y-22165000D03*
X84470000Y-19625000D03*
X59720000Y-20000000D03*
X81480000Y-29740000D03*
X80210000Y-28470000D03*
X81480000Y-27200000D03*
X21585000Y-62520000D03*
X24125000Y-62520000D03*
X73975000Y-63540000D03*
X76515000Y-63540000D03*
X74000000Y-41080000D03*
X76540000Y-41080000D03*
X46345000Y-63390000D03*
X48885000Y-63390000D03*
X31730000Y-63900000D03*
X30460000Y-62630000D03*
X31730000Y-61360000D03*
X56960000Y-51190000D03*
X56960000Y-48650000D03*
X15600000Y-37470000D03*
X15600000Y-42070000D03*
X15600000Y-46670000D03*
X76955000Y-34000000D03*
X79495000Y-34000000D03*
X66500000Y-65500000D03*
X67500000Y-57540000D03*
X66230000Y-56270000D03*
X67500000Y-55000000D03*
X83420000Y-42450000D03*
X82150000Y-41180000D03*
X83420000Y-39910000D03*
X101120000Y-45970000D03*
X101120000Y-41370000D03*
X51870000Y-22185000D03*
X51870000Y-19645000D03*
X71775000Y-28450000D03*
X74315000Y-28450000D03*
X90970000Y-22725000D03*
X90970000Y-20185000D03*
X21325000Y-34330000D03*
X23865000Y-34330000D03*
X29240000Y-42150000D03*
X31780000Y-42150000D03*
X83900000Y-64970000D03*
X82630000Y-63700000D03*
X83900000Y-62430000D03*
X29830000Y-23770000D03*
X28560000Y-22500000D03*
X29830000Y-21230000D03*
X32910000Y-50890000D03*
X32910000Y-48350000D03*
X29830000Y-35700000D03*
X28560000Y-34430000D03*
X29830000Y-33160000D03*
X58815000Y-34830000D03*
X61355000Y-34830000D03*
X75945000Y-56720000D03*
X78485000Y-56720000D03*
X93130000Y-60860000D03*
X91860000Y-59590000D03*
X93130000Y-58320000D03*
X38500000Y-43520000D03*
X37230000Y-42250000D03*
X38500000Y-40980000D03*
X84180000Y-51640000D03*
X84180000Y-49100000D03*
X40800000Y-57330000D03*
X39530000Y-56060000D03*
X40800000Y-54790000D03*
X51600000Y-28740000D03*
X50330000Y-27470000D03*
X51600000Y-26200000D03*
X42220000Y-22715000D03*
X42220000Y-20175000D03*
X32380000Y-57170000D03*
X31110000Y-55900000D03*
X32380000Y-54630000D03*
X46865000Y-57230000D03*
X49405000Y-57230000D03*
X90700000Y-29515000D03*
X89430000Y-28245000D03*
X90700000Y-26975000D03*
X91160000Y-51960000D03*
X91160000Y-49420000D03*
X85230000Y-57990000D03*
X83960000Y-56720000D03*
X85230000Y-55450000D03*
X56480000Y-57690000D03*
X55210000Y-56420000D03*
X56480000Y-55150000D03*
X65135000Y-28610000D03*
X67675000Y-28610000D03*
X82960000Y-34000000D03*
X85500000Y-34000000D03*
X41280000Y-50885000D03*
X41280000Y-48345000D03*
M02*
